<?xml version="1.0" encoding="utf-8"?>
<!-- Generator: Adobe Illustrator 13.0.0, SVG Export Plug-In . SVG Version: 6.00 Build 14948)  -->
<!DOCTYPE svg PUBLIC "-//W3C//DTD SVG 1.1//EN" "http://www.w3.org/Graphics/SVG/1.1/DTD/svg11.dtd">
<svg version="1.1" id="Layer_1" xmlns="http://www.w3.org/2000/svg" xmlns:xlink="http://www.w3.org/1999/xlink" x="0px" y="0px"
	 width="1600px" height="864px" viewBox="0 0 1600 864" enable-background="new 0 0 1600 864" xml:space="preserve">
<path fill="#36197F" d="M620.148,132.475c-45.084,0.475-69.441,32.787-41.29,113.423c72.138,206.64,9.546,188.042-144.013,135.961
	c-153.559-52.08-206.01-73.097-255.209-14.732c-49.199,58.365,16.18,75.893,56.44,123.396c40.261,47.505-0.273,62.983-68.406,77.506
	c-68.133,14.522-127.737,17.651-138.018,78.664c-10.281,61.014,126.26,48.892-18.05,133.805c-3.599,2.115-7.135,4.338-10.602,6.664
	V865h1196.486c-77.54-18.631-155.69-34.62-234.316-47.941c-429.164-72.675-768.214-18.188-858.621,1.082
	c-74.004,15.774-92.123,21.224-96.352,22.707c14.805-5.526,259.872-95.04,629.486-104.885
	C917.166,728.52,1357.332,817.105,1572.74,865H1601V591.326c-8.13-20.532-16.096-39.107-23.59-54.303
	c-50.664-102.738-91.946-48.243-96.486-17.29c-4.541,30.954-46.55,72.401-156.383-140.84
	c-109.833-213.244-210.112-227.434-259.137-91.135c-49.024,136.3-137.104,88.928-230.5-27.473
	C776.341,187.297,679.987,131.843,620.148,132.475L620.148,132.475z"/>
<g>
	<defs>
		<path id="SVGID_1_" d="M619.148,131.475c-45.084,0.475-69.441,32.787-41.29,113.423c72.138,206.64,9.546,188.042-144.013,135.961
			c-153.559-52.08-206.01-73.097-255.209-14.732c-49.199,58.365,16.18,75.893,56.44,123.396
			c40.261,47.505-0.273,62.983-68.406,77.506c-68.133,14.522-127.737,17.651-138.018,78.664
			c-10.281,61.014,126.26,48.892-18.05,133.805c-3.599,2.115-7.135,4.338-10.602,6.664V864h1196.486
			c-77.54-18.631-155.69-34.62-234.316-47.941c-429.164-72.675-768.214-18.188-858.621,1.082
			c-74.004,15.774-92.123,21.224-96.352,22.707c14.805-5.526,259.872-95.04,629.486-104.885
			C916.166,727.52,1356.332,816.105,1571.74,864H1600V590.326c-8.13-20.532-16.096-39.107-23.59-54.303
			c-50.664-102.738-91.946-48.243-96.486-17.29c-4.541,30.954-46.55,72.401-156.383-140.84
			c-109.833-213.244-210.112-227.434-259.137-91.135c-49.024,136.3-137.104,88.928-230.5-27.473
			C775.341,186.297,678.987,130.843,619.148,131.475L619.148,131.475z"/>
	</defs>
	<clipPath id="SVGID_2_">
		<use xlink:href="#SVGID_1_"  overflow="visible"/>
	</clipPath>
	<g clip-path="url(#SVGID_2_)">
		<rect x="-109.5" y="-567.5" fill="none" stroke="#65FCFC" width="1780" height="1780"/>
		<line fill="none" stroke="#65FCFC" x1="-109.5" y1="1184.688" x2="1670.5" y2="1184.688"/>
		<line fill="none" stroke="#65FCFC" x1="-109.5" y1="1157.744" x2="1670.5" y2="1157.744"/>
		<line fill="none" stroke="#65FCFC" x1="-109.5" y1="1129.932" x2="1670.5" y2="1129.932"/>
		<line fill="none" stroke="#65FCFC" x1="-109.5" y1="1102.988" x2="1670.5" y2="1102.988"/>
		<line fill="none" stroke="#65FCFC" x1="-109.5" y1="1075.176" x2="1670.5" y2="1075.176"/>
		<line fill="none" stroke="#65FCFC" x1="-109.5" y1="1048.232" x2="1670.5" y2="1048.232"/>
		<line fill="none" stroke="#65FCFC" x1="-109.5" y1="1020.42" x2="1670.5" y2="1020.42"/>
		<line fill="none" stroke="#65FCFC" x1="-109.5" y1="993.477" x2="1670.5" y2="993.477"/>
		<line fill="none" stroke="#65FCFC" x1="-109.5" y1="965.664" x2="1670.5" y2="965.664"/>
		<line fill="none" stroke="#65FCFC" x1="-109.5" y1="938.721" x2="1670.5" y2="938.721"/>
		<line fill="none" stroke="#65FCFC" x1="-109.5" y1="910.908" x2="1670.5" y2="910.908"/>
		<line fill="none" stroke="#65FCFC" x1="-109.5" y1="883.965" x2="1670.5" y2="883.965"/>
		<line fill="none" stroke="#65FCFC" x1="-109.5" y1="856.152" x2="1670.5" y2="856.152"/>
		<line fill="none" stroke="#65FCFC" x1="-109.5" y1="829.209" x2="1670.5" y2="829.209"/>
		<line fill="none" stroke="#65FCFC" x1="-109.5" y1="801.396" x2="1670.5" y2="801.396"/>
		<line fill="none" stroke="#65FCFC" x1="-109.5" y1="774.453" x2="1670.5" y2="774.453"/>
		<line fill="none" stroke="#65FCFC" x1="-109.5" y1="746.641" x2="1670.5" y2="746.641"/>
		<line fill="none" stroke="#65FCFC" x1="-109.5" y1="719.697" x2="1670.5" y2="719.697"/>
		<line fill="none" stroke="#65FCFC" x1="-109.5" y1="691.885" x2="1670.5" y2="691.885"/>
		<line fill="none" stroke="#65FCFC" x1="-109.5" y1="664.941" x2="1670.5" y2="664.941"/>
		<line fill="none" stroke="#65FCFC" x1="-109.5" y1="637.129" x2="1670.5" y2="637.129"/>
		<line fill="none" stroke="#65FCFC" x1="-109.5" y1="610.186" x2="1670.5" y2="610.186"/>
		<line fill="none" stroke="#65FCFC" x1="-109.5" y1="582.373" x2="1670.5" y2="582.373"/>
		<line fill="none" stroke="#65FCFC" x1="-109.5" y1="555.43" x2="1670.5" y2="555.43"/>
		<line fill="none" stroke="#65FCFC" x1="-109.5" y1="527.617" x2="1670.5" y2="527.617"/>
		<line fill="none" stroke="#65FCFC" x1="-109.5" y1="500.674" x2="1670.5" y2="500.674"/>
		<line fill="none" stroke="#65FCFC" x1="-109.5" y1="472.861" x2="1670.5" y2="472.861"/>
		<line fill="none" stroke="#65FCFC" x1="-109.5" y1="445.918" x2="1670.5" y2="445.918"/>
		<line fill="none" stroke="#65FCFC" x1="-109.5" y1="418.105" x2="1670.5" y2="418.105"/>
		<line fill="none" stroke="#65FCFC" x1="-109.5" y1="391.162" x2="1670.5" y2="391.162"/>
		<line fill="none" stroke="#65FCFC" x1="-109.5" y1="363.35" x2="1670.5" y2="363.35"/>
		<line fill="none" stroke="#65FCFC" x1="-109.5" y1="336.406" x2="1670.5" y2="336.406"/>
		<line fill="none" stroke="#65FCFC" x1="-109.5" y1="308.594" x2="1670.5" y2="308.594"/>
		<line fill="none" stroke="#65FCFC" x1="-109.5" y1="281.65" x2="1670.5" y2="281.65"/>
		<line fill="none" stroke="#65FCFC" x1="-109.5" y1="253.838" x2="1670.5" y2="253.838"/>
		<line fill="none" stroke="#65FCFC" x1="-109.5" y1="226.895" x2="1670.5" y2="226.895"/>
		<line fill="none" stroke="#65FCFC" x1="-109.5" y1="199.082" x2="1670.5" y2="199.082"/>
		<line fill="none" stroke="#65FCFC" x1="-109.5" y1="172.139" x2="1670.5" y2="172.139"/>
		<line fill="none" stroke="#65FCFC" x1="-109.5" y1="144.326" x2="1670.5" y2="144.326"/>
		<line fill="none" stroke="#65FCFC" x1="-109.5" y1="117.383" x2="1670.5" y2="117.383"/>
		<line fill="none" stroke="#65FCFC" x1="-109.5" y1="89.57" x2="1670.5" y2="89.57"/>
		<line fill="none" stroke="#65FCFC" x1="-109.5" y1="62.627" x2="1670.5" y2="62.627"/>
		<line fill="none" stroke="#65FCFC" x1="-109.5" y1="34.814" x2="1670.5" y2="34.814"/>
		<line fill="none" stroke="#65FCFC" x1="-109.5" y1="7.871" x2="1670.5" y2="7.871"/>
		<line fill="none" stroke="#65FCFC" x1="-109.5" y1="-19.941" x2="1670.5" y2="-19.941"/>
		<line fill="none" stroke="#65FCFC" x1="-109.5" y1="-46.885" x2="1670.5" y2="-46.885"/>
		<line fill="none" stroke="#65FCFC" x1="-109.5" y1="-74.697" x2="1670.5" y2="-74.697"/>
		<line fill="none" stroke="#65FCFC" x1="-109.5" y1="-101.641" x2="1670.5" y2="-101.641"/>
		<line fill="none" stroke="#65FCFC" x1="-109.5" y1="-129.453" x2="1670.5" y2="-129.453"/>
		<line fill="none" stroke="#65FCFC" x1="-109.5" y1="-156.396" x2="1670.5" y2="-156.396"/>
		<line fill="none" stroke="#65FCFC" x1="-109.5" y1="-184.209" x2="1670.5" y2="-184.209"/>
		<line fill="none" stroke="#65FCFC" x1="-109.5" y1="-211.152" x2="1670.5" y2="-211.152"/>
		<line fill="none" stroke="#65FCFC" x1="-109.5" y1="-238.965" x2="1670.5" y2="-238.965"/>
		<line fill="none" stroke="#65FCFC" x1="-109.5" y1="-265.908" x2="1670.5" y2="-265.908"/>
		<line fill="none" stroke="#65FCFC" x1="-109.5" y1="-293.721" x2="1670.5" y2="-293.721"/>
		<line fill="none" stroke="#65FCFC" x1="-109.5" y1="-320.664" x2="1670.5" y2="-320.664"/>
		<line fill="none" stroke="#65FCFC" x1="-109.5" y1="-348.477" x2="1670.5" y2="-348.477"/>
		<line fill="none" stroke="#65FCFC" x1="-109.5" y1="-375.42" x2="1670.5" y2="-375.42"/>
		<line fill="none" stroke="#65FCFC" x1="-109.5" y1="-403.232" x2="1670.5" y2="-403.232"/>
		<line fill="none" stroke="#65FCFC" x1="-109.5" y1="-430.176" x2="1670.5" y2="-430.176"/>
		<line fill="none" stroke="#65FCFC" x1="-109.5" y1="-457.988" x2="1670.5" y2="-457.988"/>
		<line fill="none" stroke="#65FCFC" x1="-109.5" y1="-484.932" x2="1670.5" y2="-484.932"/>
		<line fill="none" stroke="#65FCFC" x1="-109.5" y1="-512.744" x2="1670.5" y2="-512.744"/>
		<line fill="none" stroke="#65FCFC" x1="-109.5" y1="-539.688" x2="1670.5" y2="-539.688"/>
		<line fill="none" stroke="#65FCFC" x1="1643.123" y1="-567.5" x2="1643.123" y2="1212.5"/>
		<line fill="none" stroke="#65FCFC" x1="1615.744" y1="-567.5" x2="1615.744" y2="1212.5"/>
		<line fill="none" stroke="#65FCFC" x1="1588.367" y1="-567.5" x2="1588.367" y2="1212.5"/>
		<line fill="none" stroke="#65FCFC" x1="1560.988" y1="-567.5" x2="1560.988" y2="1212.5"/>
		<line fill="none" stroke="#65FCFC" x1="1533.611" y1="-567.5" x2="1533.611" y2="1212.5"/>
		<line fill="none" stroke="#65FCFC" x1="1506.232" y1="-567.5" x2="1506.232" y2="1212.5"/>
		<line fill="none" stroke="#65FCFC" x1="1478.855" y1="-567.5" x2="1478.855" y2="1212.5"/>
		<line fill="none" stroke="#65FCFC" x1="1451.477" y1="-567.5" x2="1451.477" y2="1212.5"/>
		<line fill="none" stroke="#65FCFC" x1="1424.1" y1="-567.5" x2="1424.1" y2="1212.5"/>
		<line fill="none" stroke="#65FCFC" x1="1396.721" y1="-567.5" x2="1396.721" y2="1212.5"/>
		<line fill="none" stroke="#65FCFC" x1="1369.344" y1="-567.5" x2="1369.344" y2="1212.5"/>
		<line fill="none" stroke="#65FCFC" x1="1341.965" y1="-567.5" x2="1341.965" y2="1212.5"/>
		<line fill="none" stroke="#65FCFC" x1="1314.588" y1="-567.5" x2="1314.588" y2="1212.5"/>
		<line fill="none" stroke="#65FCFC" x1="1287.209" y1="-567.5" x2="1287.209" y2="1212.5"/>
		<line fill="none" stroke="#65FCFC" x1="1259.832" y1="-567.5" x2="1259.832" y2="1212.5"/>
		<line fill="none" stroke="#65FCFC" x1="1232.453" y1="-567.5" x2="1232.453" y2="1212.5"/>
		<line fill="none" stroke="#65FCFC" x1="1205.076" y1="-567.5" x2="1205.076" y2="1212.5"/>
		<line fill="none" stroke="#65FCFC" x1="1177.697" y1="-567.5" x2="1177.697" y2="1212.5"/>
		<line fill="none" stroke="#65FCFC" x1="1150.32" y1="-567.5" x2="1150.32" y2="1212.5"/>
		<line fill="none" stroke="#65FCFC" x1="1122.941" y1="-567.5" x2="1122.941" y2="1212.5"/>
		<line fill="none" stroke="#65FCFC" x1="1095.564" y1="-567.5" x2="1095.564" y2="1212.5"/>
		<line fill="none" stroke="#65FCFC" x1="1068.186" y1="-567.5" x2="1068.186" y2="1212.5"/>
		<line fill="none" stroke="#65FCFC" x1="1040.809" y1="-567.5" x2="1040.809" y2="1212.5"/>
		<line fill="none" stroke="#65FCFC" x1="1013.43" y1="-567.5" x2="1013.43" y2="1212.5"/>
		<line fill="none" stroke="#65FCFC" x1="986.053" y1="-567.5" x2="986.053" y2="1212.5"/>
		<line fill="none" stroke="#65FCFC" x1="958.674" y1="-567.5" x2="958.674" y2="1212.5"/>
		<line fill="none" stroke="#65FCFC" x1="931.297" y1="-567.5" x2="931.297" y2="1212.5"/>
		<line fill="none" stroke="#65FCFC" x1="903.918" y1="-567.5" x2="903.918" y2="1212.5"/>
		<line fill="none" stroke="#65FCFC" x1="876.541" y1="-567.5" x2="876.541" y2="1212.5"/>
		<line fill="none" stroke="#65FCFC" x1="849.162" y1="-567.5" x2="849.162" y2="1212.5"/>
		<line fill="none" stroke="#65FCFC" x1="821.785" y1="-567.5" x2="821.785" y2="1212.5"/>
		<line fill="none" stroke="#65FCFC" x1="794.406" y1="-567.5" x2="794.406" y2="1212.5"/>
		<line fill="none" stroke="#65FCFC" x1="766.594" y1="-567.5" x2="766.594" y2="1212.5"/>
		<line fill="none" stroke="#65FCFC" x1="739.216" y1="-567.5" x2="739.216" y2="1212.5"/>
		<line fill="none" stroke="#65FCFC" x1="711.838" y1="-567.5" x2="711.838" y2="1212.5"/>
		<line fill="none" stroke="#65FCFC" x1="684.46" y1="-567.5" x2="684.46" y2="1212.5"/>
		<line fill="none" stroke="#65FCFC" x1="657.082" y1="-567.5" x2="657.082" y2="1212.5"/>
		<line fill="none" stroke="#65FCFC" x1="629.705" y1="-567.5" x2="629.705" y2="1212.5"/>
		<line fill="none" stroke="#65FCFC" x1="602.326" y1="-567.5" x2="602.326" y2="1212.5"/>
		<line fill="none" stroke="#65FCFC" x1="574.949" y1="-567.5" x2="574.949" y2="1212.5"/>
		<line fill="none" stroke="#65FCFC" x1="547.57" y1="-567.5" x2="547.57" y2="1212.5"/>
		<line fill="none" stroke="#65FCFC" x1="520.193" y1="-567.5" x2="520.193" y2="1212.5"/>
		<line fill="none" stroke="#65FCFC" x1="492.814" y1="-567.5" x2="492.814" y2="1212.5"/>
		<line fill="none" stroke="#65FCFC" x1="465.437" y1="-567.5" x2="465.437" y2="1212.5"/>
		<line fill="none" stroke="#65FCFC" x1="438.059" y1="-567.5" x2="438.059" y2="1212.5"/>
		<line fill="none" stroke="#65FCFC" x1="410.681" y1="-567.5" x2="410.681" y2="1212.5"/>
		<line fill="none" stroke="#65FCFC" x1="383.303" y1="-567.5" x2="383.303" y2="1212.5"/>
		<line fill="none" stroke="#65FCFC" x1="355.925" y1="-567.5" x2="355.925" y2="1212.5"/>
		<line fill="none" stroke="#65FCFC" x1="328.547" y1="-567.5" x2="328.547" y2="1212.5"/>
		<line fill="none" stroke="#65FCFC" x1="301.169" y1="-567.5" x2="301.169" y2="1212.5"/>
		<line fill="none" stroke="#65FCFC" x1="273.791" y1="-567.5" x2="273.791" y2="1212.5"/>
		<line fill="none" stroke="#65FCFC" x1="246.414" y1="-567.5" x2="246.414" y2="1212.5"/>
		<line fill="none" stroke="#65FCFC" x1="219.035" y1="-567.5" x2="219.035" y2="1212.5"/>
		<line fill="none" stroke="#65FCFC" x1="191.658" y1="-567.5" x2="191.658" y2="1212.5"/>
		<line fill="none" stroke="#65FCFC" x1="164.279" y1="-567.5" x2="164.279" y2="1212.5"/>
		<line fill="none" stroke="#65FCFC" x1="136.902" y1="-567.5" x2="136.902" y2="1212.5"/>
		<line fill="none" stroke="#65FCFC" x1="109.523" y1="-567.5" x2="109.523" y2="1212.5"/>
		<line fill="none" stroke="#65FCFC" x1="82.146" y1="-567.5" x2="82.146" y2="1212.5"/>
		<line fill="none" stroke="#65FCFC" x1="54.768" y1="-567.5" x2="54.768" y2="1212.5"/>
		<line fill="none" stroke="#65FCFC" x1="27.39" y1="-567.5" x2="27.39" y2="1212.5"/>
		<line fill="none" stroke="#65FCFC" x1="0.012" y1="-567.5" x2="0.012" y2="1212.5"/>
		<line fill="none" stroke="#65FCFC" x1="-27.366" y1="-567.5" x2="-27.366" y2="1212.5"/>
		<line fill="none" stroke="#65FCFC" x1="-54.744" y1="-567.5" x2="-54.744" y2="1212.5"/>
		<line fill="none" stroke="#65FCFC" x1="-82.122" y1="-567.5" x2="-82.122" y2="1212.5"/>
	</g>
</g>
</svg>
