<svg enable-background="new 0 0 612 792" height="792" viewBox="0 0 612 792" width="612" xmlns="http://www.w3.org/2000/svg"><path d="m510 642.5c0 32.861-91.341 59.5-204 59.5s-204-26.639-204-59.5c0-32.844 91.324-59.5 204-59.5 112.659 0 204 26.639 204 59.5z" fill="#99aab5"/><path d="m102 625.5h408v17h-408z" fill="#99aab5"/><path d="m510 625.5c0 32.861-91.341 59.5-204 59.5s-204-26.639-204-59.5 91.324-59.5 204-59.5c112.659 0 204 26.639 204 59.5z" fill="#e6e7e8"/><path d="m493 617c0 28.152-83.742 51-187 51-103.275 0-187-22.831-187-51s83.708-51 187-51c103.275 0 187 22.831 187 51z" fill="#d84192"/><path d="m119 226h374v391h-374z" fill="#d84192"/><path d="m493 481c0 32.844-83.742 59.5-187 59.5-103.275 0-187-26.639-187-59.5s83.708-59.5 187-59.5c103.258 0 187 26.639 187 59.5z" fill="#ff71ce"/><path d="m119 260h374v221h-374z" fill="#ff71ce"/><path d="m493 328c0 32.844-83.742 59.5-187 59.5-103.275 0-186.983-26.639-186.983-59.5s83.708-59.5 186.983-59.5c103.258 0 187 26.639 187 59.5z" fill="#d84192"/><path d="m119 158h374v170h-374z" fill="#d84192"/><path d="m510 166.5c0 32.861-91.341 59.5-204 59.5s-204-26.639-204-59.5 91.341-59.5 204-59.5 204 26.639 204 59.5z" fill="#99aab5"/><path d="m102 149.5h408v17h-408z" fill="#99aab5"/><path d="m510 149.5c0 32.861-91.341 59.5-204 59.5s-204-26.639-204-59.5 91.341-59.5 204-59.5 204 26.639 204 59.5z" fill="#e6e7e8"/><path d="m480.25 149.5c0 23.477-77.996 42.5-174.25 42.5s-174.25-19.023-174.25-42.5 77.996-42.5 174.25-42.5 174.25 19.023 174.25 42.5z" fill="#ccd6dd"/><path d="m463.25 149.5c0 18.785-70.38 34-157.25 34s-157.25-15.215-157.25-34 70.397-34 157.25-34c86.87 0 157.25 15.215 157.25 34z" fill="#e6e7e8"/><path d="m408 149.5c0 11.73-45.662 21.25-102 21.25s-102-9.52-102-21.25 45.662-21.25 102-21.25 102 9.52 102 21.25z" fill="#ccd6dd"/><ellipse cx="306" cy="149.5" fill="#e6e7e8" rx="80.75" ry="12.75"/><path d="m457 467c0 89.349-67.605 161.786-151 161.786-83.396 0-151-72.438-151-161.786s67.604-161.786 151-161.786c83.395 0 151 72.437 151 161.786z" fill="#276f85"/><path d="m413.857 467c0 68.08-48.299 123.28-107.857 123.28s-107.857-55.222-107.857-123.28 48.276-123.259 107.857-123.259c59.58 0 107.857 55.18 107.857 123.259z" fill="#132c4a"/><path d="m384.244 473.009c0 44.109-35.759 79.868-79.868 79.868s-79.868-35.759-79.868-79.868c0-44.108 35.759-79.867 79.868-79.867s79.868 35.758 79.868 79.867" fill="#fee7b8" stroke="#fcd0b9" stroke-width="2"/><circle cx="255.258" cy="486.321" fill="#ff7892" r="17.749"/><circle cx="352.874" cy="486.321" fill="#ff7892" r="17.749"/><path d="m345.797 497.985c-.789-.714-1.971-.759-2.817-.128-.173.128-17.402 12.867-38.603 12.867-21.147 0-38.434-12.739-38.603-12.867-.847-.631-2.027-.577-2.817.128-.786.71-.963 1.882-.417 2.786.572.955 14.274 29.92 41.837 29.92s41.27-28.965 41.837-29.92c.546-.909.373-2.076-.417-2.786z" fill="none"/><ellipse cx="275.536" cy="444.168" fill="#664500" rx="11.093" ry="15.53"/><ellipse cx="337.655" cy="444.168" fill="#664500" rx="11.093" ry="15.53"/><circle cx="306.595" cy="479.665" fill="#bb1a34" r="15.53"/><path d="m387.652 428.578c6.93-6.619 13.557-12.873 19.724-18.631 4.802 3.075 10.558 4.789 16.692 4.502 15.802-.737 27.999-14.137 27.262-29.931-.664-14.241-11.645-25.47-25.374-27.016-2.454-13.978-14.843-24.33-29.395-23.651-15.801.738-27.998 14.138-27.261 29.931.295 6.332 2.689 12.034 6.399 16.61-4.586 5.945-9.522 12.276-14.765 18.924 10.957 6.622 20.091 16.217 26.718 29.262z" fill="#fee7b8" stroke="#fcd0b9" stroke-width="2"/><path d="m189.627 414.793c6.338 0 12.146-2.127 16.89-5.62 6.535 5.554 13.585 11.606 20.971 18.027 6.012-13.341 14.682-23.352 25.323-30.476-5.554-6.388-10.772-12.49-15.639-18.207 3.493-4.744 5.619-10.551 5.619-16.89 0-15.811-12.817-28.627-28.627-28.627-14.543 0-26.411 10.878-28.251 24.914-14.035 1.84-24.913 13.709-24.913 28.251 0 15.811 12.816 28.628 28.627 28.628z" fill="#fee7b8" stroke="#fcd0b9" stroke-width="2"/><path d="m420.127 535.59c-6.327-.38-12.252 1.396-17.196 4.598-6.19-5.936-12.865-12.399-19.854-19.251-6.8 12.955-16.054 22.431-27.104 28.904 5.161 6.708 10.005 13.112 14.521 19.11-3.771 4.526-6.242 10.196-6.621 16.523-.947 15.782 11.078 29.344 26.861 30.291 14.517.871 27.015-9.277 29.692-23.177 14.121-.997 25.69-12.191 26.562-26.708.948-15.781-11.078-29.343-26.861-30.29z" fill="#fee7b8" stroke="#fcd0b9"/><path d="m223.672 520.091c-6.876 6.677-13.453 12.982-19.574 18.789-4.827-3.037-10.595-4.704-16.728-4.368-15.795.863-27.885 14.36-27.022 30.147.778 14.234 11.848 25.376 25.59 26.812 2.565 13.957 15.036 24.211 29.582 23.416 15.795-.864 27.885-14.36 27.021-30.147-.346-6.329-2.787-12.013-6.533-16.559 4.539-5.981 9.425-12.352 14.612-19.041-11.005-6.534-20.217-16.056-26.948-29.049z" fill="#fee7b8" stroke="#fcd0b9"/><circle cx="267.879" cy="398.762" fill="#f222ff" r="7.602"/><circle cx="292.185" cy="397.461" fill="#f222ff" r="11.404"/><circle cx="279.82" cy="388.611" fill="#f222ff" r="11.404"/><circle cx="275.834" cy="397.444" fill="#f222ff" r="9.503"/><circle cx="286.881" cy="398.34" fill="#f222ff" r="7.603"/><circle cx="313.322" cy="398.323" fill="#ff901f" r="7.603"/><circle cx="289.017" cy="397.021" fill="#ff901f" r="11.404"/><circle cx="301.381" cy="388.171" fill="#ff901f" r="11.404"/><circle cx="305.366" cy="397.004" fill="#ff901f" r="9.503"/><circle cx="294.32" cy="397.899" fill="#ff901f" r="7.603"/><circle cx="316.741" cy="390.201" fill="#ff2975" r="7.603"/><circle cx="292.436" cy="388.899" fill="#ff2975" r="11.404"/><circle cx="304.8" cy="380.049" fill="#ff2975" r="11.404"/><circle cx="308.786" cy="388.883" fill="#ff2975" r="9.503"/><circle cx="297.74" cy="389.778" fill="#ff2975" r="7.603"/><circle cx="312.144" cy="391.483" fill="#8c1eff" r="7.603"/><circle cx="336.45" cy="390.182" fill="#8c1eff" r="11.404"/><circle cx="324.086" cy="381.332" fill="#8c1eff" r="11.404"/><circle cx="320.1" cy="390.165" fill="#8c1eff" r="9.503"/><circle cx="331.146" cy="391.06" fill="#8c1eff" r="7.603"/><circle cx="342.817" cy="400.887" fill="#ffd319" r="7.603"/><circle cx="318.511" cy="399.586" fill="#ffd319" r="11.404"/><circle cx="330.875" cy="390.736" fill="#ffd319" r="11.404"/><circle cx="334.861" cy="399.569" fill="#ffd319" r="9.503"/><circle cx="323.815" cy="400.464" fill="#ffd319" r="7.602"/><circle cx="306.91" cy="394.475" fill="#01cdfe" r="7.602"/><circle cx="282.605" cy="393.174" fill="#01cdfe" r="11.404"/><circle cx="294.969" cy="384.324" fill="#01cdfe" r="11.404"/><circle cx="298.955" cy="393.158" fill="#01cdfe" r="9.503"/><circle cx="287.908" cy="394.052" fill="#01cdfe" r="7.603"/><path d="m259.594 471.041c-1.803-.088-3.546.148-5.173.659 4.691.632 6.988 3.261 5.734 5.829-1.176 2.407-5.211.55-7.169.333-3.319-.368-7.141-.336-10.604 5.558 4.93-2.28 7.809.087 7.877 2.426.076 2.596-2.463 4.846-6.354 3.781 1.948 2.931 5.454 3.184 7.768 2.421 2.412-.795 4.332.247 4.443 2.479.124 2.494-2.846 3.732-7.41 2.235 2.484 2.327 5.777 3.819 9.443 3.997 8.207.399 15.183-5.931 15.582-14.137.4-8.206-5.93-15.183-14.137-15.581z" fill="#f4900c"/><path d="m263.683 477.027c2.702.002 3.644 2.421 3.072 3.67-.827 1.806-2.068 1.25-4.714 1.597s-4.554 2.078-5.487 4.734c5.631-1.698 7.523 1.458 7.81 3.078.293 1.654-.161 3.28-3.671 3.299 1.808 2.001 4.379 3.31 7.285 3.451.322.016.639.012.955-.001 2.783-2.555 4.601-6.161 4.799-10.232.198-4.072-1.262-7.838-3.784-10.65-.314-.043-.629-.078-.951-.094-1.912-.094-3.727.33-5.314 1.148z" fill="#ffcc4d"/><path d="m356.891 471.54c-1.803-.088-3.546.149-5.173.659 4.69.631 6.988 3.26 5.733 5.829-1.176 2.407-5.21.55-7.169.333-3.319-.368-7.141-.336-10.604 5.557 4.93-2.279 7.809.088 7.877 2.427.076 2.596-2.463 4.846-6.354 3.781 1.948 2.931 5.454 3.184 7.768 2.421 2.412-.795 4.332.247 4.443 2.479.124 2.494-2.846 3.732-7.409 2.235 2.483 2.327 5.776 3.819 9.442 3.997 8.207.399 15.184-5.931 15.582-14.137.401-8.206-5.929-15.183-14.136-15.581z" fill="#f4900c"/><path d="m360.979 477.526c2.702.002 3.645 2.421 3.072 3.67-.827 1.806-2.068 1.25-4.715 1.597-2.645.347-4.554 2.078-5.486 4.734 5.632-1.698 7.523 1.458 7.81 3.078.293 1.654-.16 3.28-3.671 3.299 1.808 2.001 4.379 3.31 7.284 3.451.322.016.64.012.956-.001 2.782-2.555 4.601-6.161 4.799-10.232.198-4.072-1.263-7.838-3.784-10.65-.313-.043-.629-.079-.95-.094-1.912-.094-3.728.33-5.315 1.148z" fill="#ffcc4d"/><path d="m348.078 501.659c0 11.04-19.771 28.213-44.158 28.213s-44.158-17.173-44.158-28.213c0-3.679 7.36 3.681 44.158 3.681s44.158-7.36 44.158-3.681z" fill="#96172c"/><path d="m303.92 510.246c-14.719 0-26.985-2.453-26.985-2.453v29.438c0 14.903 12.083 26.985 26.985 26.985 14.904 0 26.985-12.082 26.985-26.985v-29.438s-12.265 2.453-26.985 2.453z" fill="#c4165d"/><path d="m306.374 554.404c0 1.356-1.1 2.452-2.454 2.452s-2.453-1.096-2.453-2.452v-39.252c0-1.354 1.099-2.453 2.453-2.453s2.454 1.099 2.454 2.453z" fill="#ff2975"/><path d="m359.113 449.653c4.973-4.119 7.863-8.867 8.242-13.806.379-4.967-1.816-9.666-6.024-12.899-3.984-3.059-9.949-5.679-15.919-6.533-3.488-.498-6.983-.396-10.09.567-4.668 1.443-7.93 4.644-9.427 9.254-.588 1.803-1.079 3.479-1.551 5.138 4.422-2.374 9.458-3.32 14.543-2.592.502.072.999.158 1.487.26 10.227 2.126 17.609 10.646 18.739 20.611z" fill="#fff"/><path d="m325.413 458.547c2.893 2.01 12.307 3.658 27.172-4.488.488-.268.924-.558 1.389-.831.455-9.078-5.703-17.226-14.655-19.087-.383-.08-.774-.147-1.166-.204-5.904-.845-11.56 1.188-15.541 5.036l-.18.203c-2.009 10.176-1.039 16.586 2.981 19.371z" fill="#341155"/><path d="m340.375 429.042c-.488-.102-.984-.191-1.487-.26-5.085-.729-10.121.218-14.543 2.592-.804 2.811-1.444 5.415-1.917 7.801l.182-.202c3.979-3.85 9.635-5.882 15.54-5.036.393.057.782.123 1.165.203 8.952 1.861 15.111 10.009 14.655 19.087 1.9-1.127 3.627-2.316 5.144-3.573-1.131-9.966-8.513-18.486-18.739-20.612z" fill="#b967ff"/><circle cx="29.546" cy="466.836" fill="#fff" r="4.718"/><path d="m274.085 428.568c.518-.096 1.041-.179 1.574-.237 5.383-.655 10.676.459 15.258 3.04-.459-1.752-.938-3.523-1.516-5.432-1.478-4.888-4.842-8.332-9.723-9.958-3.252-1.087-6.933-1.271-10.618-.823-6.31.769-12.649 3.394-16.913 6.526-4.507 3.309-6.92 8.214-6.634 13.455.291 5.205 3.228 10.272 8.374 14.724 1.412-10.472 9.378-19.283 20.198-21.295z" fill="#fff"/><path d="m275.088 433.962c-9.471 1.762-16.141 10.206-15.863 19.782.488.301.937.614 1.445.907 15.472 8.91 25.43 7.382 28.523 5.331 4.296-2.845 5.458-9.574 3.571-20.34l-.185-.218c-4.107-4.143-10.019-6.41-16.257-5.651-.416.051-.829.114-1.234.189z" fill="#341155"/><path d="m292.76 439.644c-.44-2.532-1.062-5.292-1.847-8.274-4.583-2.581-9.875-3.695-15.258-3.041-.531.066-1.056.145-1.574.241-10.819 2.012-18.786 10.822-20.197 21.295 1.569 1.356 3.361 2.647 5.337 3.877-.276-9.572 6.392-18.017 15.863-19.778.406-.075.819-.138 1.233-.188 6.239-.759 12.151 1.508 16.258 5.651z" fill="#b967ff"/><path d="m265.327 452.551c.271 2.218 2.291 3.798 4.51 3.527s3.8-2.292 3.529-4.509c-.267-2.22-2.288-3.801-4.506-3.53-2.219.273-3.8 2.292-3.533 4.512z" fill="#fff"/><ellipse cx="294" cy="388.5" fill="none" rx="109.5" ry="100" transform="matrix(.9252 -.3794 .3794 .9252 -125.4216 140.601)"/><text fill="#fefdff" font-family="'RyoGothicStd-Heavy-83pv-RKSJ-H'" font-size="36" transform="matrix(.7851 -.8919 .7506 .6607 198.2676 342.9404)">ホ</text><text fill="#fefdff" font-family="'RyoGothicStd-Heavy-83pv-RKSJ-H'" font-size="36" transform="matrix(1.053 -.5504 .4632 .8862 226.9404 310.6104)">イ</text><text fill="#fefdff" font-family="'RyoGothicStd-Heavy-83pv-RKSJ-H'" font-size="36" transform="matrix(1.179 -.1475 .1241 .9923 265.2764 290.6025)">ッ</text><text fill="#fefdff" font-family="'RyoGothicStd-Heavy-83pv-RKSJ-H'" font-size="36" transform="matrix(1.1499 .2991 -.2518 .9678 308.2363 285.2324)">プ</text><text fill="#fefdff" font-family="'RyoGothicStd-Heavy-83pv-RKSJ-H'" font-size="36" transform="matrix(.9304 .739 -.622 .783 350.2686 296.123)">ロ</text><text fill="#fefdff" font-family="'RyoGothicStd-Heavy-83pv-RKSJ-H'" font-size="36" transform="matrix(.5064 1.0749 -.9046 .4262 384.2842 323.2607)">バ</text><ellipse cx="298.287" cy="384.5" fill="none" rx="109.5" ry="100" transform="matrix(.9252 -.3794 .3794 .9252 -123.5833 141.9286)"/><g fill="#341155"><text font-family="'RyoGothicStd-Heavy-83pv-RKSJ-H'" font-size="36" transform="matrix(.7851 -.8919 .7506 .6607 202.5547 338.9404)">ホ</text><text font-family="'RyoGothicStd-Heavy-83pv-RKSJ-H'" font-size="36" transform="matrix(1.053 -.5504 .4632 .8862 231.2275 306.6104)">イ</text><text font-family="'RyoGothicStd-Heavy-83pv-RKSJ-H'" font-size="36" transform="matrix(1.179 -.1475 .1241 .9923 269.5635 286.6025)">ッ</text><text font-family="'RyoGothicStd-Heavy-83pv-RKSJ-H'" font-size="36" transform="matrix(1.1499 .2991 -.2518 .9678 312.5234 281.2324)">プ</text><text font-family="'RyoGothicStd-Heavy-83pv-RKSJ-H'" font-size="36" transform="matrix(.9304 .739 -.622 .783 354.5557 292.123)">ロ</text><text font-family="'RyoGothicStd-Heavy-83pv-RKSJ-H'" font-size="36" transform="matrix(.5064 1.0749 -.9046 .4262 388.5713 319.2607)">バ</text></g></svg>