<?xml version="1.0" encoding="utf-8"?>
<!-- Generator: Adobe Illustrator 13.0.0, SVG Export Plug-In . SVG Version: 6.00 Build 14948)  -->
<!DOCTYPE svg PUBLIC "-//W3C//DTD SVG 1.1//EN" "http://www.w3.org/Graphics/SVG/1.1/DTD/svg11.dtd">
<svg version="1.1" id="Layer_1" xmlns="http://www.w3.org/2000/svg" xmlns:xlink="http://www.w3.org/1999/xlink" x="0px" y="0px"
	 width="2160px" height="2800px" viewBox="-2.139 157.104 2160 2800" enable-background="new -2.139 157.104 2160 2800"
	 xml:space="preserve">
<g>
	<path fill="#FFD319" d="M2868.929,1837.166l609.199-1.372c33.643-0.032,60.822-27.329,60.791-61.057l-4.387-2010.243
		c-0.074-33.687-27.329-60.823-61.101-60.834c-61.052,0.176-205.479-470.443-217.518-504.019l-175.9-0.04
		c-11.849,33.585-154.603,505.213-215.738,505.388c-33.687,0.074-60.865,27.371-60.791,61.058l4.387,2010.328
		C2807.903,1810.019,2835.242,1837.239,2868.929,1837.166z"/>
	<path fill="#F49138" d="M2804.474,297.186l-1.021-467.753l731.43-1.598l1.012,463.291"/>
	<polygon fill="#21BFD8" points="3542.12,1605.405 3535.971,212.336 2804.584,213.89 2790.199,1843.851 3543.186,1846.764 
		3543.019,1809.002 3542.12,1809.002 	"/>
	<polygon fill="#21BFD8" points="3542.12,1809.002 3543.019,1809.002 3542.12,1605.405 	"/>
	<path fill="#F91571" d="M3198.802,1200.199c-20.315,19.985-53.513,19.985-73.8,0l-182.584-179.722
		c-20.287-19.984-25.655-55.935-11.947-79.938l206.451-507.786c13.735-23.976,36.197-23.976,49.906,0l206.449,507.786
		c13.709,23.976,8.342,59.953-11.945,79.91L3198.802,1200.199z"/>
	<path fill="#930F45" d="M3161.889,628.001c26.122,0,55.163-26.206,79.8-60.311l-54.86-134.937
		c-13.736-23.976-36.198-23.976-49.906,0l-54.861,134.937C3106.752,601.795,3135.766,628.001,3161.889,628.001z"/>
	<path fill="#C92467" d="M3299.521,383.288c0,54.062-76.826,195.771-137.633,195.771s-137.635-141.708-137.635-195.771
		c0-49.08,76.828-76.469,137.635-76.469S3299.521,334.208,3299.521,383.288z"/>
	<g>
		<rect x="3373" y="1458" fill="#FF2975" width="169.12" height="26.462"/>
		<rect x="3373" y="1563.846" fill="#FF2975" width="169.12" height="26.461"/>
		<rect x="3373" y="1510.923" fill="#FF2975" width="169.12" height="26.462"/>
		<rect x="3373" y="1616.77" fill="#FF2975" width="169.12" height="26.461"/>
		<rect x="3134.846" y="1722.615" fill="#FF2975" width="407.274" height="26.462"/>
		<path fill="#FF2975" d="M3142.189,1775.539c9.168,15.758,26.038,26.461,45.58,26.461h354.351v-26.461H3142.189z"/>
		<rect x="3134.846" y="1669.692" fill="#FF2975" width="407.274" height="26.461"/>
		<path fill="#FF2975" d="M3558.23,1458h-12.423l14.105,0.027C3559.354,1458.009,3558.794,1458,3558.23,1458z"/>
		<rect x="3134.846" y="1696.154" fill="#EEEEEE" width="407.274" height="26.461"/>
		<polygon fill="#EEEEEE" points="3373,1643.231 3134.846,1643.231 3134.846,1669.692 3542.12,1669.692 3542.12,1643.231 		"/>
		<rect x="3373" y="1484.462" fill="#EEEEEE" width="169.12" height="26.461"/>
		<rect x="3373" y="1537.385" fill="#EEEEEE" width="169.12" height="26.461"/>
		<path fill="#EEEEEE" d="M3134.846,1510.923c0-3.082,0.397-6.046,0.9-8.983C3135.217,1504.863,3134.846,1507.841,3134.846,1510.923
			z"/>
		<path fill="#EEEEEE" d="M3134.846,1749.077c0,3.083,0.371,6.06,0.9,8.983c0.225,1.23,0.477,2.461,0.78,3.665
			c0.344,1.336,0.768,2.62,1.218,3.916c1.177,3.427,2.605,6.735,4.405,9.831l0.04,0.066h399.931v-26.461H3134.846z"/>
		<path fill="#EEEEEE" d="M3136.539,1498.274c0.331-1.35,0.795-2.633,1.218-3.93
			C3137.307,1495.642,3136.884,1496.938,3136.539,1498.274z"/>
		<rect x="3373" y="1590.308" fill="#EEEEEE" width="169.12" height="26.462"/>
		<path fill="#2992AB" d="M3373,1458h-185.23c-29.227,0-52.924,23.696-52.924,52.923v132.308H3373V1458z"/>
		<path fill="#FFFFFF" d="M3161.32,1494.067l8.178,5.941l-3.123,9.592l8.163-5.927l8.177,5.927l-3.122-9.592l8.177-5.941h-10.108
			l-3.123-9.605l-3.108,9.605H3161.32z M3187.782,1520.528l8.177,5.941l-3.122,9.592l8.163-5.927l8.177,5.927l-3.123-9.592
			l8.177-5.941h-10.108l-3.122-9.605l-3.109,9.605H3187.782z M3240.705,1520.528l8.177,5.941l-3.122,9.592l8.163-5.927l8.177,5.927
			l-3.123-9.592l8.178-5.941h-10.109l-3.122-9.605l-3.108,9.605H3240.705z M3293.629,1520.528l8.176,5.941l-3.122,9.592l8.163-5.927
			l8.177,5.927l-3.122-9.592l8.177-5.941h-10.108l-3.123-9.605l-3.109,9.605H3293.629z M3187.782,1573.452l8.177,5.941l-3.122,9.592
			l8.163-5.927l8.177,5.927l-3.123-9.592l8.177-5.941h-10.108l-3.122-9.605l-3.109,9.605H3187.782z M3240.705,1573.452l8.177,5.941
			l-3.122,9.592l8.163-5.927l8.177,5.927l-3.123-9.592l8.178-5.941h-10.109l-3.122-9.605l-3.108,9.605H3240.705z M3293.629,1573.452
			l8.176,5.941l-3.122,9.592l8.163-5.927l8.177,5.927l-3.122-9.592l8.177-5.941h-10.108l-3.123-9.605l-3.109,9.605H3293.629z
			 M3214.244,1494.067l8.176,5.941l-3.122,9.592l8.163-5.927l8.178,5.927l-3.123-9.592l8.177-5.941h-10.108l-3.123-9.605
			l-3.108,9.605H3214.244z M3267.167,1494.067l8.177,5.941l-3.123,9.592l8.164-5.927l8.176,5.927l-3.122-9.592l8.177-5.94h-10.108
			l-3.122-9.605l-3.109,9.605H3267.167z M3320.09,1494.067l8.177,5.941l-3.122,9.592l8.163-5.927l8.177,5.927l-3.123-9.592
			l8.177-5.94h-10.108l-3.122-9.605l-3.109,9.605H3320.09z M3161.32,1546.99l8.178,5.94l-3.123,9.593l8.163-5.928l8.177,5.928
			l-3.122-9.593l8.177-5.94h-10.108l-3.123-9.605l-3.108,9.605H3161.32z M3219.298,1562.523l8.163-5.928l8.178,5.928l-3.123-9.593
			l8.177-5.94h-10.108l-3.123-9.605l-3.108,9.605h-10.108l8.176,5.94L3219.298,1562.523z M3267.167,1546.99l8.177,5.94l-3.123,9.593
			l8.164-5.928l8.176,5.928l-3.122-9.593l8.177-5.94h-10.108l-3.122-9.605l-3.109,9.605H3267.167z M3320.09,1546.99l8.177,5.94
			l-3.122,9.593l8.163-5.928l8.177,5.928l-3.123-9.593l8.177-5.94h-10.108l-3.122-9.605l-3.109,9.605H3320.09z M3161.32,1599.913
			l8.178,5.941l-3.123,9.592l8.163-5.928l8.177,5.928l-3.122-9.592l8.177-5.941h-10.108l-3.123-9.605l-3.108,9.605H3161.32z
			 M3219.298,1615.446l8.163-5.928l8.178,5.928l-3.123-9.592l8.177-5.941h-10.108l-3.123-9.605l-3.108,9.605h-10.108l8.176,5.941
			L3219.298,1615.446z M3267.167,1599.913l8.177,5.941l-3.123,9.592l8.164-5.928l8.176,5.928l-3.122-9.592l8.177-5.941h-10.108
			l-3.122-9.605l-3.109,9.605H3267.167z M3320.09,1599.913l8.177,5.941l-3.122,9.592l8.163-5.928l8.177,5.928l-3.123-9.592
			l8.177-5.941h-10.108l-3.122-9.605l-3.109,9.605H3320.09z"/>
	</g>
</g>
<g>
	<path fill="#F9DB5D" d="M1130.607,2026.186c-0.214,0.299-0.491,0.604-0.741,0.854
		C1130.116,2026.789,1130.394,2026.484,1130.607,2026.186z"/>
	<path fill="#F9DB5D" d="M1092.619,2004.629v16.322c0,8.768-7.476,15.872-16.698,15.872c-9.222,0-16.696-7.104-16.696-15.872
		v-16.322c-1.898-0.105-3.763-0.228-5.566-0.371v1.74c1.704,0.131,3.459,0.245,5.244,0.345v16.65
		c0,8.943,7.625,16.191,17.032,16.191c9.408,0,17.033-7.248,17.033-16.191v-16.65c1.779-0.104,3.521-0.213,5.215-0.343v-1.742
		C1096.381,2004.401,1094.521,2004.518,1092.619,2004.629z"/>
	<path fill="#F9DB5D" d="M1155.628,1889.147c0.438-3.149,0.319-6.644,0.319-10.462c0-15.313-17.299-40.554-33.905-40.554
		c-7.961,0-15.704,7.097-21.534,15.53c-5.516-1.148-11.229-1.922-17.08-2.319l0.001,0.226h0.024v0.625v0.508
		c5.67,0.393,11.208,1.146,16.555,2.26c5.716-8.268,13.308-15.224,21.111-15.224c16.277,0,33.235,24.743,33.235,39.753
		c0,3.744,0.117,7.169-0.314,10.256c6.949,11.192,10.931,24.931,10.931,41.261c0,29.403-0.014,54.81-33.102,66.769
		c-0.096,0.035-0.193,0.071-0.291,0.106l0,0v23.068c0,0,0,0.001,0,0.002c-0.127,1.31-0.297,2.626-0.522,3.949
		c-0.105,0.391-0.226,0.775-0.362,1.155c-2.236,6.261-8.47,10.766-15.812,10.766c-7.631,0-14.071-4.871-16.062-11.522
		c1.179,7.85,8.282,13.884,16.86,13.884c7.49,0,13.851-4.595,16.131-10.983c-0.225,0.346-0.554,0.711-0.844,1.002
		c0.29-0.291,0.619-0.656,0.844-1.002c0.138-0.386,0.262-0.779,0.369-1.178c0.229-1.35,0.402-2.692,0.531-4.029
		c0-0.001,0-0.001,0-0.002v-23.531l0,0c0.102-0.036,0.199-0.072,0.299-0.109c33.755-12.199,33.767-38.117,33.767-68.112
		C1166.776,1914.581,1162.716,1900.566,1155.628,1889.147z M1083.539,1851.569h0.294c0.013,0,0.026,0,0.039,0L1083.539,1851.569z"/>
	<path fill="#F9DB5D" d="M1036.963,2036.823c-9.222,0-16.697-7.104-16.697-15.872v-23.068
		c-32.721-11.679-33.38-36.382-33.393-65.128c0-0.581,0-1.163,0-1.747c0-0.982,0.015-1.954,0.041-2.916
		c0.299-4.854,0.877-9.616,1.476-14.543c0.489-2.674,1.095-5.259,1.808-7.755c0.047-0.095,0.094-0.189,0.142-0.286
		c0.159-0.371,0.226-0.804,0.307-1.227c0.128-0.417,0.259-0.832,0.394-1.243c1.081-2.66,2.155-5.271,3.135-7.967
		c0.828-1.784,1.722-3.511,2.68-5.182c-0.134-3.124,0.272-6.597,0.272-10.397c0-15.01,16.885-40.839,33.163-40.839
		c8.108,0,15.165,7.33,20.251,15.864c4.905-0.942,9.997-1.572,15.243-1.892l0.013-1.358c-5.423,0.323-10.687,0.969-15.752,1.942
		c-5.189-8.706-12.388-16.183-20.659-16.183c-16.605,0-33.831,26.348-33.831,41.661c0,3.877-0.415,7.42-0.278,10.606
		c-0.976,1.704-1.889,3.467-2.733,5.286c-1,2.75-2.096,5.414-3.198,8.128c-0.137,0.419-0.271,0.842-0.402,1.268
		c-0.083,0.432-0.151,0.873-0.313,1.252c-0.049,0.098-0.098,0.195-0.145,0.292c-0.729,2.546-1.347,5.183-1.845,7.911
		c-0.611,5.027-1.201,9.886-1.506,14.836c-0.026,0.982-0.041,1.973-0.041,2.977c0,0.595,0,1.189,0,1.781
		c0.014,29.326,0.686,54.525,34.065,66.439v23.532c0,8.943,7.625,16.191,17.033,16.191c8.656,0,15.803-6.137,16.889-14.085
		C1051.164,2031.854,1044.675,2036.823,1036.963,2036.823z M988.39,1906.314c-0.599,4.928-1.177,9.69-1.476,14.542
		C987.051,1915.747,987.551,1910.898,988.39,1906.314z"/>
	<path fill="#FFCC4D" d="M986.914,1920.856c0.299-4.852,0.877-9.614,1.476-14.542
		C987.551,1910.898,987.051,1915.747,986.914,1920.856z"/>
	<path fill="#FFCC4D" d="M991.041,1895.803c1.081-2.661,2.155-5.271,3.135-7.967
		C992.996,1890.377,991.948,1893.032,991.041,1895.803z"/>
	<path fill="#FFCC4D" d="M990.647,1897.046c-0.154,0.5-0.304,1.005-0.449,1.513c0.047-0.094,0.094-0.189,0.142-0.285
		C990.499,1897.902,990.565,1897.469,990.647,1897.046z"/>
	<path fill="#C9FF22" d="M1114.881,2036.823c7.343,0,13.576-4.505,15.812-10.766c0.137-0.38,0.257-0.765,0.362-1.155
		c0.226-1.323,0.396-2.64,0.522-3.949c0-0.001,0-0.002,0-0.002v-23.068l0,0c0.098-0.035,0.195-0.071,0.291-0.106
		c33.088-11.959,33.102-37.365,33.102-66.769c0-16.33-3.981-30.068-10.931-41.261c0.432-3.087,0.314-6.513,0.314-10.256
		c0-15.01-16.958-39.753-33.235-39.753c-7.804,0-15.396,6.956-21.111,15.224c-5.347-1.113-10.885-1.867-16.555-2.26v0.117v0.625
		v0.625v0.624v0.625v0.625v0.625v0.291l0.021,4.807l0.004,0.892l-1.531-0.006c0.561,0.931,1.079,1.893,1.524,2.866
		c11.071,1.617,19.058,6.22,19.058,11.645c0,6.774-12.447,12.266-27.8,12.266c-15.354,0-27.8-5.492-27.8-12.266
		c0-5.466,8.105-10.096,19.303-11.681c0.471-0.98,1.022-1.949,1.613-2.885l-2.145-0.009l0.086-9.863
		c-5.246,0.319-10.338,0.95-15.243,1.892c-5.087-8.534-12.144-15.864-20.251-15.864c-16.278,0-33.163,25.829-33.163,40.839
		c0,3.8-0.406,7.273-0.272,10.397c-0.958,1.671-1.852,3.398-2.68,5.182c-0.98,2.696-2.054,5.307-3.135,7.967
		c-0.135,0.412-0.266,0.826-0.394,1.243c-0.082,0.423-0.148,0.855-0.307,1.227c-0.048,0.097-0.095,0.191-0.142,0.286
		c-0.713,2.496-1.319,5.081-1.808,7.755c-0.599,4.927-1.177,9.69-1.476,14.543c-0.026,0.962-0.041,1.934-0.041,2.916
		c0,0.584,0,1.166,0,1.747c0.013,28.746,0.672,53.449,33.393,65.128v23.068c0,8.768,7.475,15.872,16.697,15.872
		c7.712,0,14.201-4.97,16.119-11.724c0.376-1.323,0.578-2.713,0.578-4.148v-14.953v-1.74c1.803,0.144,3.667,0.266,5.566,0.371
		v16.322c0,8.768,7.474,15.872,16.696,15.872c9.222,0,16.698-7.104,16.698-15.872v-16.322c1.902-0.111,3.762-0.228,5.564-0.371V2006
		v14.951c0,1.509,0.222,2.969,0.636,4.35C1100.81,2031.952,1107.25,2036.823,1114.881,2036.823z M1129.866,2027.039
		c0.25-0.25,0.527-0.555,0.741-0.854C1130.394,2026.484,1130.116,2026.789,1129.866,2027.039z M1082.07,1913.288l5.98-3.029
		c0.094-0.336,0.193-0.671,0.297-1.005l-4.443-5.18c-0.482-0.564-0.606-1.353-0.325-2.037c0.285-0.686,0.931-1.158,1.672-1.211
		l7.266-0.556c0.071-0.114,0.146-0.227,0.218-0.339l-2.266-6.921c-0.23-0.707-0.045-1.481,0.479-2.008
		c0.378-0.375,0.879-0.575,1.395-0.575c0.205,0,0.412,0.032,0.613,0.098l6.211,2.033c0.367-0.31,0.74-0.611,1.118-0.901l0.486-6.351
		c0.056-0.741,0.524-1.387,1.212-1.671c0.242-0.1,0.498-0.149,0.752-0.149c0.462,0,0.918,0.161,1.283,0.474l4.142,3.553
		c0.874-0.27,1.765-0.484,2.669-0.641l2.403-4.746c0.337-0.662,1.016-1.079,1.761-1.079c0.741,0,1.423,0.417,1.756,1.079
		l2.555,5.038c0.735,0.178,1.46,0.395,2.175,0.647l4.489-3.852c0.363-0.313,0.823-0.474,1.281-0.474c0.258,0,0.513,0.05,0.757,0.149
		c0.684,0.284,1.151,0.93,1.211,1.671l0.563,7.394c0.057,0.048,0.111,0.096,0.167,0.144l7.078-2.318
		c0.2-0.067,0.411-0.098,0.613-0.098c0.516,0,1.02,0.2,1.393,0.575c0.527,0.527,0.713,1.303,0.481,2.008l-2.371,7.235l7.595,0.581
		c0.738,0.056,1.385,0.525,1.668,1.211c0.282,0.684,0.16,1.472-0.323,2.037l-4.958,5.775l6.788,3.438
		c0.664,0.337,1.081,1.018,1.081,1.759s-0.417,1.421-1.079,1.759l-5.781,2.928c-0.006,0.557-0.021,1.1-0.047,1.63l3.998,4.655
		c0.483,0.564,0.605,1.351,0.323,2.039c-0.283,0.684-0.93,1.152-1.673,1.212l-4.066,0.308c-0.571,1.682-1.3,3.14-2.167,4.407
		l1.015,3.095c0.231,0.709,0.046,1.484-0.481,2.008c-0.373,0.376-0.879,0.578-1.394,0.578c-0.201,0-0.412-0.032-0.612-0.096
		l-3.318-1.09c-1.272,0.767-2.662,1.375-4.15,1.857l-0.34,4.45c-0.06,0.743-0.525,1.391-1.211,1.673
		c-0.246,0.102-0.501,0.149-0.756,0.149c-0.459,0-0.918-0.164-1.282-0.473l-4.978-4.273c-0.392,0.03-0.787,0.057-1.187,0.078
		l-3.054,6.025c-0.336,0.663-1.018,1.079-1.759,1.079c-0.745,0-1.424-0.416-1.761-1.079l-3.079-6.081
		c-0.354-0.033-0.703-0.072-1.051-0.113l-5.084,4.364c-0.365,0.309-0.821,0.473-1.283,0.473c-0.254,0-0.51-0.048-0.752-0.149
		c-0.688-0.282-1.158-0.93-1.212-1.668l-0.397-5.193c-1.061-0.431-2.076-0.918-3.039-1.465l-4.379,1.436
		c-0.201,0.063-0.408,0.096-0.613,0.096c-0.516,0-1.017-0.202-1.395-0.578c-0.523-0.521-0.709-1.301-0.479-2.008l1.174-3.582
		c-1.016-1.187-1.891-2.5-2.606-3.941l-3.785-0.286c-0.738-0.06-1.387-0.526-1.672-1.212c-0.281-0.688-0.158-1.475,0.325-2.039
		l3.065-3.572c-0.125-1.039-0.19-2.121-0.19-3.248c0-0.003,0-0.005,0-0.009l-4.709-2.385c-0.663-0.335-1.079-1.018-1.079-1.759
		S1081.407,1913.624,1082.07,1913.288z M1056.571,1900.132l2.036-0.713l-1.355,1.803c2.973,4.946,4.843,10.639,5.167,16.241
		l3.204,1.212l-3.153,0.441c0,0.028,0,0.057,0,0.083c0,7.281-1.581,12.277-4.306,15.692l1.361,1.984l-2.17-1.051
		c-2.826,3.001-6.672,4.603-11.149,5.431l0.384,1.8l-1.728-1.577c-3.152,0.469-6.582,0.601-10.166,0.601
		c-1.785,0-3.529-0.101-5.217-0.3l-2.055,2.478l0.196-2.742c-3.864-0.645-7.39-1.85-10.388-3.636l-3.457,2.312l1.722-3.456
		c-4.311-3.134-7.255-7.681-8.119-13.724h-2.163l2.029-1.111c-0.085-0.871-0.13-1.77-0.13-2.701c0-5.075,1.298-10.296,3.574-15.033
		l-1.193-1.198l1.625,0.326c4.831-9.428,13.562-16.728,23.575-16.728C1043.558,1886.567,1051.478,1892.284,1056.571,1900.132z
		 M1083.625,1978.831c-3.869,0-7.128-2.496-8.341-5.957c-0.177,0.007-0.349,0.042-0.532,0.042c-0.184,0-0.355-0.035-0.533-0.042
		c-1.206,3.461-4.465,5.957-8.34,5.957c-4.904,0-8.873-3.976-8.873-8.873c0-4.068,2.751-7.464,6.489-8.506
		c1.485-3.626,5.933-6.282,11.257-6.282c5.323,0,9.766,2.656,11.257,6.282c3.732,1.047,6.487,4.438,6.487,8.506
		C1092.497,1974.855,1088.523,1978.831,1083.625,1978.831z"/>
	<path fill="#5F1A33" d="M1086.01,1961.452c-1.491-3.626-5.935-6.282-11.257-6.282c-5.324,0-9.772,2.656-11.257,6.282
		c-3.738,1.042-6.489,4.438-6.489,8.506c0,4.897,3.969,8.873,8.873,8.873c3.875,0,7.134-2.496,8.34-5.957
		c0.178,0.007,0.35,0.042,0.533,0.042c0.183,0,0.355-0.035,0.532-0.042c1.213,3.461,4.472,5.957,8.341,5.957
		c4.898,0,8.872-3.976,8.872-8.873C1092.497,1965.89,1089.742,1962.499,1086.01,1961.452z"/>
	<path fill="#69E3F7" d="M1099.166,1892.559l-6.211-2.033c-0.201-0.065-0.408-0.098-0.613-0.098c-0.516,0-1.017,0.2-1.395,0.575
		c-0.523,0.527-0.709,1.301-0.479,2.008l2.266,6.921C1094.55,1897.144,1096.721,1894.632,1099.166,1892.559z"/>
	<path fill="#69E3F7" d="M1082.07,1916.806l4.709,2.385c0.001-2.97,0.446-5.988,1.271-8.932l-5.98,3.029
		c-0.663,0.336-1.079,1.018-1.079,1.759S1081.407,1916.471,1082.07,1916.806z"/>
	<path fill="#69E3F7" d="M1119.303,1887.164l-2.555-5.038c-0.333-0.662-1.015-1.079-1.756-1.079c-0.745,0-1.424,0.417-1.761,1.079
		l-2.403,4.746c1.156-0.2,2.335-0.305,3.532-0.305C1116.047,1886.567,1117.697,1886.775,1119.303,1887.164z"/>
	<path fill="#69E3F7" d="M1085.251,1900.826c-0.741,0.054-1.387,0.525-1.672,1.211c-0.281,0.684-0.157,1.472,0.325,2.037l4.443,5.18
		c0.982-3.153,2.398-6.2,4.169-8.983L1085.251,1900.826z"/>
	<path fill="#69E3F7" d="M1083.904,1926.02c-0.483,0.564-0.606,1.351-0.325,2.039c0.285,0.686,0.934,1.152,1.672,1.212l3.785,0.286
		c-1.043-2.096-1.75-4.462-2.066-7.109L1083.904,1926.02z"/>
	<path fill="#69E3F7" d="M1142.134,1919.2c0,0.18-0.001,0.359-0.003,0.534l5.781-2.928c0.662-0.338,1.079-1.018,1.079-1.759
		s-0.417-1.422-1.081-1.759l-6.788-3.438l4.958-5.775c0.483-0.564,0.605-1.353,0.323-2.037c-0.283-0.686-0.93-1.156-1.668-1.211
		l-7.595-0.581l2.371-7.235c0.231-0.705,0.046-1.481-0.481-2.008c-0.373-0.375-0.877-0.575-1.393-0.575
		c-0.202,0-0.413,0.031-0.613,0.098l-7.078,2.318C1137.292,1899.205,1142.134,1909.472,1142.134,1919.2z"/>
	<path fill="#69E3F7" d="M1110.152,1941.887l3.079,6.081c0.337,0.663,1.016,1.079,1.761,1.079c0.741,0,1.423-0.416,1.759-1.079
		l3.054-6.025c-1.762,0.101-3.582,0.137-5.444,0.137C1112.93,1942.079,1111.524,1942.016,1110.152,1941.887z"/>
	<path fill="#69E3F7" d="M1091.643,1933.498l-1.174,3.582c-0.23,0.707-0.045,1.486,0.479,2.008c0.378,0.376,0.879,0.578,1.395,0.578
		c0.205,0,0.412-0.032,0.613-0.096l4.379-1.436C1095.145,1936.892,1093.225,1935.349,1091.643,1933.498z"/>
	<path fill="#69E3F7" d="M1104.018,1883.96c-0.365-0.313-0.821-0.474-1.283-0.474c-0.254,0-0.51,0.05-0.752,0.149
		c-0.688,0.284-1.156,0.93-1.212,1.671l-0.486,6.351c2.411-1.85,5.059-3.279,7.875-4.145L1104.018,1883.96z"/>
	<path fill="#69E3F7" d="M1129.216,1885.307c-0.06-0.741-0.527-1.387-1.211-1.671c-0.244-0.1-0.499-0.149-0.757-0.149
		c-0.458,0-0.918,0.161-1.281,0.474l-4.489,3.852c2.994,1.058,5.791,2.745,8.302,4.889L1129.216,1885.307z"/>
	<path fill="#69E3F7" d="M1125.969,1946.138c0.364,0.309,0.823,0.473,1.282,0.473c0.255,0,0.51-0.048,0.756-0.149
		c0.686-0.282,1.151-0.93,1.211-1.673l0.34-4.45c-2.59,0.84-5.478,1.295-8.566,1.526L1125.969,1946.138z"/>
	<path fill="#69E3F7" d="M1100.771,1944.793c0.054,0.738,0.524,1.386,1.212,1.668c0.242,0.102,0.498,0.149,0.752,0.149
		c0.462,0,0.918-0.164,1.283-0.473l5.084-4.364c-3.134-0.374-6.074-1.094-8.729-2.174L1100.771,1944.793z"/>
	<path fill="#69E3F7" d="M1144.732,1929.271c0.743-0.06,1.39-0.528,1.673-1.212c0.282-0.688,0.16-1.475-0.323-2.039l-3.998-4.655
		c-0.149,3.2-0.637,5.915-1.418,8.214L1144.732,1929.271z"/>
	<path fill="#69E3F7" d="M1133.708,1938.48l3.318,1.09c0.2,0.063,0.411,0.096,0.612,0.096c0.515,0,1.021-0.202,1.394-0.578
		c0.527-0.523,0.713-1.299,0.481-2.008l-1.015-3.095C1137.197,1935.889,1135.579,1937.354,1133.708,1938.48z"/>
	<path fill="#FFA655" d="M1086.779,1919.2c0,1.126,0.065,2.208,0.19,3.248c0.316,2.647,1.023,5.014,2.066,7.109
		c0.716,1.441,1.591,2.755,2.606,3.941c1.582,1.851,3.502,3.394,5.691,4.637c0.963,0.547,1.979,1.034,3.039,1.465
		c2.654,1.08,5.595,1.8,8.729,2.174c0.348,0.041,0.697,0.08,1.051,0.113c1.372,0.129,2.777,0.192,4.208,0.192
		c1.862,0,3.683-0.036,5.444-0.137c0.399-0.021,0.795-0.048,1.187-0.078c3.089-0.231,5.977-0.687,8.566-1.526
		c1.488-0.482,2.878-1.091,4.15-1.857c1.871-1.127,3.489-2.592,4.791-4.495c0.867-1.268,1.596-2.726,2.167-4.407
		c0.781-2.299,1.269-5.014,1.418-8.214c0.025-0.53,0.041-1.073,0.047-1.63c0.002-0.175,0.003-0.354,0.003-0.534
		c0-9.728-4.842-19.995-12.188-26.356c-0.056-0.048-0.11-0.096-0.167-0.144c-2.511-2.144-5.308-3.831-8.302-4.889
		c-0.715-0.253-1.439-0.47-2.175-0.647c-1.605-0.389-3.256-0.597-4.942-0.597c-1.197,0-2.376,0.104-3.532,0.305
		c-0.904,0.156-1.795,0.371-2.669,0.641c-2.816,0.866-5.464,2.295-7.875,4.145c-0.378,0.29-0.751,0.591-1.118,0.901
		c-2.445,2.073-4.616,4.585-6.432,7.373c-0.072,0.112-0.146,0.225-0.218,0.339c-1.771,2.783-3.187,5.831-4.169,8.983
		c-0.104,0.334-0.203,0.669-0.297,1.005c-0.825,2.944-1.271,5.962-1.271,8.932C1086.779,1919.194,1086.779,1919.196,1086.779,1919.2
		z M1114.288,1891.532c12.502,0,22.715,13.912,22.715,26.689c0,2.655-0.257,4.937-0.74,6.901l0.224,0.007
		c-2.501,10.572-11.439,11.984-22.018,11.984c-7.281,0-13.732-2.014-17.852-6.22c-3.062-3.029-4.887-7.229-4.887-12.672
		C1091.73,1905.444,1101.786,1891.532,1114.288,1891.532z"/>
	<path fill="#FFA655" d="M1011.121,1903.295l4.581,0.919c3.372-5.737,8.493-10.308,14.445-11.897l0.027-0.485l0.279,0.406
		c1.379-0.343,2.803-0.525,4.258-0.525c0.588,0,1.172,0.03,1.75,0.088l0.142-0.285l0.062,0.308
		c6.125,0.689,11.597,4.564,15.487,9.857l4.42-1.548c-5.093-7.848-13.013-13.564-21.875-13.564
		C1024.683,1886.567,1015.952,1893.867,1011.121,1903.295z"/>
	<path fill="#FFA655" d="M1034.711,1938.562c-0.845,0-1.678-0.026-2.5-0.079l-2.733,3.296c1.688,0.199,3.432,0.3,5.217,0.3
		c3.584,0,7.014-0.132,10.166-0.601l-3.495-3.188C1039.255,1938.497,1037.021,1938.562,1034.711,1938.562z"/>
	<path fill="#FFA655" d="M1055.524,1931.044l2.639,3.848c2.725-3.415,4.306-8.411,4.306-15.692c0-0.027,0-0.055,0-0.083l-4.32,0.604
		C1058.093,1924.667,1057.15,1928.332,1055.524,1931.044z"/>
	<path fill="#FFA655" d="M1011.433,1919.253c0-3.95,0.931-8.005,2.583-11.748l-3.327-3.339c-2.276,4.737-3.574,9.958-3.574,15.033
		c0,0.931,0.045,1.83,0.13,2.701l4.192-2.294C1011.435,1919.489,1011.433,1919.372,1011.433,1919.253z"/>
	<path fill="#FFA655" d="M1011.74,1923.012h-4.362c0.864,6.043,3.808,10.59,8.119,13.724l1.812-3.634
		C1014.445,1930.62,1012.465,1927.271,1011.74,1923.012z"/>
	<path fill="#FFA655" d="M1057.912,1915.758l4.506,1.705c-0.325-5.603-2.194-11.295-5.167-16.241l-2.916,3.879
		C1056.166,1908.417,1057.416,1912.08,1057.912,1915.758z"/>
	<path fill="#FFA655" d="M1045.438,1937.662l0.767,3.594c4.478-0.828,8.323-2.43,11.149-5.431l-4.086-1.976
		C1051.174,1935.809,1048.501,1936.979,1045.438,1937.662z"/>
	<path fill="#FFA655" d="M1020.805,1935.489l-3.573,2.39c2.998,1.786,6.524,2.991,10.388,3.636l0.256-3.585
		C1025.298,1937.425,1022.913,1936.614,1020.805,1935.489z"/>
	<path fill="#5F1A33" d="M1014.756,1925.79l2.786-2.778h-5.802c0.725,4.26,2.705,7.608,5.568,10.09l4.106-8.243L1014.756,1925.79z"
		/>
	<path fill="#5F1A33" d="M1032.211,1938.483c0.821,0.053,1.655,0.079,2.5,0.079c2.31,0,4.544-0.065,6.656-0.272l-5.122-4.673
		L1032.211,1938.483z"/>
	<path fill="#5F1A33" d="M1053.135,1920.422l3.441,2.59h-6.562l5.51,8.032c1.626-2.712,2.569-6.377,2.625-11.323L1053.135,1920.422z
		"/>
	<path fill="#5F1A33" d="M1027.875,1937.93l0.539-7.531l-7.609,5.091C1022.913,1936.614,1025.298,1937.425,1027.875,1937.93z"/>
	<path fill="#5F1A33" d="M1053.269,1933.85l-9.641-4.666l1.811,8.479C1048.501,1936.979,1051.174,1935.809,1053.269,1933.85z"/>
	<path fill="#5F1A33" d="M1049.707,1911.256l-0.817,1.087l9.022,3.415c-0.496-3.678-1.747-7.34-3.577-10.657l-4.495,5.979
		l0.121-0.001L1049.707,1911.256z"/>
	<path fill="#5F1A33" d="M1036.461,1891.8c-0.578-0.058-1.162-0.088-1.75-0.088c-1.455,0-2.878,0.183-4.258,0.525l3.353,4.89
		L1036.461,1891.8z"/>
	<path fill="#5F1A33" d="M1043.485,1894.305l1.389,9.925l7.277-2.55c-3.89-5.293-9.362-9.168-15.487-9.857l1.82,9.135
		L1043.485,1894.305z"/>
	<path fill="#5F1A33" d="M1022.947,1905.633l0.133,0.062l0.425,0.085l0.256,0.027v-9.997l5.843,5.863l0.542-9.356
		c-5.952,1.59-11.073,6.16-14.445,11.897l7.27,1.458L1022.947,1905.633z"/>
	<path fill="#5F1A33" d="M1014.016,1907.505c-1.652,3.742-2.583,7.797-2.583,11.748c0,0.119,0.002,0.236,0.004,0.353l9.472-5.183
		L1014.016,1907.505z"/>
	<path fill="#4B3362" d="M1096.617,1930.894c-1.852-1.89-3.23-4.223-4.003-7.015l15.265,0.436c0.616-1.738,1.445-3.979,1.722-6.548
		h-6.664c-1.867,0-3.38-1.512-3.38-3.379c0-2.135,0.438-4.161,1.223-6c0.959-2.244,2.439-4.205,4.289-5.733
		c2.632-2.175,6.012-3.478,9.697-3.478c4.089,0,7.794,1.609,10.523,4.229h0.004c1.524,1.461,2.744,3.231,3.556,5.224l0.001,0.002
		c0.721,1.772,1.127,3.712,1.127,5.755c0,1.867-1.514,3.379-3.381,3.379h-6.665c0.29,2.69,1.186,5.019,1.808,6.787
		c0.27,0.057,0.533,0.115,0.789,0.178l13.735,0.392c0.483-1.964,0.74-4.246,0.74-6.901c0-12.777-10.213-26.689-22.715-26.689
		s-22.558,13.912-22.558,26.689C1091.73,1923.664,1093.556,1927.864,1096.617,1930.894z"/>
	<path fill="#FFA655" d="M1114.288,1936.933c-7.176,0-13.546-1.957-17.671-6.039c4.119,4.206,10.57,6.22,17.852,6.22
		c10.578,0,19.517-1.412,22.018-11.984l-0.224-0.007C1133.705,1935.535,1124.808,1936.933,1114.288,1936.933z"/>
	<path opacity="0.74" fill="#F6F5C9" d="M1114.288,1936.933c-7.176,0-13.546-1.957-17.671-6.039c4.119,4.206,10.57,6.22,17.852,6.22
		c10.578,0,19.517-1.412,22.018-11.984l-0.224-0.007C1133.705,1935.535,1124.808,1936.933,1114.288,1936.933z"/>
	<path fill="#4B3362" d="M1122.527,1924.73c3.135,0.763,5.159,1.97,5.159,3.326c0,2.309-5.849,4.178-13.062,4.178
		s-13.062-1.869-13.062-4.178c0-1.51,2.504-2.832,6.255-3.566c0.021-0.059,0.041-0.117,0.062-0.176l-15.265-0.436
		c0.772,2.792,2.151,5.125,4.003,7.015c4.125,4.082,10.495,6.039,17.671,6.039c10.52,0,19.417-1.397,21.975-11.811L1122.527,1924.73
		z"/>
	<path opacity="0.74" fill="#F6F5C9" d="M1122.527,1924.73c3.135,0.763,5.159,1.97,5.159,3.326c0,2.309-5.849,4.178-13.062,4.178
		s-13.062-1.869-13.062-4.178c0-1.51,2.504-2.832,6.255-3.566c0.021-0.059,0.041-0.117,0.062-0.176l-15.265-0.436
		c0.772,2.792,2.151,5.125,4.003,7.015c4.125,4.082,10.495,6.039,17.671,6.039c10.52,0,19.417-1.397,21.975-11.811L1122.527,1924.73
		z"/>
	<path fill="#4B3362" d="M1122.527,1924.73c-0.256-0.062-0.52-0.121-0.789-0.178c0.017,0.053,0.036,0.105,0.054,0.157
		L1122.527,1924.73z"/>
	<path opacity="0.88" fill="#FFFEEE" d="M1122.527,1924.73c-0.256-0.062-0.52-0.121-0.789-0.178
		c0.017,0.053,0.036,0.105,0.054,0.157L1122.527,1924.73z"/>
	<path fill="#4B3362" d="M1122.371,1927.036c0,1.866-1.513,2.535-3.38,2.535h-8.451c-1.865,0-3.379-0.669-3.379-2.535
		c0-0.62,0.281-1.484,0.655-2.546c-3.751,0.734-6.255,2.057-6.255,3.566c0,2.309,5.849,4.178,13.062,4.178
		s13.062-1.869,13.062-4.178c0-1.356-2.024-2.563-5.159-3.326l-0.735-0.021C1122.128,1925.671,1122.371,1926.459,1122.371,1927.036z
		"/>
	<path opacity="0.74" fill="#F6F5C9" d="M1122.371,1927.036c0,1.866-1.513,2.535-3.38,2.535h-8.451
		c-1.865,0-3.379-0.669-3.379-2.535c0-0.62,0.281-1.484,0.655-2.546c-3.751,0.734-6.255,2.057-6.255,3.566
		c0,2.309,5.849,4.178,13.062,4.178s13.062-1.869,13.062-4.178c0-1.356-2.024-2.563-5.159-3.326l-0.735-0.021
		C1122.128,1925.671,1122.371,1926.459,1122.371,1927.036z"/>
	<path opacity="0.88" fill="#FFFEEE" d="M1122.371,1927.036c0,1.866-1.513,2.535-3.38,2.535h-8.451
		c-1.865,0-3.379-0.669-3.379-2.535c0-0.62,0.281-1.484,0.655-2.546c-3.751,0.734-6.255,2.057-6.255,3.566
		c0,2.309,5.849,4.178,13.062,4.178s13.062-1.869,13.062-4.178c0-1.356-2.024-2.563-5.159-3.326l-0.735-0.021
		C1122.128,1925.671,1122.371,1926.459,1122.371,1927.036z"/>
	<path fill="#F7F5C4" d="M1107.161,1927.036c0,1.866,1.514,2.535,3.379,2.535h8.451c1.867,0,3.38-0.669,3.38-2.535
		c0-0.577-0.243-1.365-0.579-2.326c-0.018-0.052-0.037-0.104-0.054-0.157c-0.622-1.768-1.518-4.096-1.808-6.787h6.665
		c1.867,0,3.381-1.512,3.381-3.379c0-2.043-0.406-3.982-1.127-5.755l-0.001-0.002c-0.812-1.992-2.031-3.763-3.556-5.224h-0.004
		c-2.729-2.621-6.435-4.229-10.523-4.229c-3.686,0-7.065,1.302-9.697,3.478c-1.85,1.528-3.33,3.489-4.289,5.733
		c-0.785,1.838-1.223,3.864-1.223,6c0,1.867,1.513,3.379,3.38,3.379h6.664c-0.276,2.57-1.105,4.81-1.722,6.548
		c-0.021,0.059-0.042,0.117-0.062,0.176C1107.442,1925.552,1107.161,1926.416,1107.161,1927.036z M1105.259,1917.633
		c-1.546,0-2.8-1.253-2.8-2.801c0-1.768,0.363-3.446,1.014-4.969c0.795-1.859,2.02-3.483,3.553-4.75
		c2.182-1.801,4.979-2.88,8.033-2.88c3.387,0,6.454,1.333,8.716,3.504h0.003c1.263,1.21,2.272,2.677,2.945,4.327l0.001,0.001
		c0.598,1.469,0.935,3.075,0.935,4.767c0,1.547-1.254,2.801-2.8,2.801h-5.736c0.492,3.901,1.948,6.963,1.948,8.514
		c0,1.867-1.259,2.535-2.811,2.535h-7.022c-1.553,0-2.811-0.668-2.811-2.535c0-1.551,1.455-4.612,1.946-8.514H1105.259z"/>
	<path fill="#FF901F" d="M1107.871,1916.009c0-0.995,0.203-1.939,0.569-2.795c0.447-1.045,1.137-1.96,1.999-2.671
		c1.227-1.014,2.802-1.621,4.52-1.621c1.905,0,3.632,0.75,4.904,1.971h0.001c0.71,0.681,1.28,1.506,1.657,2.434v0.001
		c0.337,0.827,0.526,1.73,0.526,2.682c0,0.73-0.496,1.341-1.169,1.521h1.933c1.195,0,2.164-0.97,2.164-2.165
		c0-1.308-0.259-2.55-0.722-3.686v0c-0.521-1.276-1.302-2.41-2.277-3.345h-0.001c-1.749-1.678-4.121-2.708-6.738-2.708
		c-2.361,0-4.524,0.834-6.211,2.227c-1.184,0.979-2.132,2.234-2.746,3.671c-0.503,1.177-0.783,2.475-0.783,3.842
		c0,1.195,0.969,2.165,2.164,2.165h1.378C1108.367,1917.35,1107.871,1916.739,1107.871,1916.009z"/>
	<path fill="#FF2975" d="M1110.534,1915.162c0-5.07,8.428-5.07,8.428,0c0,0.838,0.059,1.647,0.155,2.422h1.355
		c0.141,0,0.276-0.02,0.406-0.054c0.673-0.18,1.169-0.791,1.169-1.521c0-0.951-0.189-1.854-0.526-2.682v-0.001
		c-0.377-0.928-0.947-1.753-1.657-2.434h-0.001c-1.272-1.221-2.999-1.971-4.904-1.971c-1.718,0-3.293,0.607-4.52,1.621
		c-0.862,0.711-1.552,1.626-1.999,2.671c-0.366,0.856-0.569,1.801-0.569,2.795c0,0.73,0.496,1.341,1.168,1.521
		c0.131,0.034,0.265,0.054,0.407,0.054h0.933C1110.476,1916.809,1110.534,1916,1110.534,1915.162z"/>
	<path fill="#FFD319" d="M1108.427,1926.146c0,1.867,1.258,2.535,2.811,2.535h7.022c1.552,0,2.811-0.668,2.811-2.535
		c0-1.551-1.456-4.612-1.948-8.514h5.736c1.546,0,2.8-1.253,2.8-2.801c0-1.691-0.337-3.298-0.935-4.767l-0.001-0.001
		c-0.673-1.65-1.683-3.117-2.945-4.327h-0.003c-2.262-2.171-5.329-3.504-8.716-3.504c-3.054,0-5.852,1.079-8.033,2.88
		c-1.533,1.267-2.758,2.891-3.553,4.75c-0.65,1.523-1.014,3.201-1.014,4.969c0,1.547,1.254,2.801,2.8,2.801h5.114
		C1109.882,1921.534,1108.427,1924.596,1108.427,1926.146z M1109.446,1917.584c-0.143,0-0.276-0.02-0.407-0.054h-1.378
		c-1.195,0-2.164-0.97-2.164-2.165c0-1.367,0.28-2.665,0.783-3.842c0.614-1.437,1.562-2.692,2.746-3.671
		c1.687-1.393,3.85-2.227,6.211-2.227c2.617,0,4.989,1.031,6.738,2.708h0.001c0.976,0.936,1.757,2.069,2.277,3.345v0
		c0.463,1.136,0.722,2.378,0.722,3.686c0,1.195-0.969,2.165-2.164,2.165h-1.933c-0.13,0.034-0.266,0.054-0.406,0.054h-1.355
		c-0.097-0.775-0.155-1.584-0.155-2.422c0-5.07-8.428-5.07-8.428,0c0,0.838-0.059,1.647-0.155,2.422H1109.446z M1111.51,1915.916
		c0-4.334,6.464-4.334,6.464,0c0,4.336,1.616,7.796,1.616,9.393c0,1.596-0.966,2.168-2.155,2.168h-5.385
		c-1.189,0-2.155-0.572-2.155-2.168C1109.895,1923.712,1111.51,1920.252,1111.51,1915.916z"/>
	<path fill="#FF901F" d="M1109.895,1925.309c0,1.596,0.966,2.168,2.155,2.168h5.385c1.189,0,2.155-0.572,2.155-2.168
		c0-1.597-1.616-5.057-1.616-9.393c0-4.334-6.464-4.334-6.464,0C1111.51,1920.252,1109.895,1923.712,1109.895,1925.309z
		 M1112.639,1916.826c0-3.534,4.245-3.534,4.245,0c0,3.533,1.061,6.356,1.061,7.656c0,1.303-0.634,1.769-1.415,1.769h-3.537
		c-0.78,0-1.414-0.466-1.414-1.769C1111.578,1923.182,1112.639,1920.359,1112.639,1916.826z"/>
	<path fill="#FF2975" d="M1111.578,1924.481c0,1.303,0.634,1.769,1.414,1.769h3.537c0.781,0,1.415-0.466,1.415-1.769
		c0-1.3-1.061-4.123-1.061-7.656c0-3.534-4.245-3.534-4.245,0C1112.639,1920.359,1111.578,1923.182,1111.578,1924.481z"/>
	<path fill="#333D07" d="M1095.987,1871.013c3.009,1.673,4.906,3.729,4.906,6.049c0,0.437-0.082,0.862-0.212,1.281
		c-1.342-1.021-2.923-1.953-4.694-2.787c-3.15-1.482-6.918-2.639-11.091-3.363c-0.796,7.455-10.076,16.764-10.076,16.764
		s-9.387-9.275-10.124-16.787c-4.227,0.723-8.042,1.889-11.229,3.387c-1.771,0.834-3.352,1.766-4.695,2.787
		c-0.129-0.418-0.21-0.844-0.21-1.281c0-2.319,1.896-4.376,4.905-6.049c3.094-1.721,7.368-3.034,11.986-3.804
		c0.223-0.61,0.485-1.221,0.777-1.828c-11.198,1.585-19.303,6.215-19.303,11.681c0,6.774,12.446,12.266,27.8,12.266
		c15.353,0,27.8-5.492,27.8-12.266c0-5.425-7.986-10.028-19.058-11.645c0.277,0.606,0.527,1.217,0.737,1.826
		C1088.746,1868.017,1092.939,1869.317,1095.987,1871.013z"/>
	<path fill="#98AF14" d="M1048.563,1877.062c0,0.437,0.082,0.862,0.21,1.281c1.343-1.021,2.924-1.953,4.695-2.787v-4.543
		C1050.459,1872.686,1048.563,1874.742,1048.563,1877.062z"/>
	<path fill="#98AF14" d="M1100.682,1878.342c0.13-0.418,0.212-0.844,0.212-1.281c0-2.319-1.897-4.376-4.906-6.049v4.543
		C1097.759,1876.39,1099.34,1877.321,1100.682,1878.342z"/>
	<path fill="#D2DD68" d="M1095.987,1875.556v-4.543c-3.048-1.696-7.241-2.996-11.779-3.771c0.462,1.341,0.742,2.676,0.744,3.946
		c0,0.33-0.02,0.665-0.056,1.004C1089.069,1872.917,1092.837,1874.073,1095.987,1875.556z"/>
	<path fill="#D2DD68" d="M1053.468,1871.013v4.543c3.186-1.498,7.002-2.664,11.229-3.387c-0.029-0.302-0.046-0.602-0.047-0.897
		c-0.001-1.308,0.302-2.683,0.805-4.063C1060.836,1867.979,1056.562,1869.292,1053.468,1871.013z"/>
	<path fill="#FFAC33" d="M1079.202,1863.011c0.234,0.181,0.46,0.377,0.676,0.591c2.8,2.791,2.807,7.325,0.016,10.125
		c-2.792,2.801-7.325,2.808-10.125,0.016c-2.8-2.791-2.807-7.325-0.016-10.125c0.437-0.438,0.917-0.808,1.426-1.109l-3.334-0.013
		c-0.591,0.936-1.142,1.905-1.613,2.885c-0.292,0.606-0.554,1.218-0.777,1.828c-0.503,1.38-0.806,2.755-0.805,4.063
		c0.001,0.296,0.018,0.596,0.047,0.897c0.737,7.512,10.124,16.787,10.124,16.787s9.28-9.309,10.076-16.764
		c0.036-0.339,0.056-0.674,0.056-1.004c-0.002-1.271-0.282-2.605-0.744-3.946c-0.21-0.609-0.46-1.22-0.737-1.826
		c-0.445-0.973-0.964-1.936-1.524-2.866l-2.974-0.011C1079.058,1862.692,1079.136,1862.851,1079.202,1863.011z"/>
	<path fill="#FFCC4D" d="M1069.768,1873.743c2.8,2.792,7.333,2.785,10.125-0.016c2.791-2.8,2.784-7.334-0.016-10.125
		c-0.215-0.214-0.441-0.41-0.676-0.591c0.671,1.611,0.352,3.535-0.956,4.847c-1.733,1.738-4.547,1.742-6.286,0.01
		c-1.456-1.451-1.694-3.659-0.718-5.359h-0.065c-0.509,0.302-0.989,0.671-1.426,1.109
		C1066.961,1866.418,1066.968,1870.952,1069.768,1873.743z"/>
	<path fill="#C9FF22" d="M1046.589,1943.056l-0.384-1.8c-0.442,0.082-0.889,0.156-1.343,0.223L1046.589,1943.056z"/>
	<path opacity="0.36" fill="#FF2975" d="M1046.589,1943.056l-0.384-1.8c-0.442,0.082-0.889,0.156-1.343,0.223L1046.589,1943.056z"/>
	<path fill="#C9FF22" d="M1009.495,1902.969l1.193,1.198c0.14-0.292,0.284-0.583,0.432-0.872L1009.495,1902.969z"/>
	<path opacity="0.36" fill="#FF2975" d="M1009.495,1902.969l1.193,1.198c0.14-0.292,0.284-0.583,0.432-0.872L1009.495,1902.969z"/>
	<path fill="#C9FF22" d="M1005.215,1923.012h2.163c-0.052-0.365-0.097-0.735-0.134-1.111L1005.215,1923.012z"/>
	<path opacity="0.36" fill="#FF2975" d="M1005.215,1923.012h2.163c-0.052-0.365-0.097-0.735-0.134-1.111L1005.215,1923.012z"/>
	<path fill="#C9FF22" d="M1013.775,1940.191l3.457-2.312c-0.6-0.357-1.179-0.738-1.735-1.144L1013.775,1940.191z"/>
	<path opacity="0.36" fill="#FF2975" d="M1013.775,1940.191l3.457-2.312c-0.6-0.357-1.179-0.738-1.735-1.144L1013.775,1940.191z"/>
	<path fill="#FFA655" d="M1011.437,1919.606l-4.192,2.294c0.037,0.376,0.082,0.746,0.134,1.111h4.362
		C1011.557,1921.936,1011.454,1920.8,1011.437,1919.606z"/>
	<path opacity="0.36" fill="#FF2975" d="M1011.437,1919.606l-4.192,2.294c0.037,0.376,0.082,0.746,0.134,1.111h4.362
		C1011.557,1921.936,1011.454,1920.8,1011.437,1919.606z"/>
	<path fill="#FFA655" d="M1014.368,1906.732l-2.588-2.21l3.529,0.379c0.127-0.231,0.258-0.461,0.392-0.688l-4.581-0.919
		c-0.148,0.288-0.292,0.579-0.432,0.872l3.327,3.339C1014.13,1907.246,1014.248,1906.989,1014.368,1906.732z"/>
	<path opacity="0.36" fill="#FF2975" d="M1014.368,1906.732l-2.588-2.21l3.529,0.379c0.127-0.231,0.258-0.461,0.392-0.688
		l-4.581-0.919c-0.148,0.288-0.292,0.579-0.432,0.872l3.327,3.339C1014.13,1907.246,1014.248,1906.989,1014.368,1906.732z"/>
	<path fill="#FFA655" d="M1017.309,1933.102l-1.812,3.634c0.556,0.405,1.135,0.786,1.735,1.144l3.573-2.39
		C1019.532,1934.809,1018.361,1934.014,1017.309,1933.102z"/>
	<path opacity="0.36" fill="#FF2975" d="M1017.309,1933.102l-1.812,3.634c0.556,0.405,1.135,0.786,1.735,1.144l3.573-2.39
		C1019.532,1934.809,1018.361,1934.014,1017.309,1933.102z"/>
	<path fill="#FFA655" d="M1036.603,1891.515l-0.142,0.285c0.068,0.007,0.135,0.015,0.203,0.022L1036.603,1891.515z"/>
	<path opacity="0.36" fill="#FF2975" d="M1036.603,1891.515l-0.142,0.285c0.068,0.007,0.135,0.015,0.203,0.022L1036.603,1891.515z"
		/>
	<path fill="#FFA655" d="M1041.367,1938.29l3.495,3.188c0.454-0.066,0.901-0.141,1.343-0.223l-0.767-3.594
		C1044.146,1937.95,1042.784,1938.152,1041.367,1938.29z"/>
	<path opacity="0.36" fill="#FF2975" d="M1041.367,1938.29l3.495,3.188c0.454-0.066,0.901-0.141,1.343-0.223l-0.767-3.594
		C1044.146,1937.95,1042.784,1938.152,1041.367,1938.29z"/>
	<path fill="#5F1A33" d="M1023.004,1905.726l-0.032-0.054l-7.27-1.458c-0.134,0.227-0.265,0.457-0.392,0.688L1023.004,1905.726z"/>
	<path opacity="0.36" fill="#FF2975" d="M1023.004,1905.726l-0.032-0.054l-7.27-1.458c-0.134,0.227-0.265,0.457-0.392,0.688
		L1023.004,1905.726z"/>
	<path fill="#5F1A33" d="M1023.129,1917.438l-4.411-1.053l5.267-1.438l-9.616-8.214c-0.121,0.257-0.238,0.514-0.353,0.773
		l6.893,6.917l-9.472,5.183c0.018,1.194,0.12,2.33,0.304,3.406h5.802L1023.129,1917.438z"/>
	<path opacity="0.36" fill="#FF2975" d="M1023.129,1917.438l-4.411-1.053l5.267-1.438l-9.616-8.214
		c-0.121,0.257-0.238,0.514-0.353,0.773l6.893,6.917l-9.472,5.183c0.018,1.194,0.12,2.33,0.304,3.406h5.802L1023.129,1917.438z"/>
	<path fill="#5F1A33" d="M1036.861,1932.874l-0.616,0.743l5.122,4.673c1.417-0.138,2.779-0.34,4.072-0.628l-1.811-8.479
		l-2.646-1.279l-2.612,3.15l-0.093,3.902L1036.861,1932.874z"/>
	<path opacity="0.36" fill="#FF2975" d="M1036.861,1932.874l-0.616,0.743l5.122,4.673c1.417-0.138,2.779-0.34,4.072-0.628
		l-1.811-8.479l-2.646-1.279l-2.612,3.15l-0.093,3.902L1036.861,1932.874z"/>
	<polygon fill="#5F1A33" points="1023.192,1905.746 1023.505,1905.779 1023.081,1905.694 	"/>
	<polygon opacity="0.36" fill="#FF2975" points="1023.192,1905.746 1023.505,1905.779 1023.081,1905.694 	"/>
	<path fill="#5F1A33" d="M1037.413,1902.383l1.072-1.426l-1.82-9.135c-0.068-0.008-0.135-0.016-0.203-0.022l-2.655,5.327
		L1037.413,1902.383z"/>
	<path opacity="0.36" fill="#FF2975" d="M1037.413,1902.383l1.072-1.426l-1.82-9.135c-0.068-0.008-0.135-0.016-0.203-0.022
		l-2.655,5.327L1037.413,1902.383z"/>
	<polygon fill="#5F1A33" points="1023.762,1905.807 1029.332,1906.404 1029.604,1901.673 1023.762,1895.81 	"/>
	<polygon opacity="0.36" fill="#FF2975" points="1023.762,1905.807 1029.332,1906.404 1029.604,1901.673 1023.762,1895.81 	"/>
	<polygon fill="#5F1A33" points="1053.135,1920.422 1048.667,1921.047 1050.014,1923.012 1056.576,1923.012 	"/>
	<polygon opacity="0.36" fill="#FF2975" points="1053.135,1920.422 1048.667,1921.047 1050.014,1923.012 1056.576,1923.012 	"/>
	<path fill="#5F1A33" d="M1023.072,1924.627l-1.658,0.231l-4.106,8.243c1.052,0.912,2.224,1.707,3.496,2.388l7.609-5.091l0.41-5.737
		l-8.384,3.112L1023.072,1924.627z"/>
	<path opacity="0.36" fill="#FF2975" d="M1023.072,1924.627l-1.658,0.231l-4.106,8.243c1.052,0.912,2.224,1.707,3.496,2.388
		l7.609-5.091l0.41-5.737l-8.384,3.112L1023.072,1924.627z"/>
	<polygon fill="#341155" points="1036.245,1933.617 1036.861,1932.874 1034.401,1929.255 1030.43,1934.044 1031.119,1924.424 
		1030.786,1923.934 1028.874,1924.645 1028.824,1924.661 1028.414,1930.398 1027.875,1937.93 1027.62,1941.515 1027.424,1944.257 
		1029.479,1941.779 1032.211,1938.483 	"/>
	<polygon fill="#341155" points="1048.89,1912.343 1049.707,1911.256 1044.687,1914.776 1045.95,1915.253 1051.668,1917.418 
		1043.114,1918.616 1043.491,1919.069 1046.821,1923.095 1044.762,1922.603 1048.869,1928.59 1040.772,1924.672 1038.937,1923.783 
		1038.532,1924.271 1038.529,1924.369 1038.37,1931.055 1040.982,1927.904 1043.628,1929.184 1053.269,1933.85 1057.354,1935.825 
		1059.524,1936.876 1058.164,1934.892 1055.524,1931.044 1050.014,1923.012 1048.667,1921.047 1053.135,1920.422 1058.149,1919.721 
		1062.469,1919.116 1065.622,1918.675 1062.418,1917.463 1057.912,1915.758 	"/>
	<polygon fill="#341155" points="1044.874,1904.229 1043.485,1894.305 1038.484,1900.957 1037.413,1902.383 1033.806,1897.127 
		1030.453,1892.237 1030.174,1891.831 1030.146,1892.316 1029.604,1901.673 1029.332,1906.404 1023.762,1905.807 1023.505,1905.779 
		1023.192,1905.746 1027.203,1907.596 1030.091,1908.93 1031.492,1903.061 1031.823,1903.602 1031.926,1901.825 1034.23,1905.186 
		1035.844,1907.541 1037.242,1905.868 1039.855,1902.743 1039.828,1903.461 1040.222,1902.938 1041.057,1908.914 1044.059,1907.861 
		1048.483,1906.312 1044.853,1911.137 1049.84,1911.08 1054.335,1905.101 1057.251,1901.222 1058.606,1899.419 1056.571,1900.132 
		1052.151,1901.68 	"/>
	<polygon fill="#341155" points="1024.616,1914.773 1026.913,1914.147 1026.604,1913.885 1021.073,1909.161 1025.392,1909.624 
		1023.004,1905.726 1015.31,1904.901 1011.78,1904.522 1014.368,1906.732 1023.984,1914.946 	"/>
	<polygon fill="#341155" points="1017.542,1923.012 1014.756,1925.79 1021.415,1924.858 1023.072,1924.627 1025.379,1921.87 
		1026.112,1920.994 1023.055,1921.421 1026.29,1918.193 1023.129,1917.438 	"/>
	<polygon fill="#F222FF" points="1041.681,1916.884 1043.114,1918.616 1051.668,1917.418 1045.95,1915.253 1044.687,1914.776 
		1044.005,1915.254 	"/>
	<polygon fill="#F222FF" points="1039.556,1910.716 1040.728,1910.306 1040.061,1911.191 1042.274,1911.166 1044.853,1911.137 
		1048.483,1906.312 1044.059,1907.861 1041.057,1908.914 1040.222,1902.938 1039.828,1903.461 	"/>
	<polygon fill="#F222FF" points="1031.119,1924.424 1030.43,1934.044 1034.401,1929.255 1031.932,1925.621 	"/>
	<polygon fill="#F222FF" points="1026.112,1920.994 1028.093,1918.623 1026.29,1918.193 1023.055,1921.421 	"/>
	<polygon fill="#F222FF" points="1034.916,1908.651 1035.844,1907.541 1034.23,1905.186 1031.926,1901.825 1031.823,1903.602 
		1033.021,1905.561 	"/>
	<polygon fill="#F222FF" points="1038.532,1924.271 1038.937,1923.783 1040.772,1924.672 1048.869,1928.59 1044.762,1922.603 
		1038.608,1921.134 	"/>
	<polygon fill="#F222FF" points="1026.604,1913.885 1026.913,1914.147 1027.981,1913.857 1026.16,1910.877 1025.392,1909.624 
		1021.073,1909.161 	"/>
	<polygon fill="#FF71CE" points="1040.061,1911.191 1040.728,1910.306 1039.556,1910.716 1039.538,1911.198 	"/>
	<polygon fill="#5F1A33" points="1022.947,1905.633 1022.972,1905.672 1023.081,1905.694 	"/>
	<polygon opacity="0.73" fill="#FF901F" points="1022.947,1905.633 1022.972,1905.672 1023.081,1905.694 	"/>
	<polygon fill="#5F1A33" points="1049.961,1911.079 1049.84,1911.08 1049.707,1911.256 	"/>
	<polygon opacity="0.73" fill="#FF901F" points="1049.961,1911.079 1049.84,1911.08 1049.707,1911.256 	"/>
	<polygon fill="#5F1A33" points="1023.072,1924.627 1020.44,1927.773 1028.824,1924.661 1028.886,1923.814 	"/>
	<polygon opacity="0.36" fill="#FF2975" points="1023.072,1924.627 1020.44,1927.773 1028.824,1924.661 1028.886,1923.814 	"/>
	<polygon opacity="0.73" fill="#FF901F" points="1023.072,1924.627 1020.44,1927.773 1028.824,1924.661 1028.886,1923.814 	"/>
	<polygon fill="#5F1A33" points="1038.276,1934.957 1038.37,1931.055 1036.861,1932.874 	"/>
	<polygon opacity="0.36" fill="#FF2975" points="1038.276,1934.957 1038.37,1931.055 1036.861,1932.874 	"/>
	<polygon opacity="0.73" fill="#FF901F" points="1038.276,1934.957 1038.37,1931.055 1036.861,1932.874 	"/>
	<polygon fill="#5F1A33" points="1023.984,1914.946 1018.718,1916.385 1023.129,1917.438 1024.87,1915.701 	"/>
	<polygon opacity="0.36" fill="#FF2975" points="1023.984,1914.946 1018.718,1916.385 1023.129,1917.438 1024.87,1915.701 	"/>
	<polygon opacity="0.73" fill="#FF901F" points="1023.984,1914.946 1018.718,1916.385 1023.129,1917.438 1024.87,1915.701 	"/>
	<polygon fill="#5F1A33" points="1022.972,1905.672 1023.004,1905.726 1023.192,1905.746 1023.081,1905.694 	"/>
	<polygon opacity="0.36" fill="#FF2975" points="1022.972,1905.672 1023.004,1905.726 1023.192,1905.746 1023.081,1905.694 	"/>
	<polygon opacity="0.73" fill="#FF901F" points="1022.972,1905.672 1023.004,1905.726 1023.192,1905.746 1023.081,1905.694 	"/>
	<polygon fill="#341155" points="1044.515,1922.244 1044.762,1922.603 1046.821,1923.095 1043.491,1919.069 1043.114,1918.616 
		1042.123,1918.754 	"/>
	<polygon opacity="0.73" fill="#FF901F" points="1044.515,1922.244 1044.762,1922.603 1046.821,1923.095 1043.491,1919.069 
		1043.114,1918.616 1042.123,1918.754 	"/>
	<polygon fill="#341155" points="1034.401,1929.255 1036.861,1932.874 1038.37,1931.055 1038.529,1924.369 1038.532,1924.271 
		1037.635,1925.354 	"/>
	<polygon opacity="0.73" fill="#FF901F" points="1034.401,1929.255 1036.861,1932.874 1038.37,1931.055 1038.529,1924.369 
		1038.532,1924.271 1037.635,1925.354 	"/>
	<polygon fill="#341155" points="1031.417,1920.252 1026.112,1920.994 1025.379,1921.87 1023.072,1924.627 1028.886,1923.814 
		1028.824,1924.661 1028.874,1924.645 1030.786,1923.934 1031.119,1924.424 1031.187,1923.479 	"/>
	<polygon opacity="0.73" fill="#FF901F" points="1031.417,1920.252 1026.112,1920.994 1025.379,1921.87 1023.072,1924.627 
		1028.886,1923.814 1028.824,1924.661 1028.874,1924.645 1030.786,1923.934 1031.119,1924.424 1031.187,1923.479 	"/>
	<polygon fill="#341155" points="1023.984,1914.946 1024.87,1915.701 1023.129,1917.438 1026.29,1918.193 1026.753,1917.731 
		1028.763,1915.729 1026.913,1914.147 1024.616,1914.773 	"/>
	<polygon opacity="0.73" fill="#FF901F" points="1023.984,1914.946 1024.87,1915.701 1023.129,1917.438 1026.29,1918.193 
		1026.753,1917.731 1028.763,1915.729 1026.913,1914.147 1024.616,1914.773 	"/>
	<polygon fill="#341155" points="1042.688,1914.02 1044.687,1914.776 1049.707,1911.256 1049.84,1911.08 1044.853,1911.137 
		1044.785,1911.228 	"/>
	<polygon opacity="0.73" fill="#FF901F" points="1042.688,1914.02 1044.687,1914.776 1049.707,1911.256 1049.84,1911.08 
		1044.853,1911.137 1044.785,1911.228 	"/>
	<polygon fill="#341155" points="1038.46,1905.281 1039.828,1903.461 1039.855,1902.743 1037.242,1905.868 1035.844,1907.541 
		1036.281,1908.178 	"/>
	<polygon opacity="0.73" fill="#FF901F" points="1038.46,1905.281 1039.828,1903.461 1039.855,1902.743 1037.242,1905.868 
		1035.844,1907.541 1036.281,1908.178 	"/>
	<polygon fill="#341155" points="1025.392,1909.624 1028.717,1909.98 1030.552,1910.178 1030.316,1909.673 1031.273,1910.255 
		1031.437,1910.273 1031.823,1903.602 1031.492,1903.061 1030.091,1908.93 1027.203,1907.596 1023.192,1905.746 1023.004,1905.726 	
		"/>
	<polygon opacity="0.73" fill="#FF901F" points="1025.392,1909.624 1028.717,1909.98 1030.552,1910.178 1030.316,1909.673 
		1031.273,1910.255 1031.437,1910.273 1031.823,1903.602 1031.492,1903.061 1030.091,1908.93 1027.203,1907.596 1023.192,1905.746 
		1023.004,1905.726 	"/>
	<polygon fill="#F222FF" points="1031.273,1910.255 1031.969,1910.678 1033.091,1911.361 1033.845,1909.286 1033.894,1908.454 
		1034.844,1909.842 1035.616,1910.968 1036.165,1910.446 1036.59,1909.88 1037.318,1908.914 1037.371,1909.297 1037.386,1909.283 
		1037.377,1909.342 1037.662,1911.379 1038.903,1910.946 1039.556,1910.716 1039.828,1903.461 1038.46,1905.281 1036.281,1908.178 
		1035.844,1907.541 1034.916,1908.651 1033.021,1905.561 1031.823,1903.602 1031.437,1910.273 	"/>
	<polygon opacity="0.73" fill="#FF901F" points="1031.273,1910.255 1031.969,1910.678 1033.091,1911.361 1033.845,1909.286 
		1033.894,1908.454 1034.844,1909.842 1035.616,1910.968 1036.165,1910.446 1036.59,1909.88 1037.318,1908.914 1037.371,1909.297 
		1037.386,1909.283 1037.377,1909.342 1037.662,1911.379 1038.903,1910.946 1039.556,1910.716 1039.828,1903.461 1038.46,1905.281 
		1036.281,1908.178 1035.844,1907.541 1034.916,1908.651 1033.021,1905.561 1031.823,1903.602 1031.437,1910.273 	"/>
	<polygon fill="#F222FF" points="1040.061,1911.191 1039.201,1912.336 1038.754,1912.931 1041.14,1913.177 1039.65,1913.985 
		1039.681,1913.998 1042.043,1914.891 1038.103,1915.443 1039.091,1916.883 1040.888,1919.504 1037.545,1917.886 1036.788,1917.52 
		1036.25,1918.168 1035.728,1918.798 1035.225,1922.422 1034.256,1920.572 1033.275,1921.754 1033.468,1919.069 1033.062,1918.295 
		1032.67,1917.548 1031.853,1917.749 1028.247,1918.637 1030.485,1916.507 1030.231,1916.544 1031.61,1915.168 1028.076,1913.885 
		1030.573,1913.502 1031.593,1913.346 1029.412,1911.482 1031.25,1911.679 1030.552,1910.178 1028.717,1909.98 1025.392,1909.624 
		1026.16,1910.877 1027.981,1913.857 1026.913,1914.147 1028.763,1915.729 1026.753,1917.731 1026.29,1918.193 1028.093,1918.623 
		1026.112,1920.994 1031.417,1920.252 1031.187,1923.479 1031.119,1924.424 1031.932,1925.621 1034.401,1929.255 1037.635,1925.354 
		1038.532,1924.271 1038.608,1921.134 1044.762,1922.603 1044.515,1922.244 1042.123,1918.754 1043.114,1918.616 1041.681,1916.884 
		1044.005,1915.254 1044.687,1914.776 1042.688,1914.02 1044.785,1911.228 1044.853,1911.137 1042.274,1911.166 	"/>
	<polygon opacity="0.73" fill="#FF901F" points="1040.061,1911.191 1039.201,1912.336 1038.754,1912.931 1041.14,1913.177 
		1039.65,1913.985 1039.681,1913.998 1042.043,1914.891 1038.103,1915.443 1039.091,1916.883 1040.888,1919.504 1037.545,1917.886 
		1036.788,1917.52 1036.25,1918.168 1035.728,1918.798 1035.225,1922.422 1034.256,1920.572 1033.275,1921.754 1033.468,1919.069 
		1033.062,1918.295 1032.67,1917.548 1031.853,1917.749 1028.247,1918.637 1030.485,1916.507 1030.231,1916.544 1031.61,1915.168 
		1028.076,1913.885 1030.573,1913.502 1031.593,1913.346 1029.412,1911.482 1031.25,1911.679 1030.552,1910.178 1028.717,1909.98 
		1025.392,1909.624 1026.16,1910.877 1027.981,1913.857 1026.913,1914.147 1028.763,1915.729 1026.753,1917.731 1026.29,1918.193 
		1028.093,1918.623 1026.112,1920.994 1031.417,1920.252 1031.187,1923.479 1031.119,1924.424 1031.932,1925.621 1034.401,1929.255 
		1037.635,1925.354 1038.532,1924.271 1038.608,1921.134 1044.762,1922.603 1044.515,1922.244 1042.123,1918.754 1043.114,1918.616 
		1041.681,1916.884 1044.005,1915.254 1044.687,1914.776 1042.688,1914.02 1044.785,1911.228 1044.853,1911.137 1042.274,1911.166 	
		"/>
	<polygon fill="#FF71CE" points="1033.275,1921.754 1034.256,1920.572 1033.468,1919.069 	"/>
	<polygon opacity="0.73" fill="#FF901F" points="1033.275,1921.754 1034.256,1920.572 1033.468,1919.069 	"/>
	<polygon fill="#FF71CE" points="1037.469,1915.17 1038.109,1916.149 1039.286,1917.957 1036.011,1916.768 1035.826,1918.091 
		1035.728,1918.798 1036.25,1918.168 1036.788,1917.52 1037.545,1917.886 1040.888,1919.504 1039.091,1916.883 1038.103,1915.443 
		1042.043,1914.891 1039.681,1913.998 1039.65,1913.985 1038.5,1914.61 	"/>
	<polygon opacity="0.73" fill="#FF901F" points="1037.469,1915.17 1038.109,1916.149 1039.286,1917.957 1036.011,1916.768 
		1035.826,1918.091 1035.728,1918.798 1036.25,1918.168 1036.788,1917.52 1037.545,1917.886 1040.888,1919.504 1039.091,1916.883 
		1038.103,1915.443 1042.043,1914.891 1039.681,1913.998 1039.65,1913.985 1038.5,1914.61 	"/>
	<polygon fill="#FF71CE" points="1037.371,1909.297 1037.318,1908.914 1036.59,1909.88 1036.165,1910.446 1036.167,1910.443 	"/>
	<polygon opacity="0.73" fill="#FF901F" points="1037.371,1909.297 1037.318,1908.914 1036.59,1909.88 1036.165,1910.446 
		1036.167,1910.443 	"/>
	<polygon fill="#FF71CE" points="1034.453,1910.117 1035.083,1911.475 1035.616,1910.968 1034.844,1909.842 1033.894,1908.454 
		1033.845,1909.286 1033.941,1909.021 	"/>
	<polygon opacity="0.73" fill="#FF901F" points="1034.453,1910.117 1035.083,1911.475 1035.616,1910.968 1034.844,1909.842 
		1033.894,1908.454 1033.845,1909.286 1033.941,1909.021 	"/>
	<polygon fill="#FF71CE" points="1031.816,1915.244 1031.61,1915.168 1030.231,1916.544 1030.485,1916.507 1030.55,1916.446 	"/>
	<polygon opacity="0.73" fill="#FF901F" points="1031.816,1915.244 1031.61,1915.168 1030.231,1916.544 1030.485,1916.507 
		1030.55,1916.446 	"/>
	<polygon fill="#FF71CE" points="1031.388,1911.976 1031.25,1911.679 1029.412,1911.482 1031.593,1913.346 1031.995,1913.283 	"/>
	<polygon opacity="0.73" fill="#FF901F" points="1031.388,1911.976 1031.25,1911.679 1029.412,1911.482 1031.593,1913.346 
		1031.995,1913.283 	"/>
	<polygon fill="#FF71CE" points="1037.983,1912.852 1038.754,1912.931 1039.201,1912.336 1040.061,1911.191 1039.538,1911.198 
		1039.556,1910.716 1038.903,1910.946 1037.662,1911.379 1037.377,1909.342 1036.86,1912.736 	"/>
	<polygon opacity="0.73" fill="#FF901F" points="1037.983,1912.852 1038.754,1912.931 1039.201,1912.336 1040.061,1911.191 
		1039.538,1911.198 1039.556,1910.716 1038.903,1910.946 1037.662,1911.379 1037.377,1909.342 1036.86,1912.736 	"/>
	<polygon fill="#341155" points="1030.316,1909.673 1030.552,1910.178 1031.273,1910.255 	"/>
	<polygon opacity="0.73" fill="#FF901F" points="1030.316,1909.673 1030.552,1910.178 1031.273,1910.255 	"/>
	<polygon opacity="0.85" fill="#F7F5C4" points="1030.316,1909.673 1030.552,1910.178 1031.273,1910.255 	"/>
	<polygon fill="#F222FF" points="1035.225,1922.422 1035.728,1918.798 1034.256,1920.572 	"/>
	<polygon opacity="0.73" fill="#FF901F" points="1035.225,1922.422 1035.728,1918.798 1034.256,1920.572 	"/>
	<polygon opacity="0.85" fill="#F7F5C4" points="1035.225,1922.422 1035.728,1918.798 1034.256,1920.572 	"/>
	<polygon fill="#F222FF" points="1037.386,1909.283 1037.371,1909.297 1037.377,1909.342 	"/>
	<polygon opacity="0.73" fill="#FF901F" points="1037.386,1909.283 1037.371,1909.297 1037.377,1909.342 	"/>
	<polygon opacity="0.85" fill="#F7F5C4" points="1037.386,1909.283 1037.371,1909.297 1037.377,1909.342 	"/>
	<polygon fill="#F222FF" points="1039.65,1913.985 1041.14,1913.177 1038.754,1912.931 1038.334,1913.489 	"/>
	<polygon opacity="0.73" fill="#FF901F" points="1039.65,1913.985 1041.14,1913.177 1038.754,1912.931 1038.334,1913.489 	"/>
	<polygon opacity="0.85" fill="#F7F5C4" points="1039.65,1913.985 1041.14,1913.177 1038.754,1912.931 1038.334,1913.489 	"/>
	<polygon fill="#F222FF" points="1033.683,1916.061 1030.485,1916.507 1028.247,1918.637 1031.853,1917.749 1032.67,1917.548 
		1033.062,1918.295 1033.468,1919.069 1033.588,1917.394 	"/>
	<polygon opacity="0.73" fill="#FF901F" points="1033.683,1916.061 1030.485,1916.507 1028.247,1918.637 1031.853,1917.749 
		1032.67,1917.548 1033.062,1918.295 1033.468,1919.069 1033.588,1917.394 	"/>
	<polygon opacity="0.85" fill="#F7F5C4" points="1033.683,1916.061 1030.485,1916.507 1028.247,1918.637 1031.853,1917.749 
		1032.67,1917.548 1033.062,1918.295 1033.468,1919.069 1033.588,1917.394 	"/>
	<polygon fill="#F222FF" points="1036.165,1910.446 1035.616,1910.968 1035.691,1911.076 	"/>
	<polygon opacity="0.73" fill="#FF901F" points="1036.165,1910.446 1035.616,1910.968 1035.691,1911.076 	"/>
	<polygon opacity="0.85" fill="#F7F5C4" points="1036.165,1910.446 1035.616,1910.968 1035.691,1911.076 	"/>
	<polygon fill="#F222FF" points="1032.587,1914.194 1031.696,1913.434 1031.593,1913.346 1030.573,1913.502 1028.076,1913.885 
		1031.61,1915.168 1031.758,1915.021 	"/>
	<polygon opacity="0.73" fill="#FF901F" points="1032.587,1914.194 1031.696,1913.434 1031.593,1913.346 1030.573,1913.502 
		1028.076,1913.885 1031.61,1915.168 1031.758,1915.021 	"/>
	<polygon opacity="0.85" fill="#F7F5C4" points="1032.587,1914.194 1031.696,1913.434 1031.593,1913.346 1030.573,1913.502 
		1028.076,1913.885 1031.61,1915.168 1031.758,1915.021 	"/>
	<polygon fill="#F222FF" points="1032.568,1911.82 1033.69,1911.941 1033.845,1909.286 1033.091,1911.361 1031.969,1910.678 
		1031.273,1910.255 1030.552,1910.178 1031.25,1911.679 	"/>
	<polygon opacity="0.73" fill="#FF901F" points="1032.568,1911.82 1033.69,1911.941 1033.845,1909.286 1033.091,1911.361 
		1031.969,1910.678 1031.273,1910.255 1030.552,1910.178 1031.25,1911.679 	"/>
	<polygon opacity="0.85" fill="#F7F5C4" points="1032.568,1911.82 1033.69,1911.941 1033.845,1909.286 1033.091,1911.361 
		1031.969,1910.678 1031.273,1910.255 1030.552,1910.178 1031.25,1911.679 	"/>
	<polygon fill="#FF71CE" points="1032.568,1911.82 1031.25,1911.679 1031.388,1911.976 1031.995,1913.283 1031.593,1913.346 
		1031.696,1913.434 1032.587,1914.194 1031.758,1915.021 1031.61,1915.168 1031.816,1915.244 1030.55,1916.446 1030.485,1916.507 
		1033.683,1916.061 1033.588,1917.394 1033.468,1919.069 1034.256,1920.572 1035.728,1918.798 1035.826,1918.091 1036.011,1916.768 
		1039.286,1917.957 1038.109,1916.149 1037.469,1915.17 1038.5,1914.61 1039.65,1913.985 1038.334,1913.489 1038.754,1912.931 
		1037.983,1912.852 1036.86,1912.736 1037.377,1909.342 1037.371,1909.297 1036.167,1910.443 1036.165,1910.446 1035.691,1911.076 
		1035.616,1910.968 1035.083,1911.475 1034.453,1910.117 1033.941,1909.021 1033.845,1909.286 1033.69,1911.941 	"/>
	<polygon opacity="0.73" fill="#FF901F" points="1032.568,1911.82 1031.25,1911.679 1031.388,1911.976 1031.995,1913.283 
		1031.593,1913.346 1031.696,1913.434 1032.587,1914.194 1031.758,1915.021 1031.61,1915.168 1031.816,1915.244 1030.55,1916.446 
		1030.485,1916.507 1033.683,1916.061 1033.588,1917.394 1033.468,1919.069 1034.256,1920.572 1035.728,1918.798 1035.826,1918.091 
		1036.011,1916.768 1039.286,1917.957 1038.109,1916.149 1037.469,1915.17 1038.5,1914.61 1039.65,1913.985 1038.334,1913.489 
		1038.754,1912.931 1037.983,1912.852 1036.86,1912.736 1037.377,1909.342 1037.371,1909.297 1036.167,1910.443 1036.165,1910.446 
		1035.691,1911.076 1035.616,1910.968 1035.083,1911.475 1034.453,1910.117 1033.941,1909.021 1033.845,1909.286 1033.69,1911.941 	
		"/>
	<polygon opacity="0.85" fill="#F7F5C4" points="1032.568,1911.82 1031.25,1911.679 1031.388,1911.976 1031.995,1913.283 
		1031.593,1913.346 1031.696,1913.434 1032.587,1914.194 1031.758,1915.021 1031.61,1915.168 1031.816,1915.244 1030.55,1916.446 
		1030.485,1916.507 1033.683,1916.061 1033.588,1917.394 1033.468,1919.069 1034.256,1920.572 1035.728,1918.798 1035.826,1918.091 
		1036.011,1916.768 1039.286,1917.957 1038.109,1916.149 1037.469,1915.17 1038.5,1914.61 1039.65,1913.985 1038.334,1913.489 
		1038.754,1912.931 1037.983,1912.852 1036.86,1912.736 1037.377,1909.342 1037.371,1909.297 1036.167,1910.443 1036.165,1910.446 
		1035.691,1911.076 1035.616,1910.968 1035.083,1911.475 1034.453,1910.117 1033.941,1909.021 1033.845,1909.286 1033.69,1911.941 	
		"/>
	<path fill="#FFD319" d="M1083.272,1813.393c-0.002-0.795-0.645-1.436-1.441-1.437c-1.442,0.005-4.852-11.107-5.137-11.9l-4.153,0
		c-0.28,0.793-3.65,11.928-5.094,11.932c-0.795,0.002-1.437,0.647-1.436,1.441l0.004,1.497l17.26-0.038L1083.272,1813.393z"/>
	<polygon fill="#F49138" points="1066.039,1824.003 1083.301,1823.967 1083.281,1814.888 1083.276,1814.888 1066.016,1814.926 
		1066.012,1814.926 1066.033,1824.627 	"/>
	<path fill="#FF2975" d="M1071.961,1867.868c1.738,1.732,4.552,1.729,6.286-0.01c1.308-1.312,1.626-3.236,0.956-4.847
		c-0.066-0.161-0.144-0.319-0.23-0.472l-7.729-0.03C1070.267,1864.209,1070.505,1866.417,1071.961,1867.868z"/>
	<path fill="#21BFD8" d="M1065.699,1862.487l2.145,0.009l3.334,0.013h0.065l7.729,0.03l2.974,0.011l1.531,0.006l-0.004-0.892
		l-0.021-4.807v0.334v0.625v0.625v0.625v0.625h-8.367c-0.461,0-0.86-0.253-1.076-0.625l0-0.002
		c-0.043-0.073-0.077-0.151-0.104-0.232c-0.011-0.03-0.021-0.061-0.029-0.092c-0.008-0.029-0.013-0.058-0.019-0.087
		c-0.012-0.069-0.021-0.139-0.021-0.212v-0.625v-0.625v-0.625v-0.625v-3.124c0-0.69,0.56-1.25,1.25-1.25h4.374h3.969l-0.001-0.226
		l-0.12-27.376h-0.007l-17.262,0.037l-0.006,0.624l-0.234,26.639l-0.013,1.358L1065.699,1862.487z M1069.011,1841.16l3.579-8.803
		l0,0l0.308-0.758c-0.919-1.092-1.673-2.773-1.673-3.596c0-1.159,1.815-1.806,3.25-1.806c1.436,0,3.25,0.647,3.25,1.806
		c0,0.823-0.754,2.504-1.674,3.596l3.888,9.562c0.324,0.566,0.197,1.415-0.282,1.887l-4.31,4.244c-0.48,0.472-1.263,0.472-1.742,0
		l-4.311-4.244C1068.814,1842.575,1068.688,1841.727,1069.011,1841.16z"/>
	<path fill="#F91571" d="M1073.604,1847.291c0.479,0.472,1.262,0.472,1.742,0l4.31-4.244c0.479-0.472,0.606-1.321,0.282-1.887
		l-3.888-9.562l0,0l0.308,0.758c-0.581,0.805-1.267,1.423-1.884,1.423c-0.617,0-1.302-0.618-1.885-1.423l-3.579,8.803
		c-0.324,0.566-0.197,1.415,0.282,1.887L1073.604,1847.291z"/>
	<path fill="#930F45" d="M1074.475,1833.78c0.617,0,1.303-0.618,1.884-1.423l-0.308-0.758c-0.507,0.603-1.065,1.027-1.576,1.027
		s-1.068-0.424-1.577-1.027l-0.308,0.758l0,0C1073.173,1833.162,1073.858,1833.78,1074.475,1833.78z"/>
	<path fill="#C92467" d="M1074.475,1832.625c0.51,0,1.069-0.424,1.576-1.027l0,0c0.92-1.092,1.674-2.772,1.674-3.596
		c0-1.159-1.814-1.806-3.25-1.806c-1.435,0-3.25,0.647-3.25,1.806c0,0.822,0.754,2.503,1.673,3.596
		C1073.406,1832.201,1073.964,1832.625,1074.475,1832.625z"/>
	<polygon fill="#FF2975" points="1079.459,1851.569 1079.459,1852.193 1083.453,1852.193 1083.453,1851.569 1083.429,1851.569 	"/>
	<rect x="1079.459" y="1854.068" fill="#FF2975" width="3.994" height="0.624"/>
	<rect x="1079.459" y="1852.818" fill="#FF2975" width="3.994" height="0.625"/>
	<rect x="1079.459" y="1855.317" fill="#FF2975" width="3.994" height="0.625"/>
	<rect x="1073.836" y="1857.816" fill="#FF2975" width="9.617" height="0.625"/>
	<path fill="#FF2975" d="M1074.01,1859.066c0.216,0.372,0.615,0.625,1.076,0.625h8.367v-0.625H1074.01z"/>
	<polygon fill="#FF2975" points="1073.836,1856.567 1073.836,1857.191 1083.453,1857.191 1083.453,1856.857 1083.453,1856.567 	"/>
	<path fill="#FF2975" d="M1083.539,1851.569l0.333,0c-0.013,0-0.026,0-0.039,0H1083.539z"/>
	<rect x="1073.836" y="1857.191" fill="#EEEEEE" width="9.617" height="0.625"/>
	<polygon fill="#EEEEEE" points="1079.459,1855.942 1073.836,1855.942 1073.836,1856.567 1083.453,1856.567 1083.453,1855.942 	"/>
	<polygon fill="#EEEEEE" points="1079.459,1852.193 1079.459,1852.818 1083.453,1852.818 1083.453,1852.701 1083.453,1852.193 	"/>
	<rect x="1079.459" y="1853.443" fill="#EEEEEE" width="3.994" height="0.625"/>
	<path fill="#EEEEEE" d="M1073.836,1858.441c0,0.073,0.009,0.143,0.021,0.212c0.005,0.029,0.011,0.058,0.019,0.087
		c0.008,0.031,0.018,0.062,0.029,0.092c0.027,0.081,0.062,0.159,0.104,0.232l0,0.002h9.443v-0.625H1073.836z"/>
	<rect x="1079.459" y="1854.692" fill="#EEEEEE" width="3.994" height="0.625"/>
	<path fill="#2992AB" d="M1079.459,1855.942v-0.625v-0.625v-0.624v-0.625v-0.625v-0.625v-0.625h-4.374c-0.69,0-1.25,0.56-1.25,1.25
		v3.124H1079.459z M1076.216,1854.037l-0.193-0.14l-0.192,0.14l0.074-0.227l-0.193-0.141h0.239l0.073-0.227l0.074,0.227h0.238
		l-0.193,0.141L1076.216,1854.037z M1075.591,1853.412l-0.192-0.14l-0.193,0.14l0.074-0.227l-0.193-0.141h0.238l0.074-0.227
		l0.073,0.227h0.238l-0.192,0.141L1075.591,1853.412z M1074.966,1854.037l-0.193-0.14l-0.193,0.14l0.074-0.227l-0.193-0.141h0.239
		l0.073-0.227l0.074,0.227h0.239l-0.193,0.141L1074.966,1854.037z M1076.841,1853.412l-0.193-0.14l-0.193,0.14l0.074-0.227
		l-0.193-0.141h0.239l0.073-0.227l0.074,0.227h0.239l-0.193,0.141L1076.841,1853.412z M1076.574,1854.295l0.073-0.227l0.074,0.227
		h0.239l-0.193,0.14l0.074,0.227l-0.193-0.14l-0.193,0.14l0.074-0.227l-0.193-0.14H1076.574z M1077.465,1855.286l-0.193-0.14
		l-0.193,0.14l0.074-0.227l-0.193-0.14h0.238l0.074-0.227l0.074,0.227h0.238l-0.193,0.14L1077.465,1855.286z M1077.392,1853.811
		l0.074,0.227l-0.193-0.14l-0.193,0.14l0.074-0.227l-0.193-0.141h0.238l0.074-0.227l0.074,0.227h0.238L1077.392,1853.811z
		 M1078.09,1854.662l-0.192-0.14l-0.192,0.14l0.073-0.227l-0.193-0.14h0.239l0.073-0.227l0.073,0.227h0.239l-0.193,0.14
		L1078.09,1854.662z M1078.017,1853.186l0.073,0.227l-0.192-0.14l-0.192,0.14l0.073-0.227l-0.193-0.141h0.239l0.073-0.227
		l0.073,0.227h0.239L1078.017,1853.186z M1078.715,1855.286l-0.193-0.14l-0.192,0.14l0.073-0.227l-0.192-0.14h0.239l0.073-0.227
		l0.074,0.227h0.239l-0.193,0.14L1078.715,1855.286z M1078.642,1853.811l0.073,0.227l-0.193-0.14l-0.192,0.14l0.073-0.227
		l-0.192-0.141h0.239l0.073-0.227l0.074,0.227h0.239L1078.642,1853.811z M1078.449,1852.42l0.073-0.227l0.074,0.227h0.239
		l-0.193,0.14l0.073,0.227l-0.193-0.141l-0.192,0.141l0.073-0.227l-0.192-0.14H1078.449z M1077.346,1852.42h0.238l-0.193,0.14
		l0.074,0.227l-0.193-0.141l-0.193,0.141l0.074-0.227l-0.193-0.14h0.238l0.074-0.227L1077.346,1852.42z M1076.097,1852.42h0.238
		l-0.193,0.14l0.074,0.227l-0.193-0.141l-0.192,0.141l0.074-0.227l-0.193-0.14h0.239l0.073-0.227L1076.097,1852.42z
		 M1074.847,1852.42h0.239l-0.193,0.14l0.074,0.227l-0.193-0.141l-0.193,0.141l0.074-0.227l-0.193-0.14h0.239l0.073-0.227
		L1074.847,1852.42z M1074.966,1855.286l-0.193-0.14l-0.193,0.14l0.074-0.227l-0.193-0.14h0.239l0.073-0.227l0.074,0.227h0.239
		l-0.193,0.14L1074.966,1855.286z M1075.398,1854.521l-0.193,0.14l0.074-0.227l-0.193-0.14h0.238l0.074-0.227l0.073,0.227h0.238
		l-0.192,0.14l0.073,0.227L1075.398,1854.521z M1076.023,1855.146l-0.192,0.14l0.074-0.227l-0.193-0.14h0.239l0.073-0.227
		l0.074,0.227h0.238l-0.193,0.14l0.074,0.227L1076.023,1855.146z"/>
	<polygon fill="#FFFFFF" points="1077.199,1852.42 1076.96,1852.42 1077.153,1852.561 1077.08,1852.788 1077.272,1852.646 
		1077.465,1852.788 1077.392,1852.561 1077.584,1852.42 1077.346,1852.42 1077.272,1852.193 	"/>
	<polygon fill="#FFFFFF" points="1077.272,1853.443 1077.199,1853.67 1076.96,1853.67 1077.153,1853.811 1077.08,1854.037 
		1077.272,1853.897 1077.465,1854.037 1077.392,1853.811 1077.584,1853.67 1077.346,1853.67 	"/>
	<polygon fill="#FFFFFF" points="1077.346,1854.919 1077.272,1854.692 1077.199,1854.919 1076.96,1854.919 1077.153,1855.06 
		1077.08,1855.286 1077.272,1855.146 1077.465,1855.286 1077.392,1855.06 1077.584,1854.919 	"/>
	<polygon fill="#FFFFFF" points="1076.455,1854.662 1076.647,1854.521 1076.841,1854.662 1076.767,1854.435 1076.96,1854.295 
		1076.721,1854.295 1076.647,1854.068 1076.574,1854.295 1076.335,1854.295 1076.529,1854.435 	"/>
	<polygon fill="#FFFFFF" points="1077.971,1854.295 1077.897,1854.068 1077.824,1854.295 1077.585,1854.295 1077.778,1854.435 
		1077.705,1854.662 1077.897,1854.521 1078.09,1854.662 1078.017,1854.435 1078.21,1854.295 	"/>
	<polygon fill="#FFFFFF" points="1076.721,1853.045 1076.647,1852.818 1076.574,1853.045 1076.335,1853.045 1076.529,1853.186 
		1076.455,1853.412 1076.647,1853.272 1076.841,1853.412 1076.767,1853.186 1076.96,1853.045 	"/>
	<polygon fill="#FFFFFF" points="1076.097,1853.67 1076.023,1853.443 1075.95,1853.67 1075.711,1853.67 1075.904,1853.811 
		1075.831,1854.037 1076.023,1853.897 1076.216,1854.037 1076.143,1853.811 1076.335,1853.67 	"/>
	<polygon fill="#FFFFFF" points="1077.897,1852.818 1077.824,1853.045 1077.585,1853.045 1077.778,1853.186 1077.705,1853.412 
		1077.897,1853.272 1078.09,1853.412 1078.017,1853.186 1078.21,1853.045 1077.971,1853.045 	"/>
	<polygon fill="#FFFFFF" points="1075.472,1853.045 1075.398,1852.818 1075.324,1853.045 1075.086,1853.045 1075.279,1853.186 
		1075.205,1853.412 1075.398,1853.272 1075.591,1853.412 1075.518,1853.186 1075.71,1853.045 	"/>
	<polygon fill="#FFFFFF" points="1075.086,1853.67 1074.847,1853.67 1074.773,1853.443 1074.7,1853.67 1074.461,1853.67 
		1074.654,1853.811 1074.581,1854.037 1074.773,1853.897 1074.966,1854.037 1074.893,1853.811 	"/>
	<polygon fill="#FFFFFF" points="1075.95,1852.42 1075.711,1852.42 1075.904,1852.561 1075.831,1852.788 1076.023,1852.646 
		1076.216,1852.788 1076.143,1852.561 1076.335,1852.42 1076.097,1852.42 1076.023,1852.193 	"/>
	<polygon fill="#FFFFFF" points="1078.596,1854.919 1078.522,1854.692 1078.449,1854.919 1078.21,1854.919 1078.402,1855.06 
		1078.33,1855.286 1078.522,1855.146 1078.715,1855.286 1078.642,1855.06 1078.835,1854.919 	"/>
	<polygon fill="#FFFFFF" points="1074.7,1852.42 1074.461,1852.42 1074.654,1852.561 1074.581,1852.788 1074.773,1852.646 
		1074.966,1852.788 1074.893,1852.561 1075.086,1852.42 1074.847,1852.42 1074.773,1852.193 	"/>
	<polygon fill="#FFFFFF" points="1078.522,1853.443 1078.449,1853.67 1078.21,1853.67 1078.402,1853.811 1078.33,1854.037 
		1078.522,1853.897 1078.715,1854.037 1078.642,1853.811 1078.835,1853.67 1078.596,1853.67 	"/>
	<polygon fill="#FFFFFF" points="1078.402,1852.561 1078.33,1852.788 1078.522,1852.646 1078.715,1852.788 1078.642,1852.561 
		1078.835,1852.42 1078.596,1852.42 1078.522,1852.193 1078.449,1852.42 1078.21,1852.42 	"/>
	<polygon fill="#FFFFFF" points="1074.847,1854.919 1074.773,1854.692 1074.7,1854.919 1074.461,1854.919 1074.654,1855.06 
		1074.581,1855.286 1074.773,1855.146 1074.966,1855.286 1074.893,1855.06 1075.086,1854.919 	"/>
	<polygon fill="#FFFFFF" points="1075.71,1854.295 1075.472,1854.295 1075.398,1854.068 1075.324,1854.295 1075.086,1854.295 
		1075.279,1854.435 1075.205,1854.662 1075.398,1854.521 1075.591,1854.662 1075.518,1854.435 	"/>
	<polygon fill="#FFFFFF" points="1076.335,1854.919 1076.097,1854.919 1076.023,1854.692 1075.95,1854.919 1075.711,1854.919 
		1075.904,1855.06 1075.831,1855.286 1076.023,1855.146 1076.216,1855.286 1076.143,1855.06 	"/>
</g>
</svg>
