<?xml version="1.0" standalone="no"?>
<!DOCTYPE svg PUBLIC "-//W3C//DTD SVG 20010904//EN"
 "http://www.w3.org/TR/2001/REC-SVG-20010904/DTD/svg10.dtd">
<svg version="1.0" xmlns="http://www.w3.org/2000/svg"
 width="900.000000pt" height="900.000000pt" viewBox="0 0 900.000000 900.000000"
 preserveAspectRatio="xMidYMid meet">
<metadata>
Created by potrace 1.14, written by Peter Selinger 2001-2017
</metadata>
<g transform="translate(0.000000,900.000000) scale(0.100000,-0.100000)"
fill="#000000" stroke="none">
<path d="M4564 8112 c-11 -16 2 -17 228 -17 194 0 237 2 233 13 -3 8 -5 16 -5
18 0 2 -100 4 -223 4 -201 0 -223 -2 -233 -18z"/>
<path d="M4390 8093 c-14 -3 -29 -9 -35 -15 -13 -13 116 -1 130 13 9 9 -47 10
-95 2z"/>
<path d="M5136 8091 c-7 -10 29 -20 86 -23 52 -3 58 8 11 21 -47 13 -90 14
-97 2z"/>
<path d="M4213 8063 c-43 -8 -25 -26 19 -19 58 9 84 26 38 24 -19 0 -45 -3
-57 -5z"/>
<path d="M5290 8060 c0 -5 10 -10 23 -10 18 0 19 2 7 10 -19 13 -30 13 -30 0z"/>
<path d="M4118 8043 c-10 -2 -18 -9 -18 -15 0 -6 10 -8 23 -4 12 3 28 6 35 6
6 0 12 5 12 10 0 10 -21 11 -52 3z"/>
<path d="M5410 8035 c0 -9 44 -23 54 -17 5 3 1 9 -10 13 -23 9 -44 11 -44 4z"/>
<path d="M4010 8010 c-8 -5 -12 -11 -9 -14 7 -8 49 5 49 15 0 12 -21 11 -40
-1z"/>
<path d="M5500 8011 c0 -11 31 -24 39 -16 3 3 -1 10 -9 15 -19 12 -30 12 -30
1z"/>
<path d="M3925 7980 c-8 -13 5 -13 25 0 13 8 13 10 -2 10 -9 0 -20 -4 -23 -10z"/>
<path d="M5580 7985 c0 -6 90 -45 106 -45 30 0 12 19 -33 34 -46 16 -73 20
-73 11z"/>
<path d="M5727 7943 c-14 -13 -6 -21 41 -38 26 -10 67 -29 92 -43 193 -106
214 -116 190 -87 -7 8 -17 15 -23 15 -6 0 -20 9 -31 19 -19 17 -245 141 -258
141 -3 0 -8 -3 -11 -7z"/>
<path d="M3620 7880 c-13 -8 -12 -10 3 -10 9 0 17 5 17 10 0 12 -1 12 -20 0z"/>
<path d="M3560 7850 c0 -5 7 -7 15 -4 8 4 15 8 15 10 0 2 -7 4 -15 4 -8 0 -15
-4 -15 -10z"/>
<path d="M6080 7751 c0 -10 31 -31 45 -31 11 0 -5 20 -26 30 -12 7 -19 7 -19
1z"/>
<path d="M3250 7699 c0 -5 5 -7 10 -4 6 3 10 8 10 11 0 2 -4 4 -10 4 -5 0 -10
-5 -10 -11z"/>
<path d="M6156 7696 c3 -8 11 -17 18 -19 7 -3 57 -41 112 -85 97 -79 225 -205
336 -332 32 -35 60 -61 64 -57 4 4 -73 89 -171 189 -97 101 -190 197 -206 213
-15 17 -40 37 -56 45 -15 8 -42 25 -59 37 -36 27 -46 29 -38 9z"/>
<path d="M3077 7609 c-53 -43 -46 -57 9 -17 51 37 61 48 42 48 -7 0 -30 -14
-51 -31z"/>
<path d="M2968 7519 c-18 -16 -24 -26 -13 -20 33 17 71 51 58 51 -7 0 -27 -14
-45 -31z"/>
<path d="M2562 7201 c-41 -31 -57 -49 -49 -57 2 -3 26 16 53 40 56 52 55 59
-4 17z"/>
<path d="M6700 7175 c0 -7 34 -53 127 -174 2 -2 6 -2 9 2 3 3 -14 34 -39 69
-46 64 -97 118 -97 103z"/>
<path d="M2450 7085 c-19 -19 -30 -35 -24 -35 5 0 22 16 37 35 36 45 30 45
-13 0z"/>
<path d="M6860 6959 c0 -9 7 -22 15 -29 19 -16 19 0 0 26 -12 16 -14 16 -15 3z"/>
<path d="M6910 6884 c0 -5 7 -19 15 -30 8 -10 15 -14 15 -8 0 5 -7 19 -15 30
-8 10 -15 14 -15 8z"/>
<path d="M6950 6810 c0 -5 5 -10 11 -10 5 0 7 5 4 10 -3 6 -8 10 -11 10 -2 0
-4 -4 -4 -10z"/>
<path d="M6980 6764 c0 -7 16 -45 36 -85 46 -92 104 -227 104 -241 0 -5 6 -24
14 -41 26 -62 96 -309 96 -342 0 -48 21 -72 34 -38 7 16 -8 75 -45 183 -72
206 -109 323 -109 341 0 12 -18 53 -40 91 -22 39 -40 73 -40 76 0 12 -49 67
-50 56z"/>
<path d="M2080 6631 c-11 -23 -18 -41 -16 -41 8 0 48 71 43 76 -3 3 -15 -12
-27 -35z"/>
<path d="M1981 6451 c-29 -56 -26 -65 4 -12 14 24 23 46 21 48 -3 3 -14 -13
-25 -36z"/>
<path d="M1822 6125 c-14 -31 -16 -53 -3 -39 9 9 24 64 18 64 -2 0 -9 -11 -15
-25z"/>
<path d="M7250 5954 c0 -4 6 -48 14 -98 24 -155 35 -238 42 -309 4 -37 10 -70
15 -72 25 -16 28 77 4 159 -9 29 -15 58 -13 62 3 13 -21 173 -33 222 -7 23
-16 42 -20 42 -5 0 -9 -3 -9 -6z"/>
<path d="M1716 5719 c-8 -42 0 -50 9 -9 4 17 5 34 2 36 -2 3 -7 -10 -11 -27z"/>
<path d="M1698 5634 c-5 -4 -8 -41 -7 -83 0 -60 2 -71 10 -51 11 27 8 146 -3
134z"/>
<path d="M4657 5443 c-27 -7 -10 -23 25 -23 26 0 29 2 18 15 -7 8 -15 14 -19
14 -3 -1 -14 -3 -24 -6z"/>
<path d="M4759 5413 c-17 -17 -36 -23 -71 -23 -43 0 -77 -19 -50 -28 7 -2 12
-10 12 -19 0 -12 9 -14 49 -8 31 4 57 2 71 -5 16 -9 25 -9 33 -1 13 13 41 14
65 2 45 -25 82 -39 76 -29 -9 15 35 -1 69 -24 34 -24 35 -42 2 -36 -13 3 -26
1 -28 -5 -2 -7 -14 -7 -35 1 -18 6 -40 8 -49 5 -10 -4 -22 3 -33 17 -17 22
-21 23 -46 11 -17 -7 -30 -9 -32 -3 -4 12 -92 3 -110 -11 -9 -7 -9 -13 -1 -23
8 -10 15 -11 24 -4 7 6 19 8 28 4 8 -3 18 0 22 6 5 8 13 5 26 -9 24 -26 51
-28 42 -4 -5 12 -3 14 8 7 8 -5 30 -14 49 -20 19 -7 27 -12 17 -13 -34 -2 -1
-38 42 -45 31 -5 40 -11 43 -28 2 -16 24 -34 73 -62 75 -42 97 -62 152 -143
40 -60 53 -122 30 -141 -19 -16 -91 10 -124 45 -12 13 -29 23 -37 23 -8 0 -35
11 -59 25 -25 13 -47 22 -50 18 -4 -3 -30 4 -59 15 -56 23 -155 35 -164 21 -3
-5 8 -9 25 -9 74 0 217 -53 264 -98 43 -40 94 -117 73 -109 -14 5 -15 3 -6
-13 5 -10 15 -22 20 -25 6 -4 8 -11 4 -17 -4 -5 -17 1 -33 16 -42 40 -146 107
-149 96 -2 -5 11 -27 28 -48 41 -51 51 -89 33 -124 -7 -16 -21 -28 -31 -28
-15 -1 -15 -2 2 -15 29 -22 98 -19 126 5 13 11 27 20 31 20 4 0 4 14 -1 30 -5
17 -6 30 -4 30 13 0 114 -105 114 -118 0 -8 7 -20 16 -27 13 -9 14 -16 5 -33
-6 -11 -11 -30 -11 -41 0 -17 5 -20 30 -15 16 4 43 1 60 -6 24 -10 36 -10 63
1 27 11 150 107 168 132 7 10 2 373 -6 448 -8 65 -35 116 -69 129 -13 5 -27
18 -30 28 -9 28 -42 55 -68 56 -16 1 -23 7 -24 21 0 11 -10 36 -22 55 -12 19
-19 43 -16 53 4 13 -2 19 -27 24 -17 3 -34 14 -36 23 -5 18 -96 52 -117 44 -7
-3 -25 2 -40 10 -21 11 -35 12 -55 5 -17 -7 -39 -7 -66 0 -22 6 -79 9 -126 8
-73 -2 -89 -5 -110 -24z m369 -156 c3 -13 0 -14 -22 -4 -16 8 -21 14 -13 19
17 11 31 4 35 -15z m-31 -19 c15 -6 31 -12 36 -12 4 -1 7 -5 8 -11 0 -5 10
-20 21 -32 25 -27 13 -31 -15 -6 -20 19 -113 25 -153 10 -15 -5 -23 -3 -27 7
-5 11 4 17 31 22 20 4 43 13 50 21 16 16 14 16 49 1z m7 -633 c-4 -8 -15 -15
-25 -15 -10 0 -19 7 -19 15 0 9 9 15 25 15 18 0 23 -4 19 -15z"/>
<path d="M7338 5380 c2 -17 8 -33 13 -36 10 -6 11 11 3 44 -9 33 -21 27 -16
-8z"/>
<path d="M4595 5360 c3 -5 11 -10 16 -10 6 0 7 5 4 10 -3 6 -11 10 -16 10 -6
0 -7 -4 -4 -10z"/>
<path d="M6800 5303 c-25 -14 -44 -28 -43 -33 1 -4 -4 -11 -12 -14 -8 -3 -14
0 -12 6 1 6 -4 13 -11 15 -7 3 -12 1 -11 -4 4 -23 -3 -43 -15 -43 -19 0 -27
25 -13 39 21 21 -26 12 -67 -13 -36 -22 -38 -24 -18 -30 12 -4 29 -14 37 -23
9 -8 19 -12 23 -8 4 4 1 10 -5 12 -7 3 -13 9 -13 14 0 15 22 10 35 -8 12 -17
16 -16 53 5 49 27 52 27 52 2 0 -11 5 -20 10 -20 6 0 10 6 10 13 0 8 10 26 23
40 16 19 28 25 45 21 14 -4 22 -2 22 6 0 6 -9 14 -21 17 -13 4 -17 8 -9 13 9
5 8 9 -2 12 -7 3 -33 -6 -58 -19z m30 -13 c0 -5 -7 -10 -16 -10 -8 0 -12 5 -9
10 3 6 10 10 16 10 5 0 9 -4 9 -10z"/>
<path d="M7361 5270 c0 -14 4 -34 9 -45 8 -18 9 -18 9 5 0 14 -4 34 -9 45 -8
18 -9 18 -9 -5z"/>
<path d="M4570 5250 c0 -5 5 -10 10 -10 6 0 10 5 10 10 0 6 -4 10 -10 10 -5 0
-10 -4 -10 -10z"/>
<path d="M3970 5215 c0 -8 5 -15 10 -15 6 0 10 7 10 15 0 8 -4 15 -10 15 -5 0
-10 -7 -10 -15z"/>
<path d="M3954 5161 c-32 -31 -44 -31 -44 1 0 10 -4 18 -10 18 -5 0 -10 -8
-10 -18 0 -24 -43 -84 -99 -138 -24 -24 -40 -47 -36 -53 9 -15 -14 -81 -28
-81 -7 0 -40 -30 -75 -67 l-62 -67 49 -47 c47 -45 51 -47 95 -42 37 5 49 2 60
-12 12 -17 15 -16 41 14 16 17 30 41 32 52 3 22 24 57 66 111 25 32 28 42 24
86 -2 27 -1 56 4 63 5 9 2 23 -8 38 -15 23 -14 24 6 18 14 -3 28 3 43 19 13
13 29 24 37 24 8 0 11 6 7 16 -3 9 -6 25 -6 36 0 19 -2 19 -26 -6 -15 -14 -31
-26 -36 -26 -18 0 -20 31 -3 50 30 33 11 42 -21 11z m-53 -98 c-7 -27 -31 -45
-31 -23 0 17 19 50 29 50 5 0 6 -12 2 -27z"/>
<path d="M1688 5147 c-3 -13 -1 -32 3 -43 5 -13 8 -7 8 24 1 46 -4 55 -11 19z"/>
<path d="M6645 5150 c-3 -6 1 -7 9 -4 18 7 21 14 7 14 -6 0 -13 -4 -16 -10z"/>
<path d="M6367 5006 c-15 -7 -35 -26 -44 -42 -34 -63 -59 -108 -71 -131 -14
-25 -10 -53 7 -53 5 0 13 10 16 23 4 12 18 36 31 54 13 17 24 37 24 43 0 6 11
15 25 20 17 6 25 17 25 34 0 13 7 29 15 36 16 13 20 31 8 29 -5 0 -21 -6 -36
-13z"/>
<path d="M1711 4954 c0 -11 3 -14 6 -6 3 7 2 16 -1 19 -3 4 -6 -2 -5 -13z"/>
<path d="M4600 4920 c-10 -7 3 -9 44 -6 32 3 61 7 64 10 10 10 -92 6 -108 -4z"/>
<path d="M4518 4903 c6 -2 18 -2 25 0 6 3 1 5 -13 5 -14 0 -19 -2 -12 -5z"/>
<path d="M4410 4880 c0 -12 17 -12 45 0 17 7 15 9 -12 9 -18 1 -33 -3 -33 -9z"/>
<path d="M1712 4815 c0 -38 3 -79 8 -90 11 -26 12 52 1 115 -8 43 -9 42 -9
-25z"/>
<path d="M6657 4873 c-4 -3 -33 -7 -65 -8 -78 -4 -132 -20 -173 -50 -19 -13
-47 -32 -64 -41 -16 -9 -46 -30 -66 -46 -20 -16 -41 -28 -48 -26 -7 2 -18 -14
-25 -35 -8 -20 -19 -44 -26 -53 -10 -11 -10 -18 -2 -26 8 -8 27 4 70 41 32 28
63 51 68 51 5 0 32 16 59 36 62 44 120 75 148 77 12 2 33 9 46 16 15 8 42 11
73 9 27 -3 51 -1 54 3 6 10 84 12 108 3 9 -3 14 -10 11 -14 -3 -5 -1 -11 5
-15 5 -3 10 1 10 11 0 15 7 16 57 10 62 -7 107 -31 166 -86 37 -34 72 -89 63
-98 -7 -6 -75 48 -86 67 -4 9 -30 22 -57 29 -26 8 -73 21 -103 31 -44 13 -77
15 -165 10 -117 -7 -149 -14 -138 -32 3 -6 7 -40 8 -76 2 -77 30 -129 83 -155
37 -18 117 -21 158 -6 14 6 61 12 103 13 62 2 83 7 106 25 33 26 58 28 75 6
21 -24 82 -46 94 -34 19 19 10 88 -18 130 -14 22 -26 43 -26 48 0 16 -67 70
-135 109 -73 41 -156 63 -255 69 -30 2 -67 6 -81 8 -15 3 -29 2 -32 -1z m63
-153 c0 -11 -6 -20 -13 -20 -19 0 -27 10 -20 26 8 21 33 17 33 -6z m264 -64
c20 -18 36 -41 36 -51 0 -17 -1 -17 -18 -2 -26 24 -45 22 -37 -3 4 -14 2 -20
-8 -20 -8 0 -21 -10 -30 -22 -21 -32 -32 -15 -16 24 7 18 12 45 10 60 -6 57
14 61 63 14z"/>
<path d="M4370 4860 c0 -5 7 -7 15 -4 8 4 15 8 15 10 0 2 -7 4 -15 4 -8 0 -15
-4 -15 -10z"/>
<path d="M4298 4845 c-3 -3 -16 -8 -30 -10 -13 -3 -46 -16 -73 -30 -28 -14
-54 -25 -59 -25 -5 0 -36 -17 -70 -39 -34 -21 -94 -55 -133 -76 -40 -21 -73
-42 -73 -46 0 -20 37 -26 94 -18 33 6 66 7 73 4 8 -3 37 5 64 16 33 15 59 19
81 15 70 -13 294 -46 312 -46 16 0 13 5 -14 25 -19 14 -39 25 -44 25 -6 1 -29
17 -51 36 l-40 36 24 19 c13 10 29 19 36 19 7 0 34 9 58 19 38 17 47 17 57 6
6 -7 10 -19 9 -27 -6 -30 15 -95 42 -129 36 -46 110 -74 175 -66 87 9 152 92
157 198 2 49 0 54 -20 57 -13 2 -23 6 -23 10 0 4 -26 8 -58 10 -31 1 -68 4
-82 7 -29 6 -250 -21 -300 -37 -19 -6 -53 -16 -75 -24 -57 -18 -125 -27 -125
-17 0 15 49 53 94 73 28 13 35 19 20 19 -11 1 -23 -1 -26 -4z m-98 -105 c0 -5
-7 -10 -16 -10 -8 0 -12 5 -9 10 3 6 10 10 16 10 5 0 9 -4 9 -10z"/>
<path d="M7365 4791 c4 -23 3 -47 -3 -54 -18 -23 -1 -331 29 -507 15 -90 77
-348 86 -359 12 -16 11 19 -3 100 -25 144 -30 177 -70 469 -7 58 -15 168 -17
244 -2 105 -6 141 -16 144 -10 3 -12 -5 -6 -37z"/>
<path d="M6455 4704 c-146 -73 -169 -89 -145 -104 21 -13 30 -12 25 3 -5 13
111 87 136 87 9 0 26 11 39 25 29 31 30 31 -55 -11z"/>
<path d="M7310 4661 c0 -11 5 -23 10 -26 6 -4 10 5 10 19 0 14 -4 26 -10 26
-5 0 -10 -9 -10 -19z"/>
<path d="M1571 4631 c-18 -18 -45 -90 -37 -98 4 -4 46 64 46 74 0 4 7 15 17
25 22 25 -1 24 -26 -1z"/>
<path d="M4975 4631 c-6 -11 9 -23 19 -14 9 9 7 23 -3 23 -6 0 -12 -4 -16 -9z"/>
<path d="M6467 4598 c10 -75 15 -80 106 -92 23 -3 37 -1 37 6 0 17 -88 98
-105 98 -8 0 -15 7 -15 15 0 8 -6 15 -14 15 -11 0 -13 -10 -9 -42z"/>
<path d="M6315 4554 l-29 -27 24 -9 c13 -5 31 -8 41 -6 14 3 14 8 5 36 l-12
33 -29 -27z"/>
<path d="M1490 4425 c0 -8 -4 -15 -10 -15 -5 0 -10 -18 -10 -40 0 -43 17 -55
24 -17 10 48 12 87 4 87 -4 0 -8 -7 -8 -15z"/>
<path d="M4259 4344 c-9 -12 2 -20 66 -49 70 -32 85 -35 157 -33 81 2 110 13
61 23 -15 4 -37 11 -47 17 -23 12 -137 44 -188 51 -25 4 -40 1 -49 -9z"/>
<path d="M6460 4295 c0 -9 9 -15 25 -15 18 0 23 4 19 15 -4 8 -15 15 -25 15
-10 0 -19 -7 -19 -15z"/>
<path d="M6535 4260 c3 -5 13 -10 21 -10 8 0 14 5 14 10 0 6 -9 10 -21 10 -11
0 -17 -4 -14 -10z"/>
<path d="M1470 4165 c0 -19 4 -35 9 -35 5 0 12 -12 14 -27 2 -18 5 -11 6 19 0
25 -2 53 -5 62 -11 28 -24 17 -24 -19z"/>
<path d="M2015 4128 c9 -27 9 -43 5 -123 -2 -33 0 -77 5 -97 6 -32 5 -38 -9
-38 -10 0 -14 4 -11 10 3 5 2 17 -3 26 -8 14 -10 14 -25 -1 -19 -18 -14 -35 8
-35 14 0 45 -48 45 -68 0 -5 -9 -19 -20 -32 -23 -27 -25 -46 -5 -80 9 -16 12
-40 8 -65 -6 -44 6 -62 46 -68 28 -4 41 -23 41 -59 0 -34 24 -38 41 -7 7 14 8
37 3 68 -5 25 -9 123 -9 216 l0 170 -54 103 c-29 56 -58 102 -63 102 -6 0 -7
-9 -3 -22z"/>
<path d="M1505 3985 c4 -22 12 -44 17 -50 6 -6 7 4 3 30 -4 22 -12 45 -17 50
-6 6 -7 -4 -3 -30z"/>
<path d="M1523 3850 c16 -118 65 -284 53 -180 -9 79 -35 193 -47 204 -8 8 -10
2 -6 -24z"/>
<path d="M7489 3815 c-11 -19 5 -208 19 -213 9 -3 12 18 12 82 0 47 -4 86 -9
86 -5 0 -11 12 -13 28 -2 15 -6 23 -9 17z"/>
<path d="M1581 3604 c-1 -12 3 -34 8 -50 5 -16 14 -56 21 -89 7 -33 17 -76 22
-95 12 -39 88 -173 95 -166 2 2 0 12 -5 23 -15 27 -58 141 -77 203 -10 30 -21
65 -26 78 -5 13 -9 31 -9 40 -1 9 -7 31 -15 47 -11 25 -14 26 -14 9z"/>
<path d="M7495 3498 c-5 -17 -22 -104 -30 -151 -5 -32 -8 -36 -24 -27 -10 5
-21 6 -25 3 -13 -13 -5 -42 12 -47 16 -5 17 -13 11 -64 -4 -31 -12 -70 -18
-85 -6 -16 -11 -39 -11 -52 0 -13 -6 -25 -12 -28 -10 -3 -8 -9 5 -24 22 -25
22 -32 -5 -60 -17 -18 -23 -38 -25 -88 -1 -35 -9 -80 -18 -100 -8 -21 -15 -53
-15 -72 0 -19 -4 -43 -10 -53 -7 -13 -6 -19 5 -24 8 -3 15 -10 15 -15 0 -6 -6
-8 -13 -5 -8 3 -19 -2 -26 -10 -10 -12 -8 -19 9 -36 21 -21 21 -22 4 -48 -11
-16 -18 -47 -19 -77 0 -27 -4 -56 -8 -62 -5 -8 -4 -13 2 -13 17 0 13 -21 -6
-35 -21 -15 -10 -50 13 -41 19 7 60 -19 45 -29 -6 -3 -11 -40 -11 -86 0 -51
-4 -78 -10 -74 -5 3 -10 1 -10 -6 0 -7 -10 -23 -22 -36 -18 -19 -21 -34 -21
-86 1 -52 -3 -68 -20 -88 -13 -15 -30 -23 -43 -21 -15 2 -23 -3 -27 -17 -6
-24 10 -42 31 -33 12 4 14 1 9 -12 -4 -10 -7 -21 -7 -26 0 -4 -12 -7 -27 -7
-29 -1 -53 -26 -53 -55 0 -10 -10 -22 -23 -27 -12 -5 -29 -20 -36 -34 -7 -14
-22 -28 -32 -30 -11 -3 -19 -14 -19 -25 0 -13 -10 -24 -30 -31 -16 -5 -30 -14
-30 -20 0 -16 -99 -81 -125 -81 -18 0 -28 -7 -35 -25 -10 -26 -4 -55 11 -55 5
0 9 -15 9 -34 0 -50 18 -59 68 -34 23 12 42 28 42 35 0 7 9 13 21 13 14 0 19
-5 17 -17 -2 -10 -10 -17 -16 -15 -8 1 -12 -13 -12 -41 0 -31 -6 -49 -20 -62
-11 -10 -20 -29 -20 -43 0 -20 -3 -22 -14 -13 -11 10 -21 5 -50 -24 -20 -20
-36 -39 -36 -43 0 -4 -14 -16 -30 -25 -27 -16 -29 -20 -15 -33 20 -21 19 -27
-10 -54 -20 -18 -27 -21 -39 -11 -11 9 -20 10 -35 1 -26 -13 -26 -22 -1 -45
28 -26 26 -55 -4 -55 -26 0 -56 -37 -56 -69 0 -11 -6 -24 -14 -28 -8 -4 -15
-17 -17 -28 -3 -14 -15 -21 -43 -26 -39 -6 -56 -21 -56 -50 0 -9 -6 -22 -14
-29 -12 -9 -19 -7 -37 14 -18 21 -25 23 -37 14 -28 -24 -79 -34 -141 -30 -57
4 -63 3 -68 -17 -3 -11 -6 -21 -7 -21 0 -1 -37 -7 -81 -15 -94 -17 -161 -19
-170 -5 -4 6 -23 7 -45 4 -23 -4 -52 -1 -68 5 -21 9 -36 9 -56 1 -23 -8 -34
-7 -61 10 -18 11 -43 20 -57 20 -13 0 -29 5 -35 11 -16 16 -103 22 -119 8 -11
-9 -22 -8 -45 1 -26 11 -36 11 -63 -2 -17 -8 -51 -20 -76 -26 -37 -9 -48 -8
-62 5 -28 25 -6 44 32 30 37 -14 61 2 40 28 -16 19 -27 19 -64 0 -33 -18 -82
-16 -98 2 -16 20 -30 15 -19 -6 8 -15 7 -20 -5 -25 -32 -12 -55 -6 -64 19 -14
36 -53 52 -85 35 -20 -11 -27 -11 -41 0 -8 8 -34 16 -57 20 -34 4 -41 9 -39
24 5 25 -14 36 -60 36 -31 0 -38 4 -38 20 0 11 7 23 15 26 29 12 15 25 -20 18
-29 -5 -41 -1 -73 24 -21 17 -51 32 -67 34 -32 3 -34 10 -38 101 -1 23 -6 37
-14 37 -8 0 -18 10 -23 23 -6 12 -15 30 -22 39 -19 26 5 47 32 30 36 -22 50
-16 37 18 -6 16 -8 32 -4 36 13 13 52 10 72 -5 14 -11 16 -11 8 -1 -18 20 -16
57 4 91 16 27 16 32 3 56 -10 17 -27 30 -48 34 -17 3 -39 13 -49 20 -9 8 -23
14 -32 14 -27 1 -129 55 -159 84 -15 15 -44 34 -65 40 -26 9 -52 31 -86 73
-27 33 -63 68 -80 79 -43 26 -39 39 13 39 54 0 81 24 39 35 -16 3 -36 14 -45
22 -14 13 -21 13 -32 4 -16 -14 -40 -6 -31 10 14 22 -8 28 -32 9 -33 -26 -63
-26 -70 0 -6 23 -43 27 -43 5 0 -8 5 -15 11 -15 7 0 8 -7 4 -17 -4 -10 -8 -27
-9 -39 -7 -51 -74 -106 -102 -83 -24 20 -16 49 19 65 l32 15 -43 -4 c-40 -2
-44 0 -49 23 -4 25 -7 26 -37 16 -28 -9 -31 -13 -28 -43 5 -38 -8 -43 -37 -12
-12 13 -21 17 -26 10 -3 -6 -14 -11 -25 -11 -23 0 -33 40 -20 76 14 36 6 54
-23 54 -34 0 -51 -38 -43 -94 8 -53 -3 -59 -33 -19 -19 27 -20 27 -33 10 -13
-18 -15 -18 -51 -1 -21 10 -32 21 -26 25 13 8 -9 49 -27 49 -18 0 -36 -28 -30
-47 3 -11 -7 -33 -29 -58 l-34 -40 -10 28 c-11 28 -26 33 -50 18 -12 -8 -13
-15 -3 -35 15 -33 -7 -55 -32 -31 -9 9 -16 21 -16 26 0 14 -27 11 -62 -7 -28
-15 -32 -15 -40 0 -11 20 -32 20 -49 0 -10 -12 -23 -14 -57 -9 -27 4 -55 2
-73 -5 -23 -10 -32 -10 -44 0 -13 11 -20 11 -39 0 -21 -11 -28 -9 -54 10 -32
24 -62 21 -62 -5 0 -27 106 -246 208 -432 34 -61 62 -116 62 -121 0 -5 16 -33
35 -61 l35 -51 3 -195 c2 -177 1 -198 -15 -212 -16 -14 -16 -18 -4 -32 12 -14
12 -20 1 -41 -19 -33 -18 -56 1 -85 13 -20 14 -28 5 -39 -10 -11 -9 -25 5 -63
9 -26 17 -76 17 -111 1 -57 3 -63 25 -69 20 -5 23 -11 21 -47 -1 -22 -2 -53
-1 -68 l2 -28 1594 0 1594 0 7 31 c4 18 6 91 4 162 -4 124 -3 131 16 137 44
12 288 216 294 246 4 21 77 118 131 173 19 20 45 51 57 69 13 18 28 38 33 45
19 22 164 226 244 342 22 33 44 62 49 63 4 2 7 14 7 27 0 13 18 62 40 109 47
102 140 348 140 371 0 8 6 26 14 38 8 12 19 56 25 97 21 150 31 236 37 299 3
36 7 68 9 71 7 11 36 183 45 265 8 71 25 194 46 323 4 23 11 42 15 42 5 0 9
135 9 300 0 199 -3 300 -10 300 -6 0 -12 -6 -15 -12z m-21 -337 c-4 -34 -9
-59 -12 -56 -9 9 -9 79 0 104 14 39 20 17 12 -48z m-74 -625 c0 -14 -4 -28
-10 -31 -6 -4 -10 7 -10 24 0 17 5 31 10 31 6 0 10 -11 10 -24z m-13 -88 c-3
-8 -6 -5 -6 6 -1 11 2 17 5 13 3 -3 4 -12 1 -19z m-7 -37 c0 -6 -4 -13 -10
-16 -5 -3 -10 1 -10 9 0 9 5 16 10 16 6 0 10 -4 10 -9z m-17 -96 c-7 -21 -13
-19 -13 6 0 11 4 18 10 14 5 -3 7 -12 3 -20z m-43 -353 c0 -15 -5 -34 -10 -42
-7 -11 -10 -2 -10 33 0 30 4 46 10 42 6 -3 10 -18 10 -33z m-3290 -247 c0 -19
-20 -29 -32 -17 -15 15 -2 43 17 36 8 -3 15 -12 15 -19z m-260 -66 c0 -5 -7
-9 -15 -9 -15 0 -20 12 -9 23 8 8 24 -1 24 -14z m715 -569 c12 -11 27 -20 33
-20 7 0 12 -15 12 -35 0 -19 -4 -35 -8 -35 -5 0 -25 17 -44 38 -19 20 -48 47
-64 60 l-29 23 39 -5 c21 -3 49 -14 61 -26z m2385 15 c0 -8 -7 -15 -15 -15
-16 0 -20 12 -8 23 11 12 23 8 23 -8z m-561 -464 c21 -13 4 -31 -30 -31 -32 0
-35 4 -16 25 14 17 27 18 46 6z m-739 -22 c0 -5 -12 -9 -27 -9 -27 1 -27 1 -9
15 19 14 36 12 36 -6z"/>
<path d="M2126 3421 c-4 -5 -2 -12 3 -15 5 -4 12 -2 15 3 4 5 2 12 -3 15 -5 4
-12 2 -15 -3z"/>
<path d="M6018 3265 c-3 -3 -66 -8 -139 -9 -199 -6 -268 -29 -381 -127 -56
-50 -72 -59 -104 -59 -25 0 -46 7 -60 21 l-23 21 -20 -33 c-27 -44 -26 -53 12
-124 25 -48 43 -67 87 -93 53 -32 58 -33 130 -28 236 19 246 19 301 2 30 -10
68 -24 84 -31 31 -13 109 -32 157 -37 45 -5 103 40 128 99 19 46 102 143 122
143 14 0 8 -37 -8 -51 -14 -12 -14 -14 5 -21 11 -4 27 -22 35 -41 9 -23 23
-37 42 -41 57 -15 110 57 124 169 5 33 13 72 18 87 27 66 9 186 -19 136 -16
-28 -50 -42 -114 -45 -90 -5 -117 -3 -131 8 -29 24 -141 59 -189 59 -29 0 -54
-2 -57 -5z"/>
<path d="M1780 3099 c7 -11 14 -19 16 -16 7 7 -7 37 -17 37 -6 0 -5 -9 1 -21z"/>
<path d="M3990 3030 c-9 -17 -8 -20 14 -20 13 0 26 6 29 14 12 31 -27 36 -43
6z"/>
<path d="M4112 3017 c-26 -27 -27 -40 -7 -57 8 -7 15 -26 15 -42 0 -23 4 -29
18 -26 13 2 18 15 20 53 2 31 9 55 18 62 9 6 13 16 9 22 -11 19 -51 12 -73
-12z"/>
<path d="M3858 3013 c7 -3 16 -2 19 1 4 3 -2 6 -13 5 -11 0 -14 -3 -6 -6z"/>
<path d="M2304 2978 c4 -18 9 -47 13 -65 3 -18 11 -38 19 -44 15 -12 19 -39 6
-39 -4 0 -13 5 -18 10 -8 8 -15 6 -23 -4 -15 -18 -7 -36 16 -36 9 0 25 -7 35
-17 24 -22 34 -10 14 18 -14 21 -14 24 1 41 19 21 13 61 -19 125 -26 53 -54
59 -44 11z"/>
<path d="M3922 2986 c1 -10 8 -17 13 -17 15 1 12 24 -3 29 -9 3 -13 -2 -10
-12z"/>
<path d="M3866 2941 c-3 -5 1 -15 10 -22 13 -10 17 -10 25 2 5 8 9 17 9 22 0
10 -38 9 -44 -2z"/>
<path d="M3979 2943 c-1 -5 -1 -15 0 -24 2 -19 -42 -44 -64 -35 -9 3 -26 1
-37 -5 -20 -11 -20 -11 1 -33 12 -12 18 -26 14 -29 -3 -4 -32 -7 -64 -7 -58 0
-109 -13 -109 -27 0 -5 19 -16 43 -26 45 -20 45 -21 -25 -47 -18 -6 -28 -17
-28 -30 0 -11 -4 -20 -10 -20 -5 0 -10 -4 -10 -9 0 -6 12 -9 28 -8 21 2 26 -2
24 -16 -2 -9 4 -20 13 -23 21 -9 19 -41 -5 -54 -11 -6 -20 -19 -20 -30 0 -11
9 -24 20 -30 24 -13 26 -35 5 -44 -28 -10 -15 -34 28 -51 47 -17 92 -15 92 5
0 9 -16 14 -50 14 -39 1 -50 5 -53 19 -2 12 3 17 17 17 12 0 29 8 39 18 21 21
39 18 69 -14 13 -15 19 -31 16 -44 -4 -16 -1 -20 17 -20 23 0 23 -8 5 -52 -10
-25 25 -28 58 -4 19 14 30 17 38 9 8 -8 4 -15 -12 -27 -19 -13 -21 -19 -11
-40 13 -28 7 -36 -25 -36 -29 0 -29 -7 1 -35 13 -12 25 -28 28 -36 4 -12 10
-11 36 4 16 9 46 17 66 17 23 0 39 5 42 15 8 19 31 19 66 1 26 -14 51 -5 28 9
-5 3 -10 26 -10 50 0 39 4 47 36 71 33 26 35 29 18 41 -10 7 -33 13 -52 13
-34 0 -35 0 -17 20 10 11 29 20 43 20 17 0 23 4 18 15 -3 9 1 36 10 60 14 44
12 71 -6 60 -10 -6 -21 9 -36 51 -8 23 -7 33 3 43 25 23 3 34 -60 28 -39 -3
-65 -11 -73 -21 -18 -25 -104 -17 -104 9 0 7 -7 18 -16 26 -13 11 -8 16 43 40
32 15 61 25 65 22 18 -10 6 -32 -23 -42 -38 -13 -33 -35 9 -39 23 -2 32 1 32
11 0 8 10 21 23 30 21 14 21 15 4 34 -9 11 -16 31 -15 44 3 21 0 24 -27 21
-16 -2 -38 -11 -47 -19 -18 -16 -54 -10 -43 7 4 6 11 8 16 5 5 -4 9 0 9 7 0 7
-10 18 -22 23 -35 16 -46 44 -24 60 10 8 24 16 30 19 7 3 6 8 -4 15 -17 12
-49 15 -51 4z m-31 -201 c2 -7 -6 -12 -17 -12 -21 0 -27 11 -14 24 9 9 26 2
31 -12z m-63 -61 c8 -14 -32 -33 -55 -26 -16 5 -17 9 -7 20 14 16 53 20 62 6z
m83 -13 c-3 -7 -17 -13 -33 -13 -16 0 -30 6 -32 13 -3 8 7 12 32 12 25 0 35
-4 33 -12z m-148 -53 c0 -8 -9 -15 -20 -15 -11 0 -20 7 -20 15 0 8 9 15 20 15
11 0 20 -7 20 -15z m346 -23 c-9 -9 -37 8 -31 18 5 8 11 7 21 -1 8 -6 12 -14
10 -17z m-228 7 c37 -13 34 -22 -12 -44 -25 -12 -39 -13 -60 -5 -23 9 -26 13
-16 25 7 8 19 15 26 15 8 0 14 5 14 10 0 13 10 13 48 -1z m262 -50 c0 -5 -4
-9 -10 -9 -5 0 -10 7 -10 16 0 8 5 12 10 9 6 -3 10 -10 10 -16z m-362 -27 c4
-28 -24 -40 -45 -19 -21 21 -9 49 19 45 15 -2 24 -11 26 -26z m186 -27 c3 -9
-4 -21 -19 -31 -14 -9 -25 -25 -25 -36 0 -15 -4 -18 -22 -12 -32 9 -33 11 -14
29 9 9 14 21 10 26 -9 15 16 39 41 39 13 0 25 -7 29 -15z m96 -211 c0 -8 -4
-12 -10 -9 -5 3 -10 10 -10 16 0 5 5 9 10 9 6 0 10 -7 10 -16z m70 -30 c0 -9
-7 -14 -17 -12 -25 5 -28 28 -4 28 12 0 21 -6 21 -16z"/>
<path d="M1967 2856 c9 -20 28 -39 42 -44 72 -25 100 -32 115 -26 9 3 16 2 16
-3 0 -14 97 -44 116 -36 8 3 14 13 12 22 -2 12 -20 18 -71 24 -64 7 -208 64
-223 88 -3 5 -9 9 -14 9 -6 0 -2 -15 7 -34z"/>
<path d="M3775 2880 c-10 -16 14 -40 40 -40 13 0 25 7 29 15 9 25 -55 48 -69
25z"/>
<path d="M2270 2702 c0 -21 4 -52 10 -68 9 -29 24 -142 42 -324 5 -52 10 -230
12 -395 3 -454 17 -1025 26 -1070 10 -54 10 910 0 1250 -9 291 -19 410 -48
549 -19 95 -42 127 -42 58z"/>
<path d="M3680 2563 c0 -16 -3 -39 -7 -52 -4 -17 -2 -22 7 -19 17 5 32 56 24
81 -8 27 -24 20 -24 -10z"/>
<path d="M7265 2570 c3 -5 8 -10 11 -10 2 0 4 5 4 10 0 6 -5 10 -11 10 -5 0
-7 -4 -4 -10z"/>
<path d="M3674 2435 c-8 -19 2 -45 16 -45 5 0 10 14 10 30 0 31 -16 41 -26 15z"/>
<path d="M3885 2387 c-4 -10 -5 -21 -1 -24 10 -10 18 4 13 24 -4 17 -4 17 -12
0z"/>
<path d="M3808 2323 c6 -2 18 -2 25 0 6 3 1 5 -13 5 -14 0 -19 -2 -12 -5z"/>
<path d="M6190 2284 c-89 -27 -117 -29 -190 -9 -33 9 -91 15 -145 14 -80 -2
-97 -6 -159 -36 -38 -19 -100 -42 -138 -53 -37 -10 -96 -32 -130 -49 -35 -16
-106 -46 -158 -66 -52 -20 -117 -44 -145 -55 -57 -22 -158 -40 -226 -40 -41 0
-46 2 -45 23 1 20 -3 22 -51 19 -28 -1 -54 2 -58 8 -3 5 -1 10 5 10 7 0 26 6
43 14 18 8 41 16 51 18 22 4 44 34 32 45 -4 4 -16 -2 -26 -15 -19 -23 -20 -23
-65 -8 -25 9 -52 16 -60 16 -20 0 -35 -32 -28 -60 5 -19 3 -22 -11 -17 -10 4
-27 0 -39 -8 -12 -8 -32 -15 -44 -15 -28 0 -63 -18 -81 -42 -7 -10 -19 -18
-26 -18 -34 0 -73 -96 -52 -126 10 -13 22 -15 57 -11 163 21 157 21 197 -6 21
-13 63 -37 92 -52 30 -15 65 -40 78 -56 13 -16 29 -29 35 -29 19 0 67 -46 67
-64 0 -10 4 -15 9 -12 10 6 51 -57 51 -78 0 -8 7 -19 16 -27 13 -10 20 -10 44
4 36 22 56 21 72 -1 18 -26 51 -42 86 -42 16 0 49 -7 73 -16 54 -19 70 -20
299 -29 176 -7 190 -6 285 17 66 16 119 23 155 21 89 -7 100 -6 118 9 9 8 46
20 82 27 46 9 74 21 95 41 17 15 40 31 52 34 26 8 83 71 83 91 0 8 7 18 15 22
8 5 30 31 49 58 49 68 142 161 177 175 22 9 40 10 73 1 72 -18 133 -14 157 10
11 11 18 27 15 36 -3 8 -6 19 -6 24 0 13 -86 49 -116 49 -13 0 -33 -5 -43 -12
-29 -18 -94 8 -160 63 -31 25 -72 57 -92 70 -20 13 -61 41 -92 61 -31 21 -62
47 -70 58 -15 22 -67 41 -107 39 -14 -1 -59 -12 -100 -25z"/>
<path d="M3808 2223 c7 -3 16 -2 19 1 4 3 -2 6 -13 5 -11 0 -14 -3 -6 -6z"/>
<path d="M4180 2150 c0 -5 5 -10 10 -10 6 0 10 5 10 10 0 6 -4 10 -10 10 -5 0
-10 -4 -10 -10z"/>
<path d="M4015 1990 c-3 -5 -1 -10 4 -10 6 0 11 5 11 10 0 6 -2 10 -4 10 -3 0
-8 -4 -11 -10z"/>
<path d="M4130 1859 c0 -5 5 -7 10 -4 6 3 10 8 10 11 0 2 -4 4 -10 4 -5 0 -10
-5 -10 -11z"/>
<path d="M3473 1793 c-20 -8 -15 -23 7 -23 11 0 20 7 20 15 0 15 -6 17 -27 8z"/>
<path d="M3270 1781 c0 -10 30 -24 37 -17 3 3 2 9 -2 15 -8 13 -35 15 -35 2z"/>
<path d="M3890 1780 c0 -5 5 -10 10 -10 6 0 10 5 10 10 0 6 -4 10 -10 10 -5 0
-10 -4 -10 -10z"/>
<path d="M2680 1741 c0 -12 5 -21 10 -21 6 0 10 6 10 14 0 8 -4 18 -10 21 -5
3 -10 -3 -10 -14z"/>
<path d="M6777 1363 c-10 -9 -9 -23 2 -23 5 0 11 7 15 15 5 15 -5 20 -17 8z"/>
<path d="M6615 920 c-3 -5 -1 -10 4 -10 6 0 11 5 11 10 0 6 -2 10 -4 10 -3 0
-8 -4 -11 -10z"/>
<path d="M2357 755 c-4 -8 -2 -17 3 -20 6 -4 10 3 10 14 0 25 -6 27 -13 6z"/>
<path d="M5335 760 c-4 -6 -3 -16 3 -22 6 -6 12 -6 17 2 4 6 3 16 -3 22 -6 6
-12 6 -17 -2z"/>
<path d="M5100 730 c0 -5 5 -10 10 -10 6 0 10 5 10 10 0 6 -4 10 -10 10 -5 0
-10 -4 -10 -10z"/>
<path d="M2348 674 c-5 -4 -7 -152 -7 -328 1 -227 4 -305 10 -267 11 64 7 606
-3 595z"/>
</g>
</svg>
