<svg enable-background="new 0 0 512 512" viewBox="0 0 512 512" xmlns="http://www.w3.org/2000/svg"><path d="m-22.55-18.05h551.8v551.8h-551.8z" fill="#e6007a"/><path d="m447.6 135.45c1.05-7.57.77-15.97.77-25.15 0-36.82-41.59-97.5-81.52-97.5-19.14 0-37.76 17.06-51.78 37.34-20.31-4.23-41.73-6.34-63.76-6.34-20.05 0-39.33 1.74-57.56 5.25-12.48-20.93-29.78-38.91-49.67-38.91-39.92 0-81.34 63.35-81.34 100.16 0 9.32-1 17.84-.67 25.5-2.35 4.1-4.54 8.34-6.57 12.71-2.4 6.61-5.04 13.02-7.69 19.54-.33 1.01-.65 2.03-.97 3.05-.2 1.04-.36 2.1-.75 3.01-.12.23-.23.47-.35.7-1.75 6.12-3.24 12.46-4.44 19.02-1.47 12.09-2.89 23.76-3.62 35.67-.06 2.36-.1 4.75-.1 7.15v4.29c.03 70.5 1.65 131.09 81.9 159.74v56.58c0 21.5 18.33 38.93 40.95 38.93s40.95-17.43 40.95-38.93v-40.94c4.42.35 9 .65 13.65.91v40.03c0 21.5 18.33 38.93 40.95 38.93s40.95-17.43 40.95-38.93v-40.03c4.67-.27 9.23-.56 13.65-.91v40.94c0 21.5 18.35 38.93 40.95 38.93 18.01 0 33.3-11.05 38.79-26.41.33-.93.63-1.87.89-2.83.55-3.25.97-6.47 1.28-9.69v-56.58c.24-.09.48-.17.72-.26 81.15-29.33 81.18-91.64 81.18-163.76.01-40.06-9.75-73.76-26.79-101.21zm-292.31 118.83c-31.64 0-57.09-15.02-57.09-47.36s25.45-67.55 57.09-67.55 57.49 35.21 57.49 67.55c0 42.37-25.85 47.36-57.49 47.36zm119.97 98.77c-9.49 0-17.48-6.12-20.46-14.61-.44.01-.86.1-1.31.1s-.87-.09-1.31-.1c-2.96 8.49-10.95 14.61-20.46 14.61-12.03 0-21.76-9.75-21.76-21.76 0-9.98 6.75-18.31 15.92-20.86 3.64-8.89 14.55-15.41 27.61-15.41s23.95 6.51 27.61 15.41c9.15 2.57 15.92 10.88 15.92 20.86 0 12.01-9.75 21.76-21.76 21.76zm114.66 117.31c-.49.64-1.08 1.28-1.61 1.82.53-.54 1.12-1.18 1.61-1.82.07-.09.14-.18.2-.28-.06.1-.13.19-.2.28zm-39.46-220.08c-30.66 0-55.33-14.56-55.33-45.89s24.66-65.46 55.33-65.46c30.66 0 55.71 34.12 55.71 65.46 0 41.05-25.05 45.89-55.71 45.89z" fill="#0b0b0b"/><path d="m47.22 170.2c-.38 1.23-.74 2.46-1.1 3.71.11-.23.23-.47.35-.7.38-.91.55-1.97.75-3.01z" fill="#0b0b0b"/><path d="m350.64 126.76c-37.49 0-67.65 41.72-67.65 80.03 0 38.32 30.16 56.11 67.65 56.11s68.12-5.92 68.12-56.11c0-38.31-30.63-80.03-68.12-80.03zm-.18 123.52c-30.66 0-55.33-14.56-55.33-45.89s24.66-65.46 55.33-65.46c30.66 0 55.71 34.12 55.71 65.46 0 41.05-25.05 45.89-55.71 45.89z" fill="#fff"/><path d="m155.25 126.76c-37.49 0-67.65 41.72-67.65 80.03 0 38.32 30.16 56.11 67.65 56.11s68.12-5.92 68.12-56.11c0-38.31-30.63-80.03-68.12-80.03zm.04 127.52c-31.64 0-57.09-15.02-57.09-47.36s25.45-67.55 57.09-67.55 57.49 35.21 57.49 67.55c0 42.37-25.85 47.36-57.49 47.36z" fill="#fff"/><path d="m452.69 468.86s-3 0-3-3v-20.98s0-3 3-3h19.48c.75 0 1.5.75 1.5.75l2.25 2.25s.75.75.75 1.5v19.48s0 3-3 3z" fill="#31383e"/><path d="m453.44 456.13v-.75s0-1.5 1.5-1.5h15.73c1.5 0 1.5 1.5 1.5 1.5v.75z" fill="#5fa8dc"/><path d="m453.44 465.88v-9.76h18.73v9.74s0 1.5-1.5 1.5h-15.73c-1.5 0-1.5-1.48-1.5-1.48zm3.75-21.74s0-.75.75-.75h13.49c.79 0 .75.75.75.75v7.49s0 .75-.75.75h-13.49s-.75 0-.75-.75zm8.99 7.49h3.75v-7.49h-3.75z" fill="#e0e7ed"/><path d="m462.95 456.72c-2.73 0-4.94 2.21-4.94 4.94s2.21 4.94 4.94 4.94 4.94-2.21 4.94-4.94-2.21-4.94-4.94-4.94zm0 8.23c-1.82 0-3.29-1.47-3.29-3.29s1.47-3.29 3.29-3.29 3.29 1.47 3.29 3.29-1.47 3.29-3.29 3.29z" fill="#ed3276"/><text fill="#d3edf6" font-family="'ComicSansMS-Bold'" font-size="2.4284" transform="matrix(1.1103 0 0 1 459.5551 455.9004)">2020</text><path d="m280.96 310.2c-3.66-8.89-14.55-15.41-27.61-15.41s-23.97 6.51-27.61 15.41c-9.17 2.55-15.92 10.88-15.92 20.86 0 12.01 9.73 21.76 21.76 21.76 9.5 0 17.5-6.12 20.46-14.61.44.01.86.1 1.31.1s.87-.09 1.31-.1c2.97 8.49 10.97 14.61 20.46 14.61 12.01 0 21.76-9.75 21.76-21.76 0-9.98-6.76-18.3-15.92-20.86z" fill="none" stroke="#fff" stroke-width="8"/><path d="m199.4 209.41c-1.15-.91-2.53-2.15-5.03-2.46-2.35-.31-4.75 1.26-6.37 2.31-1.62 1.04-4.68 4.1-5.94 5.03s-4.5 1.8-9.71 4.92c-5.21 3.13-25.66 16.26-25.66 16.26l5.32.07-23.73 12.22h2.37l-3.42 2.59s3.02.8 5.54-.8v.73s28.25-11.13 33.71-8.25l-3.33.98c.29 0 5.66.35 5.66.35.26 2.25 1.52 4.27 3.42 5.5 3.24 2.13 3.3 3.3 3.3 3.3s-1.69.69-1.69 1.55c0 0 2.48-.75 4.79-.69 1.46.06 2.92.29 4.32.69 0 0-.18-.93-2.42-1.55s-4.46-3.06-5.54-4.39c-1.35-1.72-1.7-4.03-.91-6.08.78-2.02 3.48-3.13 9.07-6.01 6.59-3.42 8.09-5.94 9.03-7.92.93-1.97 2.31-5.9 3.08-7.74.98-2.37 2.17-3.64 3.17-4.39s5.43-2.42 5.43-2.42-3.37-2.93-4.46-3.8z" fill="#fff"/></svg>