<svg enable-background="new 0 0 2160 2160" viewBox="0 0 2160 2160" xmlns="http://www.w3.org/2000/svg"><path d="m-29.48-33.73h2213.64v2213.64h-2213.64z" stroke="#231f20" stroke-miterlimit="10"/><text fill="#fff" font-family="'AvenirNext-Bold'" font-size="401.746" transform="matrix(1.1902 0 0 1 71.7794 472.4382)">KISS ALL</text><text fill="#fff" font-family="'AvenirNext-Bold'" font-size="477.454" transform="matrix(1.0537 0 0 1 70.0176 1978.6089)">ARTISTS</text><path d="m1503.62 743.99c-65.09-10.54-221.6-116.04-334.13-80.88s-103.72 63.31-160 80.91-65.06-10.54-177.59 24.63c-112.5 35.17-181.08 211-228.54 256.74 0 0-46.94 47.47-29.9 101.99 17.07 54.49 73.88 38.65 73.88 38.65 196.95-61.55 263.74-144.21 263.74-144.21s101.96 29.9 186.35 3.51c84.39-26.38 151.21-109.05 151.21-109.05s102.02 29.9 298.94-31.65c0 0 55.69-19.36 38.65-73.85-17.08-54.52-82.61-66.79-82.61-66.79zm-31.68 195.19c-168.78 52.74-133.58 165.27-330.53 226.85-196.95 61.55-232.12-50.95-400.9 1.79-56.25 17.6-75.61 54.49-66.79 82.69 26.35 84.36 246.17 293.55 555.65 196.86 309.45-96.72 371-393.9 344.62-478.26-8.82-28.2-45.8-47.53-102.05-29.93z" fill="#fcfafa"/><g opacity=".24"><path d="m2053.82 2091.16s-4.4 0-4.4-4.4v-30.83s0-4.4 4.4-4.4h28.63c1.1 0 2.2 1.1 2.2 1.1l3.3 3.3s1.1 1.1 1.1 2.2v28.63s0 4.4-4.4 4.4z" fill="#32393f"/><path d="m2054.92 2072.44v-1.1s0-2.2 2.2-2.2h23.12c2.2 0 2.2 2.2 2.2 2.2v1.1z" fill="#60a6db"/><path d="m2054.92 2086.78v-14.34h27.53v14.32s0 2.2-2.2 2.2h-23.12c-2.21 0-2.21-2.18-2.21-2.18zm5.51-31.95s0-1.1 1.1-1.1h19.82c1.15 0 1.1 1.1 1.1 1.1v11.01s0 1.1-1.1 1.1h-19.82s-1.1 0-1.1-1.1zm13.21 11.01h5.51v-11.01h-5.51z" fill="#dfe6ec"/><path d="m2068.9 2073.33c-4.01 0-7.26 3.25-7.26 7.26s3.25 7.26 7.26 7.26 7.25-3.25 7.25-7.26c0-4.02-3.24-7.26-7.25-7.26zm0 12.09c-2.67 0-4.84-2.17-4.84-4.84s2.17-4.84 4.84-4.84 4.84 2.17 4.84 4.84c-.01 2.67-2.17 4.84-4.84 4.84z" fill="#ed3577"/><text fill="#d2edf6" font-family="'ComicSansMS-Bold'" font-size="3.5686" transform="matrix(1.1103 0 0 1 2063.9089 2072.1128)">2020</text><g fill="#fcfafa"><path d="m2052.13 2036.81c1.45-.09-.78-.3.95-.14-.2.14-.48.25-.95.14z"/><path d="m2135.26 1992.1c-.22 1.19-.69 2.37-1.19 3.61-.56 1.21-1.17 2.46-1.86 3.67-1.37 2.44-2.9 4.84-4.08 7.18-.3.53-.33-.4-.97.81-2.16 4.6-7.35 10.73-11.91 14.81l.15-.37c-.87.77-1.47 2.16-2.38 2.99-.07-.06.18-.37-.11-.26-.01.42-1.47 1.68-1.69 2.2-.42.27-.54.08-1.08.42l-.29.72c-.88 1.93-3.51 3.23-5.3 5.24.05-.14.22-.36.01-.27-2.97 3.15-7.38 6.32-11.43 8.95.11-.2.15-.46-.16-.43-.03.41-1.26 1.26-2.36 1.95-.69-.05-1.81 1.34-3.27 1.83l.09-.12c-.87.8-1.6.51-2.25 1.29-.25.02-.51.04-.77.04-.27.64-1.61.36-2.38.94l.06.08c-.77.45-1.3.32-2.05.66l-.09-.03c-1.77.75-2.93.71-2.78 1.07-.73-.13 1.76-.59.62-.76-2.95 1.04-6.09 1.64-9.27 1.9-3.19.19-6.4-.1-9.5-.73-.66-.33-1.09-.5-1.2-.68-.31-.04-.89-.18-1.46-.3-.56-.16-1.1-.39-1.41-.41.2.07-.3-.32-.56-.53-.89-.71-1.32-.25-2.23-1.19.47.23.67.23.62.01-.51-.2-1.07-.51-1.55-.96-.25-.22-.5-.43-.75-.65-.23-.24-.46-.48-.68-.7.18.11.41.32.47.2-.57-.42-1-.9-1.3-1.44-.32-.52-.63-1.02-1-1.51l.41.28c-.36-.91-.53-.98-.7-1.02s-.36-.03-.62-.85c.23.35.25.18.36.2-1.11-1.24-1.69-3.82-1.99-5.38.04.09.1.06.1.06-.32-1.72-.12-3.55.04-5.46.26-.66.45.31.81-1.45-.22-.03-.02-.78.13-1.42.2-.62.39-1.12-.08-.73.19-.35.4-.76.63-1.18.25-.41.55-.82.81-1.23.13-.2.26-.4.39-.59.15-.17.3-.34.43-.5.27-.32.49-.6.64-.83-.35.65.88-.19.07.81.29-.17.52-.39.85-.5-.01.19-.7.67-.35.59.36-.49 1.69-1.76 2.25-1.93.21-.2.42-.43.64-.65.24-.19.49-.39.76-.6.55-.45 1.26-.78 2.21-1.06-.85.41.62.34.03.58.39-.28.82-.45 1.24-.68.43-.22.86-.45 1.31-.61.66-.08.17.34 1.11.14-.06-.11.35-.23.64-.32.13.02.81-.01 1.5 0 .69.02 1.37.14 1.5.36.28.18-1.06.05-.35.24 1.19.03 1.25-.1 2.45-.01l.02.06c.78.12 2.33.07 1.51-.28-.55-.08.18.29-.62.07.58-.19 1.98-.11 3.16.06-.41.01-.38.14-.56.24 1.64-.13 3.33.03 5.11.15.06-.2-.71.27-.96.13 2.19.56 4.82.42 6.58 1.36-.31-.05-.09-.33-.08-.27 1.07.33.94.61 1.67.7.02.18.9.19 1.62.4.41 0 .16.15-.47-.05.51.11 1.8.4 3.2.88 1.39.5 2.94 1.1 3.97 1.76 0-.13 1.54.24 2.04.5l-.32.15c.38.37 1.66.86 1.63 1.11.6.14-.44-.35-1.44-.79-1.02-.41-2-.75-1.22-.53.14.19.69.33 1.15.45.45.14.81.25.57.33.98.53 2.11.74 2.89 1.53-.24-.2-.96-.15-.19.31 1.37.79.45.12 1.59.73l.75.33c.2-.22 1.15.84.84.25.03.3 1.98 1.25 1.58 1.51l-.39.15c.57.37 1.14.35 1.65.59.05.08.15.25.09.28.42-.34 1.24 1.08 2.15 1.3.48.56 1.13 1.22 1.72 1.81.29.3.56.58.77.83.19.27.34.51.39.69.43.36.85.71 1.26 1.09s.81.8 1.13 1.37c-.19-.18-.41-.45-.54-.43.35.74.58.81 1.09 1.36-.18-.07.75 1.44.99 2.34.7.86.76.39.96.4.02.58.54 1.19.98 1.89.43.7.89 1.45.94 2.13-.23-.33-.92-1.37-.65-.48-.03.57.29.98.63 1.47.31.51.69 1.09.83 1.91l.28-.52c-.01.39.25.95.45 1.41.21.46.27.84.05.81.27.5.28 1.94.66 1.67.17 1.37.39 2.97.61 4.46.11 1.5.23 2.88-.17 3.72.08.38.02 1.34.24 1.14.23-.64-.19-.89-.03-1.13.02.35.14.42.2.45-.08.84-.1 1.49-.47.71-.1.92.04 1.4.21 1.95.15.55.39 1.18.16 2.36-.16-.12-.25.05-.3.74.05.45.11.9.14 1.35-.35 1.52-.56.8-.86.78-.09.81-.29 1.79-.19 2.2l-.61.87c.44-.63.02.7-.04 1.09.02-.13.04-.26.04-.39-.15.11-.39 1.02-.5 1.49.21-.05.61-.94.8-1.44.02.44-.24 1.05-.27 1.64-.21-.27-.62 1.21-.93 1.79-.35.67-.09.89-.19 1.09-.13-.03-.55 1.1-.49.49.08-.24.38-.47.42-.92-.31.41-.49.26-.79 1.25-.22.75.61.08-.23 1.31.11-.38.04-.5.08-.81-.26.38-.49.78-.77 1.14l.2.18c-.16.13-.11 0-.18.06.02.49-1 1.86-.95 2.27-.39.59-.99 1.11-1.43 1.61l.06-.11c-.65.53-1.21 1.45-1.56 2.06l-.02-.06c-.32.31-1 1.11-1.28 1.62-.96.63-.97-.47-1.64.61-.81.77-1.03 1.51-.56 1.36-1.64 1.22-3.34 2.86-5.16 3.52-.2.24 0 .2-.5.56-2.62 1.43-5.53 3.16-7.95 3.46.76-.41-.04-.27-.11-.41-.59.46-.88.03-.99.51.14.21.11.34.94.17-1.64.71-4.25 1.47-5.26 1.45.5 0 .15.16-.21.31.03-.42-1.24-.14-2.19.16l-.09.26-.68-.12c-.36.14-.32.58-1.33.51-.07-.08-.14-.17-.33-.21-.49.17-1.08.38-1.69.55-.61.15-1.25.24-1.81.2-.31-.09-.62-.16-.93-.25-.47.07-1.25.32-.41.37-1.91-.07-3.12-.09-3.72-.37-1.61.4-3.62.52-5.69.48-2.08-.06-4.21-.35-6.08-.71l.14-.15c-.98-.34-.58.21-1.26-.04.35-.1-.69-.52.13-.55-1.38-.47-1.9-.09-2.84-.24-.2.19.78.04.53.28-.18.05-1.92-.66-2.23-.4-.32-.23.03-.4.25-.49l-.9-.07c-.93-.68 2.58-.05 1.61-.84l-.79-.16c-.64-.55 2.15.16.25-.49-.89-.05-1.75.19-1.04.57-1.78-.46-1.07.57-2.95-.11-.45-.37 1.53.47 1.26.07-.8-.57-1.83-.45-2.58-.85.82.45-.03.51-.63.35-.89-.52.74-.06-.6-.63-.29.1-1.59-.28-.57.3-.67.22-1.35-.7-2.21-.72-.29-.49 1.67-.05.29-.86.1.41-1.95-.47-1.4.31-.53-.36-.47-.61.02-.57-.71-.55-2.19-.51-2.15-1.2l-.43.13c-.2-.22-.5-.51-.8-.89-.68-.39-2.38-1.02-2.05-1.37-.24-.09-1.69-1.18-1.32-.5.8.84 1.19.56 1.47 1.28-.47-.73-1.37-.89-1.98-1.18l.02-.21c-.36-.17-1.04-.78-1.36-.77.3.11.26-.09.04-.32l-.5-.04c-1.3-.96.03-.62-1.18-1.59.34.22.68.41 1.02.62-.22-.14-.46-.66-1.04-1.11-.38-.01-.99-.17-1.31-.2-.71-.55-.07-.48-.86-.94.34.21.66.42 1 .61.17.07-.22-.85-1.01-1.69-.54-.5-1.58-1.17-.92-.17-.39-.46-.79-1.19-.35-.95-.88-1.01-.11.32-.94-.52-.17-.47-.8-1.84-1.06-2.72l1.01.76-.43-.66c.84.66-.06-.57.56-.29-.25-.46-.65-.96-.99-1.36.13.82-.25.54-.71.13s-.93-1-1.07-.67c-.57-.96-.39-1.42-.31-1.84.1-.43.05-.78-.69-1.72-.01.4-.74-.49-.15.78-.37-1.32-.85-.71-1.08-2.36.52 1.1.19-1.38.94.2-.22-.06.15.95.29 1.18.02-.59.52-.06.13-1.36-.27-.79-.56-1.89-.78-1.67-.31.1.35 1.24-.09.79-.48-1.63-.06-1.99-.71-2.59.21 1.05-.02 1.37-.23 1.39-.12-.41-.26-.81-.36-1.23l.23.21c-.11-2.03-.47-.54-.61-2.51l.34-.94c.19.22.18.93.23 1.53.06.6.15 1.1.4.89-.15-1.24-.43-1.64-.36-2.83.06.26.1.62.17.87 0-.46.67-.92.26-2.65-.16-.9-.2-.24-.41-.26-.09-1.97-.18-2.59-.11-3.88.36.3.27-2.26.53-.8-.29.61-.55 3.51-.09 4.2.49-.71-.07 1.54.41 1.95.02-1.56.49-1.48.81-1.72.02-.42-.11-.84-.15-1.1-.29-.19-.29.37-.59.39.01-.87.13-1.72.11-2.48.01-.76-.08-1.44-.11-1.94.24-.56.5-.33.41.35.15-1.03.29-2.1.53-3.13.31-1.02.56-2.05.95-2.96-.92 1.05.7-2.12.01-1.44-.49.96-1.15 1.74-1.14 1.1.28-.64.19.09.39-.14.07-.91.88-1.11.81-2.06-.57 1.89.4.58.62 1.06.32-1.35.18.14.76-1.08.22-.65.48-1.36.78-2.1.36-.7.77-1.4 1.16-2.06.32-.36.75-.72 1.12-1.15.4-.41.75-.91 1.17-1.33.86-.82 1.62-1.75 2.35-2.21.85-.37.6.33 1.42-.17.92-.65-.95.08.55-.68l-.1.15c.41-.33 2.77-1.25 3.02-1.92l-.29.62c.3-.08.52-.29.74-.43.07.13.45.12.03.4.53-.05 1.01-.26 1.49-.51.5-.21 1-.45 1.53-.61l-.76-.06c1.76-.8 3.09-.72 4.87-1.14l-.02.27 1.06-.26c-.23.28.76.36 1.32.09-.92.32-1.83.56-2.7.94-.78-.01.78-.47.27-.64-.44-.15-2.1.23-2.31.53.64-.09.65-.15 1.13-.34.27.33-.68.49-1.1.82.32-.08.81-.05.85-.18-.6.3-1.24.41-2.26.75.66-.34-.44-.11-.21-.29 0 .17-.23.35-.63.52-.2.09-.44.17-.71.25-.27.1-.55.21-.87.32-.51 0-1.06.3-1.66.65-.57.42-1.17.9-1.86 1.22.37-.57.94-1.21 1.73-1.77-.95.3-.96.53-1.91.86-.13.23-.26.44-.43.73-.17.3-.42.64-.88 1.06l-.2-.16c-.87.75-.62 1.05-1.71 1.96l-.71.59c-.21.22-.42.45-.62.67-.4.46-.83.89-1.19 1.36-.65.98-1.35 1.84-1.74 2.7l-.25-.05c-.08 1.14-1.32 3.26-1.49 4.7-.21.56-.4 1.16-.56 1.76s-.2 1.23-.3 1.8c-.09.57-.18 1.11-.25 1.58-.06.47-.14.88-.27 1.18-.13 4.3.13 8.05 1.34 12.23-.2-.19-.37-.4-.55-.61.45.69-.05.55.24 1.28-.01-.94.67.91 1.11 1.31.46 1.92 1.99 3.99 3.18 5.21l-.16.2c1.36 1.14 2.39 2.95 3.95 4.51.1.25.26.68.77 1.09.57.25.98.46 1.44.72.45.27.95.58 1.73.99 1.02.74 2.7 1.93 3.77 2.67 4.43 1.83 8.92 3.87 13.86 4.68l.29.36c2.43.23 5.07.63 7.66.87 2.59.22 5.12.35 7.17.11l-.38.5c1.31.14 2.95-.29 2.59-.6 1.31.06 3.18-.53 4.05-.27 1.33-.09 1.57-.46 2.63-.73 2.62-.33 3.57-.63 5.91-1.43l-.59.16c-.23.17-.19.39.41.23.42-.21 1.24-.45 1.83-.66.58-.24.91-.45.38-.56 2.63-.57 5.52-2.64 7.89-3.59-.26-.02.26-.39.42-.63 1.91-1.22 4.02-2.47 5.13-3.93.32-.19-.24.59.45-.03.36-.42-.14-.16.29-.68 2.33-2.79 4.98-5.53 6.3-8.64 1.1-2.76 1.89-5.69 2.32-8.67.44-2.98.47-6 .2-8.87l.12.06c-.16-.47-.21-.99-.26-1.53-.07-.54-.09-1.1-.13-1.65-.03-1.11-.25-2.11-.73-2.78.01-.46-.31-1.68-.03-1.42-.37-.68-.66-1.69-.96-2.8-.35-1.09-.88-2.22-1.5-3.12.07.19.14.28.29.47-.15-.54-.42-1.01-.69-1.47s-.55-.91-.83-1.36c-.56-.91-1.29-1.71-1.88-2.75.18.16.47.49.61.48-.34-.91-1.73-1.39-1.64-2.12-.35-.39-.46-.09-.24.14-1.58-2.07-3.68-3.82-5.84-5.48-2.25-1.56-4.6-3.02-7.05-4.22-1.63-1.09-1.6-1.3-1.5-1.41s.26-.09-1.25-.56c-.19-.21-.26.12-.25-.01-1.14-.38-1.46-1.36-2.36-1.39.19.45-.59-.03-.69.16-1.07-.57-1.71-.93-2.32-1.21s-1.17-.51-2.12-.66l.19-.14c-2.32-.15-4.7-1.07-6.65-.78-3.1-.42-6.2-.92-9.17-1.13s-5.91-.19-8.54.41c-2.59.67-4.77 1.91-6.08 3.95-.29.56-.67 1.03-.91 1.67l-.41.9c-.12.3-.2.62-.3.92-.42 1.23-.57 2.53-.65 3.83-.08 2.58.5 5.23 1.71 7.54 1.23 2.29 2.95 4.35 5.12 5.63l.81.48.81.36.4.19.5.13.99.26c1.29.41 2.72.56 4.1.83 2.81.29 5.67.35 8.57.05 2.77.03 3.02.02 5.91-.94-.1.11-.28.17-.06.19.05-.38 2.05-.66 2.21-1.11 4.17-1.31 7.82-3.16 11.75-5.46-.6.4-.75.87-.02.41l.65-.67.18.02c.48-.35.92-.84.34-.64 4.78-3.13 9.35-6.56 13.69-10.26 4.33-3.7 8.4-7.74 11.98-12.15 1.88-1.95 4.08-5.12 5.72-7.55 2.71-3.4 5.11-6.79 7.21-10.38 2.08-3.59 3.87-7.39 5.1-11.58 0 0 .15.35.16 1.14.04.77-.07 2.01-.69 3.76z" opacity=".74"/><path d="m2050.39 2036.86c-.32-.22-1.34-.23-.54-.56.11.18.64.38.54.56z"/><path d="m2026.89 2049.02c.03.06-.26.33-.31.41.11-.34.14-.7.36-.92-.16.34-.05.33-.05.51z"/><path d="m2024.59 2056c-.08-.07-.08-.5-.05-1.03.05-.53.2-1.15.31-1.6l-.19 1.31c-.05.44-.05.89-.07 1.32z"/><path d="m2023.24 2062.76c-.15.59-.23.43-.22-.37.09-.06.14.21.22.37z"/><path d="m2023.64 2063.25c0 .57-.1.85-.2 1.13.14-.03-.1-1.32.2-1.13z"/><path d="m2026.68 2078c.2.32.72.93.72 1.33-.07-.39-1.08-1.45-.72-1.33z"/><path d="m2030.96 2083.65c.15.17.19.26.4.42.23.36-.17.12-.42-.12z"/><path d="m2112.96 2045.72.33.67-.2-.04z"/><path d="m2069.95 2017.24c-.73.01-.47-.23-.59-.27.65.07-.27.18.59.27z"/><path d="m2045.76 2027.87.07-.21.32.16z"/></g></g></svg>