<?xml version="1.0" encoding="utf-8"?>
<!-- Generator: Adobe Illustrator 25.0.0, SVG Export Plug-In . SVG Version: 6.00 Build 0)  -->
<svg version="1.1" id="Layer_1" xmlns="http://www.w3.org/2000/svg" xmlns:xlink="http://www.w3.org/1999/xlink" x="0px" y="0px"
	 viewBox="0 0 990 489.9" style="enable-background:new 0 0 990 489.9;" xml:space="preserve">
<style type="text/css">
	.st0{fill:#9BF9D1;}
	.st1{fill:#A2F8FC;}
	.st2{fill:#FC7EC7;}
	.st3{fill:#FFFFFF;}
	.st4{fill:#E6007A;}
</style>
<rect x="-8" width="1008" height="489.9"/>
<path class="st0" d="M500.4,220.5v-0.6c-0.2-11.8-9.8-21.3-21.6-21.3h-14.3c-1.1,0.2-2.1-0.6-2.3-1.7c0-0.2,0-0.4,0-0.6v-13
	c0-0.2,0-0.4,0-0.6c0.3-13.7-10.6-25-24.3-25.3s-25,10.6-25.3,24.3c0,0.3,0,0.7,0,1v13.6c0.2,1.1-0.6,2.1-1.7,2.3
	c-0.2,0-0.4,0-0.6,0H364c-1.1,0.2-2.1-0.6-2.3-1.7c0-0.2,0-0.4,0-0.6v-14.9c0-13-10.5-23.6-23.5-23.6s-23.6,10.5-23.6,23.6v14.9
	c0,1.5-0.7,2.3-2,2.3H298c-11.9,0.3-21.4,10.1-21.2,22.1c0.2,11.6,9.6,20.9,21.2,21.2c0.4,0,0.7,0,1.1,0.1h13.5c1.4,0,2,0.8,2,2.3
	v20c0,13,10.6,23.5,23.6,23.5c12.6,0,23-10,23.5-22.6v-20.9c-0.2-1.1,0.6-2.1,1.7-2.3c0.2,0,0.4,0,0.6,0h46.3
	c1.1-0.2,2.1,0.6,2.3,1.7c0,0.2,0,0.4,0,0.6v10.3c0,13.1-1.1,23.7-3.3,31.9c-2.1,8-6.2,15.4-12,21.4s-13.4,10.6-22.8,13.9
	c-9.5,3.1-19.3,5.3-29.2,6.6c-12,2.5-19.6,14.3-17.1,26.2c2.2,10.2,11.2,17.6,21.7,17.5c0.5,0,1,0,1.6,0
	c38.7-5.1,66.7-16.5,83.9-34.1c17.9-18.4,26.8-46.2,26.8-83.4v-10.5c-0.2-1.1,0.6-2.1,1.7-2.3c0.2,0,0.4,0,0.6,0h14.3
	C490.6,241.9,500.3,232.4,500.4,220.5z"/>
<path class="st1" d="M718,174.9c-2.6-2.8-6.3-4.4-10.2-4.3H534.5c-12.3,0.3-22.1,10.4-21.8,22.7c0.3,11.9,9.9,21.5,21.8,21.8H666
	c0.5,0,1,0.3,1.3,0.8s0.3,0.9,0,1.3c-12.6,21.9-33.4,41.1-62.4,57.5c-1.2,0.8-2.3,0.6-3.3-0.8c-2.8-3.8-5.3-7.2-7.5-10.2l0,0
	c-7.9-10.7-22.8-13.5-34-6.3l-1,0.6c-11.3,8-14,23.6-6.1,35c16.2,22.2,31.5,43.9,46,65c8.8,11,24.8,12.7,35.8,4
	c9.9-8,12.5-22,5.9-33c-2.2-3.2-4.8-6.9-7.7-11.1c-0.8-1.2-0.6-2.1,0.8-2.8c20.9-12.2,37.9-25.2,51-39c13.3-13.9,24.1-30,32-47.6
	c3.8-8.8,5.7-18.4,5.6-28V185C722.3,181.3,720.8,177.6,718,174.9z"/>
<path class="st2" d="M252.4,185c-2.7-2.8-6.4-4.3-10.3-4.2h-88.4c0,0-7.7,0.3-7.7-0.2c-1-12.8-12-22.5-24.8-21.6
	c-9.9,0.7-18.3,7.6-20.9,17.2c0,0.1,0,0.1-0.1,0.2c-6.8,26.6-19.2,51.5-36.3,73c-6.6,9.8-4.9,23,4.1,30.6l0.4,0.3
	c9.1,7.4,22.3,6.8,30.7-1.4c13.9-15.9,25.5-33.6,34.4-52.7c0.4-1.3,1.7-2.1,3.1-2h65.2c1.7,0,2.4,0.7,2,2
	c-3.7,33.1-14.2,57.3-31.4,72.6c-15.9,14.1-40.6,23.9-74,29.3l0,0c-12.1,1.8-20.5,13.1-18.7,25.2c1.6,10.8,10.9,18.9,21.8,18.9
	c1.1,0,2.2-0.1,3.2-0.2c0.3-0.1,0.7-0.1,1-0.1c50.6-7,87.9-23.5,111.8-49.6c25.1-27.5,38.1-69.8,39-126.8
	C256.7,191.5,255.1,187.7,252.4,185z"/>
<path class="st0" d="M361.2,101.6c-1.6-1.5-3.6-2.5-5.7-2.8c-2.7-0.4-5.4,1.4-7.2,2.6c-1.8,1.2-5.3,4.7-6.8,5.7s-5.1,2-11,5.6
	c-5.9,3.6-29.2,18.5-29.2,18.5l6,0.1l-27,14h2.7l-3.9,3c2.1,0.5,4.4,0.2,6.3-0.9v0.8c0,0,32.1-12.7,38.3-9.4l-3.8,1.1
	c0.3,0,6.4,0.4,6.4,0.4c0.3,2.6,1.7,4.8,3.9,6.2c3.7,2.4,3.7,3.8,3.7,3.8s-1.9,0.8-1.9,1.8c3.4-1.1,7-1.1,10.4,0c0,0-0.2-1-2.8-1.8
	s-5.1-3.5-6.3-5c-1.5-2-1.9-4.6-1-6.9s4-3.5,10.3-6.8c7.5-3.9,9.2-6.8,10.2-9c1-2.2,2.6-6.7,3.5-8.8c0.7-2,2-3.7,3.6-5
	c2-1.1,4.1-2,6.2-2.8C366.4,105.9,362.5,102.6,361.2,101.6z"/>
<path class="st3" d="M926.8,216.6c0,6.3-0.8,11.8-2.3,16.5s-3.6,9.1-6.3,13.1s-6,7.7-9.9,11.2c-3.8,3.5-8.2,7.2-13.1,11
	c-3,2.5-5.5,4.6-7.5,6.5s-3.5,3.8-4.7,5.8c-1.1,2-1.9,4.1-2.4,6.3c-0.5,2.2-0.7,4.8-0.7,7.8v7.4h-43.7v-10.8c0-4.9,0.5-9.3,1.4-13.2
	s2.3-7.4,4.2-10.7c1.9-3.2,4.2-6.4,6.9-9.4c2.7-3,5.9-6.2,9.7-9.4l9.2-8.8c3.2-2.8,5.9-5.8,8.1-9c2.2-3.1,3.4-6.9,3.4-11.2
	c0-6.1-1.8-10.9-5.5-14.5c-3.6-3.6-8.6-5.4-15-5.4c-7.8,0-13.7,2.7-17.6,8.1c-3.9,5.4-6.1,11.5-6.4,18.3l-44.5-4.8
	c1.1-10.2,3.7-19.2,7.7-27s9.2-14.2,15.5-19.3s13.5-9,21.6-11.5c8-2.6,16.6-3.8,25.5-3.8c8.4,0,16.6,1.1,24.6,3.3
	c8,2.2,15,5.6,21.2,10.2c6.2,4.6,11.1,10.6,14.9,17.8C925,198.2,926.8,206.8,926.8,216.6z"/>
<path class="st4" d="M885.7,342.4c0,7.6-2.6,14-7.8,19.2s-11.7,7.8-19.3,7.8c-3.7,0-7.2-0.7-10.5-2s-6.2-3.2-8.7-5.7s-4.5-5.3-6-8.5
	s-2.2-6.7-2.2-10.5c0-3.6,0.7-7.1,2.1-10.4c1.4-3.3,3.4-6.2,5.9-8.7s5.5-4.4,8.8-5.8c3.4-1.4,6.9-2.1,10.6-2.1
	c3.7,0,7.2,0.7,10.5,2.1c3.3,1.4,6.2,3.3,8.7,5.7s4.5,5.2,5.9,8.5C885,335.3,885.7,338.8,885.7,342.4z"/>
</svg>
